{
.appVersion = "3337";
.formatVersion = 3;
DisplayStrings = (
"Ἑ",
"Ἢ"
);
axes = (
{
name = "Optical size";
tag = opsz;
},
{
name = Weight;
tag = wght;
}
);
classes = (
{
automatic = 1;

glyphs = (
{
glyphname = A;
kernLeft = KO_A;
kernRight = KO_A;
lastChange = "2025-03-15 18:32:37 +0000";
layers = (
{
anchors = (
{
name = bottom;
pos = (382,0);
},
{
name = ogonek;
pos = (666,10);
},
{
name = top;
pos = (351,646);
}
);
layerId = m01;
shapes = (
{
closed = 1;
nodes = (
(539,254,l),
(539,295,l),
(213,295,l),
(213,254,l)
);
},
{
closed = 1;
nodes = (
(54,-1,o),
(93,0,o),
(132,0,cs),
(170,0,o),
(210,-1,o),
(248,-6,c),
(248,25,l),
(217,30,o),
(163,43,o),
(159,51,c),
(184,129,o),
(208,200,o),
(236,278,cs),
(361,629,l),
(341,619,l),
(380,531,o),
(417,444,o),
(453,359,cs),
(501,245,ls),
(529,179,o),
(555,116,o),
(580,50,c),
(576,42,o),
(528,30,o),
(501,25,c),
(501,-6,l),
(546,-1,o),
(592,0,o),
(637,0,cs),
(681,0,o),
(727,-1,o),
(772,-6,c),
(772,25,l),
(739,30,o),
(674,45,o),
(670,53,cs),
(640,115,o),
(605,192,o),
(579,254,cs),
(533,366,ls),
(495,458,o),
(457,553,o),
(421,646,c),
(416,660,l),
(275,660,l),
(275,629,l),
(296,621,o),
(316,611,o),
(335,597,c),
(313,631,l),
(286,544,o),
(254,448,o),
(223,361,cs),
(113,53,ls),
(110,45,o),
(47,31,o),
(15,25,c),
(15,-6,l)
);
}
);
width = 787;
},
{
anchors = (
{
name = bottom;
pos = (387,0);
},
{
name = ogonek;
pos = (684,10);
},
{
name = top;
pos = (356,654);
}
);
layerId = "66C19249-B420-404C-A3E7-B74793AC6646";
shapes = (
{
closed = 1;
nodes = (
(544,250,l),
(544,307,l),
(218,307,l),
(218,250,l)
);
},
{
closed = 1;
nodes = (
(57,-1,o),
(96,0,o),
(135,0,cs),
(178,0,o),
(220,-1,o),
(263,-6,c),
(263,32,l),
(233,37,o),
(178,50,o),
(174,58,c),
(196,130,o),
(221,206,o),
(247,281,cs),
(368,628,l),
(345,616,l),
(383,532,o),
(420,447,o),
(455,363,cs),
(503,248,ls),
(528,188,o),
(556,118,o),
(580,57,c),
(576,49,o),
(527,37,o),
(501,32,c),
(501,-6,l),
(547,-1,o),
(594,0,o),
(640,0,cs),
(687,0,o),
(735,-1,o),
(782,-6,c),
(782,32,l),
(747,37,o),
(684,52,o),
(680,60,cs),
(647,130,o),
(616,200,o),
(592,257,cs),
(544,370,ls),
(493,490,o),
(456,581,o),
(430,654,cs),
(425,668,l),
(270,668,l),
(270,630,l),
(294,623,o),
(316,613,o),
(338,600,c),
(314,638,l),
(283,539,o),
(255,455,o),
(223,365,cs),
(116,60,ls),
(113,52,o),
(52,38,o),
(18,32,c),
(18,-6,l)
);
}
);
width = 800;
},
{
anchors = (
{
name = bottom;
pos = (346,0);
},
{
name = ogonek;
pos = (606,10);
},
{
name = top;
pos = (317,646);
}
);
layerId = m004;
shapes = (
{
closed = 1;
nodes = (
(487,261,l),
(487,288,l),
(194,288,l),
(194,261,l)
);
},
{
closed = 1;
nodes = (
(48,-1,o),
(82,0,o),
(116,0,cs),
(152,0,o),
(188,-1,o),
(224,-6,c),
(224,17,l),
(196,23,o),
(148,35,o),
(144,43,c),
(165,118,o),
(186,190,o),
(214,278,cs),
(327,629,l),
(309,619,l),
(345,531,o),
(379,444,o),
(411,359,cs),
(454,245,ls),
(479,178,o),
(504,111,o),
(527,43,c),
(523,35,o),
(480,23,o),
(456,17,c),
(456,-6,l),
(496,-1,o),
(536,0,o),
(577,0,cs),
(618,0,o),
(661,-1,o),
(702,-6,c),
(702,17,l),
(672,22,o),
(613,37,o),
(610,45,cs),
(581,112,o),
(549,190,o),
(525,254,cs),
(483,366,ls),
(448,459,o),
(413,553,o),
(380,646,cs),
(375,660,l),
(250,660,l),
(250,637,l),
(271,629,o),
(290,618,o),
(309,602,c),
(287,638,l),
(263,548,o),
(233,452,o),
(204,361,cs),
(102,45,ls),
(99,37,o),
(45,23,o),
(14,17,c),
(14,-6,l)
);
}
);
width = 716;
},
{
anchors = (
{
name = bottom;
pos = (381,0);
},
{
name = ogonek;
pos = (665,10);
},
{
name = top;
pos = (350,646);
}
);
layerId = "44D59E61-3B4F-4F98-A7D7-4CA7F8682DBB";
shapes = (
{
closed = 1;
nodes = (
(538,252,l),
(538,297,l),
(212,297,l),
(212,252,l)
);
},
{
closed = 1;
nodes = (
(50,-1,o),
(89,0,o),
(131,0,cs),
(172,0,o),
(212,-1,o),
(250,-6,c),
(250,31,l),
(219,36,o),
(163,49,o),
(163,57,c),
(188,135,o),
(210,200,o),
(238,278,cs),
(363,629,l),
(315,619,l),
(354,531,o),
(391,444,o),
(427,359,cs),
(475,245,ls),
(503,179,o),
(526,122,o),
(551,56,c),
(551,48,o),
(502,36,o),
(475,31,c),
(475,-6,l),
(520,-1,o),
(571,0,o),
(636,0,cs),
(702,0,o),
(750,-1,o),
(795,-6,c),
(795,31,l),
(762,36,o),
(694,51,o),
(690,59,cs),
(660,121,o),
(628,192,o),
(602,254,cs),
(556,366,ls),
(518,458,o),
(480,553,o),
(444,646,c),
(439,660,l),
(268,660,l),
(268,623,l),
(290,615,o),
(314,605,o),
(334,591,c),
(309,631,l),
(282,544,o),
(250,448,o),
(219,361,cs),
(111,59,ls),
(108,51,o),
(43,37,o),
(11,31,c),
(11,-6,l)
);
}
);
width = 806;
}
);
unicode = 65;
userData = {
KernOnName = A;
};
},
{
glyphname = Aogonek;
kernLeft = KO_A;
kernRight = KO_A;
lastChange = "2025-03-15 18:33:43 +0000";
layers = (
{
anchors = (
{
name = top;
pos = (351,646);
}
);
layerId = m01;
shapes = (
{
closed = 1;
nodes = (
(553,-253,o),
(581,-238,o),
(607,-205,c),
(607,-178,l),
(589,-196,o),
(574,-203,o),
(556,-203,cs),
(518,-203,o),
(495,-169,o),
(495,-114,cs),
(495,-39,o),
(540,0,o),
(625,0,cs),
(682,0,o),
(724,-2,o),
(772,-6,c),
(772,25,l),
(728,31,o),
(674,46,o),
(671,53,cs),
(636,124,o),
(605,192,o),
(579,254,cs),
(533,366,ls),
(495,458,o),
(457,553,o),
(421,646,cs),
(416,660,l),
(275,660,l),
(275,636,l),
(297,627,o),
(318,616,o),
(336,602,c),
(315,637,l),
(287,547,o),
(253,445,o),
(223,361,cs),
(113,53,ls),
(110,46,o),
(75,36,o),
(15,25,c),
(15,-6,l),
(51,-2,o),
(88,0,o),
(132,0,cs),
(177,0,o),
(214,-2,o),
(248,-6,c),
(248,25,l),
(201,33,o),
(163,44,o),
(159,51,c),
(180,117,o),
(198,172,o),
(236,278,cs),
(361,628,l),
(343,614,l),
(375,541,o),
(400,483,o),
(453,359,cs),
(501,245,ls),
(520,200,o),
(540,151,o),
(580,49,c),
(579,48,o),
(572,45,o),
(566,43,cs),
(477,13,o),
(423,-56,o),
(423,-142,cs),
(423,-208,o),
(461,-253,o),
(518,-253,cs)
);
},
{
closed = 1;
nodes = (
(539,254,l),
(539,295,l),
(213,295,l),
(213,254,l)
);
}
);
width = 787;
},
{
anchors = (
{
name = top;
pos = (356,654);
}
);
layerId = "66C19249-B420-404C-A3E7-B74793AC6646";
shapes = (
{
closed = 1;
nodes = (
(564,-253,o),
(592,-238,o),
(619,-205,c),
(619,-169,l),
(601,-186,o),
(587,-193,o),
(570,-193,cs),
(533,-193,o),
(511,-161,o),
(511,-108,cs),
(511,-37,o),
(550,0,o),
(624,0,cs),
(686,0,o),
(732,-2,o),
(782,-6,c),
(782,32,l),
(738,38,o),
(683,53,o),
(680,60,cs),
(634,161,o),
(610,215,o),
(592,257,cs),
(544,370,ls),
(481,520,o),
(451,594,o),
(430,654,cs),
(425,668,l),
(270,668,l),
(270,630,l),
(296,622,o),
(317,613,o),
(338,600,c),
(314,638,l),
(282,536,o),
(256,458,o),
(223,365,cs),
(116,60,ls),
(113,53,o),
(74,42,o),
(18,32,c),
(18,-6,l),
(53,-2,o),
(90,0,o),
(135,0,cs),
(185,0,o),
(225,-2,o),
(263,-6,c),
(263,32,l),
(215,40,o),
(177,51,o),
(174,58,c),
(191,116,o),
(213,183,o),
(247,281,cs),
(368,626,l),
(348,611,l),
(380,540,o),
(414,460,o),
(455,363,cs),
(503,248,ls),
(530,184,o),
(558,116,o),
(580,57,c),
(578,54,o),
(573,51,o),
(567,49,cs),
(481,19,o),
(431,-48,o),
(431,-133,cs),
(431,-204,o),
(471,-253,o),
(528,-253,cs)
);
},
{
closed = 1;
nodes = (
(544,250,l),
(544,307,l),
(218,307,l),
(218,250,l)
);
}
);
width = 800;
},
{
anchors = (
{
name = top;
pos = (317,646);
}
);
layerId = m004;
shapes = (
{
closed = 1;
nodes = (
(509,-253,o),
(537,-238,o),
(563,-205,c),
(563,-183,l),
(546,-201,o),
(530,-209,o),
(511,-209,cs),
(473,-209,o),
(449,-175,o),
(449,-121,cs),
(449,-42,o),
(490,0,o),
(568,0,cs),
(625,0,o),
(665,-2,o),
(702,-6,c),
(702,17,l),
(661,23,o),
(612,38,o),
(610,45,cs),
(577,120,o),
(548,194,o),
(525,254,cs),
(483,366,ls),
(439,483,o),
(407,569,o),
(380,646,cs),
(375,660,l),
(250,660,l),
(250,640,l),
(270,632,o),
(289,621,o),
(309,605,c),
(287,640,l),
(260,540,o),
(231,443,o),
(204,361,cs),
(102,45,ls),
(100,39,o),
(64,28,o),
(14,17,c),
(14,-6,l),
(43,-2,o),
(75,0,o),
(116,0,cs),
(160,0,o),
(193,-2,o),
(224,-6,c),
(224,17,l),
(181,26,o),
(147,37,o),
(144,43,c),
(167,126,o),
(188,196,o),
(214,278,cs),
(327,629,l),
(308,621,l),
(350,521,o),
(383,434,o),
(411,359,cs),
(454,245,ls),
(484,166,o),
(508,98,o),
(527,42,c),
(525,39,o),
(521,37,o),
(514,35,cs),
(431,7,o),
(381,-61,o),
(381,-146,cs),
(381,-209,o),
(419,-253,o),
(475,-253,cs)
);
},
{
closed = 1;
nodes = (
(487,261,l),
(487,288,l),
(194,288,l),
(194,261,l)
);
}
);
width = 716;
},
{
anchors = (
{
name = top;
pos = (351,646);
}
);
layerId = "44D59E61-3B4F-4F98-A7D7-4CA7F8682DBB";
shapes = (
{
closed = 1;
nodes = (
(532,-253,o),
(560,-238,o),
(586,-205,c),
(586,-168,l),
(568,-186,o),
(553,-193,o),
(535,-193,cs),
(502,-193,o),
(482,-163,o),
(482,-114,cs),
(482,-35,o),
(530,0,o),
(636,0,cs),
(709,0,o),
(752,-2,o),
(796,-6,c),
(796,31,l),
(750,38,o),
(694,53,o),
(691,59,cs),
(661,119,o),
(629,190,o),
(603,254,cs),
(557,366,ls),
(519,458,o),
(481,553,o),
(445,646,c),
(440,660,l),
(268,660,l),
(268,623,l),
(294,614,o),
(316,603,o),
(334,591,c),
(309,631,l),
(282,544,o),
(250,448,o),
(219,361,cs),
(111,59,ls),
(109,53,o),
(66,41,o),
(11,31,c),
(11,-6,l),
(45,-2,o),
(82,0,o),
(131,0,cs),
(180,0,o),
(217,-2,o),
(250,-6,c),
(250,31,l),
(207,38,o),
(163,51,o),
(163,57,c),
(190,139,o),
(212,204,o),
(238,278,cs),
(363,629,l),
(314,619,l),
(344,550,o),
(376,477,o),
(426,359,cs),
(474,245,ls),
(508,165,o),
(531,110,o),
(551,55,c),
(551,50,o),
(547,45,o),
(539,43,cs),
(431,14,o),
(374,-49,o),
(374,-129,cs),
(374,-204,o),
(422,-253,o),
(497,-253,cs)
);
},
{
closed = 1;
nodes = (
(538,252,l),
(538,297,l),
(212,297,l),
(212,252,l)
);
}
);
width = 807;
}
);
metricLeft = A;
metricRight = A;
unicode = 260;
},
{
glyphname = Aring;
kernLeft = KO_A;
kernRight = KO_A;
lastChange = "2025-03-15 18:34:42 +0000";
layers = (
{
layerId = m01;
shapes = (
{
closed = 1;
nodes = (
(54,-1,o),
(93,0,o),
(132,0,cs),
(170,0,o),
(210,-1,o),
(248,-6,c),
(248,25,l),
(217,30,o),
(159,43,o),
(159,51,c),
(184,129,o),
(208,200,o),
(236,278,cs),
(361,629,l),
(341,619,l),
(380,531,o),
(417,444,o),
(453,359,cs),
(501,245,ls),
(529,179,o),
(555,116,o),
(580,50,c),
(580,42,o),
(528,30,o),
(501,25,c),
(501,-6,l),
(546,-1,o),
(592,0,o),
(637,0,cs),
(681,0,o),
(727,-1,o),
(772,-6,c),
(772,25,l),
(739,30,o),
(674,45,o),
(670,53,cs),
(640,115,o),
(605,192,o),
(579,254,cs),
(533,366,ls),
(495,458,o),
(457,553,o),
(421,646,c),
(416,660,l),
(322,660,l),
(281,530,o),
(252,442,o),
(223,361,cs),
(113,53,ls),
(110,45,o),
(47,31,o),
(15,25,c),
(15,-6,l)
);
},
{
closed = 1;
nodes = (
(539,254,l),
(539,295,l),
(213,295,l),
(213,254,l)
);
},
{
closed = 1;
nodes = (
(413,635,o),
(455,670,o),
(455,720,cs),
(455,765,o),
(416,804,o),
(366,804,cs),
(317,804,o),
(275,770,o),
(275,720,cs),
(275,672,o),
(312,635,o),
(366,635,cs)
);
},
{
closed = 1;
nodes = (
(338,664,o),
(319,686,o),
(319,720,cs),
(319,747,o),
(337,775,o),
(366,775,cs),
(391,775,o),
(411,753,o),
(411,720,cs),
(411,688,o),
(394,664,o),
(366,664,cs)
);
}
);
width = 787;
},
{
layerId = "66C19249-B420-404C-A3E7-B74793AC6646";
shapes = (
{
closed = 1;
nodes = (
(57,-1,o),
(96,0,o),
(135,0,cs),
(178,0,o),
(220,-1,o),
(263,-6,c),
(263,32,l),
(233,37,o),
(174,50,o),
(174,58,c),
(196,130,o),
(221,206,o),
(247,281,cs),
(368,628,l),
(345,616,l),
(383,532,o),
(420,447,o),
(455,363,cs),
(503,248,ls),
(528,188,o),
(556,118,o),
(580,57,c),
(580,49,o),
(527,37,o),
(501,32,c),
(501,-6,l),
(547,-1,o),
(594,0,o),
(640,0,cs),
(687,0,o),
(735,-1,o),
(782,-6,c),
(782,32,l),
(747,37,o),
(684,52,o),
(680,60,cs),
(647,130,o),
(616,200,o),
(592,257,cs),
(544,370,ls),
(493,490,o),
(456,581,o),
(430,654,cs),
(425,668,l),
(323,668,l),
(278,525,o),
(252,447,o),
(223,365,cs),
(116,60,ls),
(113,52,o),
(52,38,o),
(18,32,c),
(18,-6,l)
);
},
{
closed = 1;
nodes = (
(544,250,l),
(544,307,l),
(218,307,l),
(218,250,l)
);
},
{
closed = 1;
nodes = (
(422,641,o),
(469,681,o),
(469,736,cs),
(469,786,o),
(426,830,o),
(370,830,cs),
(316,830,o),
(270,791,o),
(270,736,cs),
(270,683,o),
(311,641,o),
(370,641,cs)
);
},
{
closed = 1;
nodes = (
(340,673,o),
(319,699,o),
(319,736,cs),
(319,766,o),
(338,798,o),
(370,798,cs),
(398,798,o),
(420,773,o),
(420,736,cs),
(420,701,o),
(401,673,o),
(370,673,cs)
);
}
);
width = 800;
},
{
layerId = m004;
shapes = (
{
closed = 1;
nodes = (
(48,-1,o),
(82,0,o),
(116,0,cs),
(152,0,o),
(188,-1,o),
(224,-6,c),
(224,17,l),
(196,22,o),
(148,35,o),
(144,43,c),
(165,118,o),
(186,190,o),
(214,278,cs),
(327,629,l),
(309,619,l),
(345,531,o),
(379,444,o),
(411,359,cs),
(454,245,ls),
(479,178,o),
(504,111,o),
(527,43,c),
(523,35,o),
(480,23,o),
(456,17,c),
(456,-6,l),
(496,-1,o),
(536,0,o),
(577,0,cs),
(618,0,o),
(661,-1,o),
(702,-6,c),
(702,17,l),
(672,22,o),
(613,37,o),
(610,45,cs),
(581,112,o),
(549,190,o),
(525,254,cs),
(483,366,ls),
(448,459,o),
(413,553,o),
(380,646,cs),
(375,660,l),
(294,660,l),
(259,534,o),
(231,445,o),
(204,361,cs),
(102,45,ls),
(99,37,o),
(45,23,o),
(14,17,c),
(14,-6,l)
);
},
{
closed = 1;
nodes = (
(487,261,l),
(487,288,l),
(194,288,l),
(194,261,l)
);
},
{
closed = 1;
nodes = (
(381,635,o),
(424,670,o),
(424,720,cs),
(424,766,o),
(385,805,o),
(334,805,cs),
(285,805,o),
(243,770,o),
(243,720,cs),
(243,672,o),
(280,635,o),
(334,635,cs)
);
},
{
closed = 1;
nodes = (
(307,664,o),
(288,687,o),
(288,720,cs),
(288,747,o),
(305,776,o),
(334,776,cs),
(359,776,o),
(379,754,o),
(379,720,cs),
(379,689,o),
(362,664,o),
(334,664,cs)
);
}
);
width = 716;
},
{
background = {
anchors = (
{
name = bottom;
pos = (381,0);
},
{
name = ogonek;
pos = (665,10);
},
{
name = top;
pos = (350,646);
}
);
guides = (
{
angle = 252.7585;
pos = (308,588);
}
);
shapes = (
{
closed = 1;
nodes = (
(538,252,l),
(538,297,l),
(212,297,l),
(212,252,l)
);
},
{
closed = 1;
nodes = (
(50,-1,o),
(89,0,o),
(131,0,cs),
(172,0,o),
(212,-1,o),
(250,-6,c),
(250,31,l),
(219,36,o),
(163,49,o),
(163,57,c),
(188,135,o),
(210,200,o),
(238,278,cs),
(363,629,l),
(320,619,l),
(359,531,o),
(396,444,o),
(432,359,cs),
(480,245,ls),
(508,179,o),
(531,122,o),
(556,56,c),
(556,48,o),
(507,36,o),
(480,31,c),
(480,-6,l),
(525,-1,o),
(571,0,o),
(636,0,cs),
(702,0,o),
(748,-1,o),
(793,-6,c),
(793,31,l),
(760,36,o),
(692,51,o),
(688,59,cs),
(658,121,o),
(626,192,o),
(600,254,cs),
(554,366,ls),
(516,458,o),
(478,553,o),
(442,646,c),
(437,660,l),
(318,660,l),
(291,573,o),
(250,448,o),
(219,361,cs),
(111,59,ls),
(108,51,o),
(43,37,o),
(11,31,c),
(11,-6,l)
);
}
);
};
layerId = "44D59E61-3B4F-4F98-A7D7-4CA7F8682DBB";
shapes = (
{
closed = 1;
nodes = (
(50,-1,o),
(89,0,o),
(131,0,cs),
(172,0,o),
(212,-1,o),
(250,-6,c),
(250,31,l),
(219,36,o),
(163,49,o),
(163,57,c),
(188,135,o),
(210,200,o),
(238,278,cs),
(363,629,l),
(318,619,l),
(357,531,o),
(394,444,o),
(430,359,cs),
(478,245,ls),
(506,179,o),
(529,122,o),
(554,56,c),
(554,48,o),
(505,36,o),
(478,31,c),
(478,-6,l),
(523,-1,o),
(571,0,o),
(636,0,cs),
(702,0,o),
(750,-1,o),
(795,-6,c),
(795,31,l),
(762,36,o),
(694,51,o),
(690,59,cs),
(660,121,o),
(628,192,o),
(602,254,cs),
(556,366,ls),
(518,458,o),
(480,553,o),
(444,646,c),
(439,660,l),
(318,660,l),
(291,573,o),
(250,448,o),
(219,361,cs),
(111,59,ls),
(108,51,o),
(43,37,o),
(11,31,c),
(11,-6,l)
);
},
{
closed = 1;
nodes = (
(538,252,l),
(538,297,l),
(212,297,l),
(212,252,l)
);
},
{
closed = 1;
nodes = (
(428,627,o),
(474,666,o),
(474,720,cs),
(474,769,o),
(432,812,o),
(377,812,cs),
(324,812,o),
(278,774,o),
(278,720,cs),
(278,668,o),
(318,627,o),
(377,627,cs)
);
},
{
closed = 1;
nodes = (
(350,667,o),
(332,688,o),
(332,720,cs),
(332,746,o),
(350,772,o),
(377,772,cs),
(401,772,o),
(420,751,o),
(420,720,cs),
(420,690,o),
(403,667,o),
(377,667,cs)
);
}
);
width = 806;
}
);
metricLeft = A;
metricRight = A;
unicode = 197;
},
{
glyphname = AE;
kernLeft = KO_AE;
kernRight = KO_E;
lastChange = "2025-03-15 18:34:45 +0000";
layers = (
{
anchors = (
{
name = bottom;
pos = (436,0);
},
{
name = top;
pos = (596,646);
}
);
layerId = m01;
shapes = (
{
closed = 1;
nodes = (
(58,-1,o),
(101,0,o),
(144,0,cs),
(187,0,o),
(230,-1,o),
(273,-6,c),
(273,25,l),
(237,30,o),
(174,44,o),
(169,51,c),
(208,129,o),
(245,201,o),
(286,278,cs),
(460,606,l),
(464,563,o),
(465,514,o),
(465,419,cs),
(465,214,ls),
(465,111,o),
(463,65,o),
(457,22,c),
(549,22,l),
(543,65,o),
(541,111,o),
(541,214,cs),
(541,419,ls),
(541,530,o),
(543,579,o),
(549,627,c),
(522,646,l),
(378,646,l),
(378,615,l),
(395,608,o),
(411,599,o),
(426,586,c),
(419,622,l),
(374,533,o),
(331,448,o),
(285,361,cs),
(122,53,ls),
(118,45,o),
(50,31,o),
(15,25,c),
(15,-6,l)
);
},
{
closed = 1;
nodes = (
(820,499,l),
(820,652,l),
(713,648,o),
(612,646,o),
(499,646,c),
(499,606,l),
(695,606,ls),
(732,606,o),
(754,590,o),
(765,558,cs),
(785,499,l)
);
},
{
closed = 1;
nodes = (
(844,122,l),
(808,122,l),
(772,81,ls),
(745,51,o),
(715,41,o),
(675,41,cs),
(630,41,o),
(582,41,o),
(536,50,c),
(467,50,l),
(441,39,o),
(414,30,o),
(388,25,c),
(388,-6,l),
(415,-1,o),
(448,0,o),
(499,0,cs),
(635,0,o),
(693,-2,o),
(791,-11,c)
);
},
{
closed = 1;
nodes = (
(767,226,l),
(762,255,o),
(761,286,o),
(761,315,cs),
(761,344,o),
(762,375,o),
(767,404,c),
(743,404,l),
(739,382,o),
(727,341,o),
(721,341,cs),
(683,339,o),
(646,338,o),
(608,338,cs),
(294,338,l),
(269,297,l),
(721,297,ls),
(727,297,o),
(738,249,o),
(743,226,c)
);
}
);
width = 892;
},
{
anchors = (
{
name = bottom;
pos = (440,0);
},
{
name = top;
pos = (580,654);
}
);
layerId = "66C19249-B420-404C-A3E7-B74793AC6646";
shapes = (
{
closed = 1;
nodes = (
(61,-1,o),
(104,0,o),
(147,0,cs),
(190,0,o),
(233,-1,o),
(276,-6,c),
(276,32,l),
(241,37,o),
(172,51,o),
(167,58,c),
(205,131,o),
(245,205,o),
(285,278,cs),
(460,597,l),
(464,537,o),
(464,498,o),
(464,424,cs),
(464,217,ls),
(464,112,o),
(462,66,o),
(456,22,c),
(547,22,l),
(541,66,o),
(539,112,o),
(539,217,cs),
(539,424,ls),
(539,537,o),
(541,586,o),
(547,635,c),
(514,654,l),
(352,654,l),
(352,616,l),
(376,605,o),
(400,591,o),
(422,574,c),
(404,610,l),
(356,514,o),
(326,458,o),
(274,363,cs),
(108,60,ls),
(103,52,o),
(49,38,o),
(18,32,c),
(18,-6,l)
);
},
{
closed = 1;
nodes = (
(824,505,l),
(824,660,l),
(717,656,o),
(616,654,o),
(493,654,c),
(516,597,l),
(695,597,ls),
(732,597,o),
(759,582,o),
(767,558,cs),
(785,505,l)
);
},
{
closed = 1;
nodes = (
(848,123,l),
(808,123,l),
(776,86,ls),
(757,64,o),
(720,57,o),
(677,57,cs),
(629,57,o),
(580,57,o),
(533,60,c),
(467,60,l),
(441,47,o),
(414,36,o),
(382,32,c),
(382,-6,l),
(409,-1,o),
(442,0,o),
(493,0,cs),
(639,0,o),
(697,-2,o),
(795,-11,c)
);
},
{
closed = 1;
nodes = (
(771,230,l),
(766,260,o),
(765,290,o),
(765,320,cs),
(765,350,o),
(766,380,o),
(771,410,c),
(737,410,l),
(733,391,o),
(725,354,o),
(719,354,cs),
(682,351,o),
(645,350,o),
(608,350,cs),
(286,350,l),
(258,294,l),
(719,294,ls),
(725,294,o),
(733,252,o),
(737,230,c)
);
}
);
width = 901;
},
{
anchors = (
{
name = bottom;
pos = (407,0);
},
{
name = top;
pos = (556,646);
}
);
layerId = m004;
shapes = (
{
closed = 1;
nodes = (
(52,-1,o),
(91,0,o),
(129,0,cs),
(167,0,o),
(206,-1,o),
(244,-6,c),
(244,17,l),
(208,22,o),
(142,36,o),
(137,43,c),
(176,118,o),
(214,190,o),
(262,278,cs),
(443,608,l),
(446,565,o),
(448,516,o),
(448,419,cs),
(448,206,ls),
(448,103,o),
(446,57,o),
(440,14,c),
(527,14,l),
(520,57,o),
(518,103,o),
(518,206,cs),
(518,419,ls),
(518,530,o),
(520,579,o),
(527,627,c),
(499,646,l),
(373,646,l),
(373,623,l),
(389,617,o),
(405,607,o),
(419,595,c),
(410,628,l),
(365,537,o),
(320,450,o),
(271,361,cs),
(96,45,ls),
(91,37,o),
(42,23,o),
(14,17,c),
(14,-6,l)
);
},
{
closed = 1;
nodes = (
(765,499,l),
(765,652,l),
(658,648,o),
(557,646,o),
(479,646,c),
(479,621,l),
(644,621,ls),
(681,621,o),
(697,609,o),
(705,585,cs),
(734,499,l)
);
},
{
closed = 1;
nodes = (
(789,122,l),
(758,122,l),
(702,57,ls),
(684,37,o),
(663,25,o),
(624,25,cs),
(588,25,o),
(549,25,o),
(513,45,c),
(450,45,l),
(424,30,o),
(396,21,o),
(368,17,c),
(368,-6,l),
(395,-1,o),
(428,0,o),
(479,0,cs),
(580,0,o),
(638,-2,o),
(736,-11,c)
);
},
{
closed = 1;
nodes = (
(712,227,l),
(707,256,o),
(706,287,o),
(706,316,cs),
(706,345,o),
(707,376,o),
(712,405,c),
(692,405,l),
(687,381,o),
(673,334,o),
(667,334,cs),
(636,332,o),
(605,331,o),
(574,331,cs),
(272,331,l),
(257,304,l),
(667,304,ls),
(673,304,o),
(686,253,o),
(692,227,c)
);
}
);
width = 832;
},
{
anchors = (
{
name = bottom;
pos = (432,0);
},
{
name = top;
pos = (592,646);
}
);
guides = (
{
pos = (470,592);
}
);
layerId = "44D59E61-3B4F-4F98-A7D7-4CA7F8682DBB";
shapes = (
{
closed = 1;
nodes = (
(54,-1,o),
(97,0,o),
(140,0,cs),
(183,0,o),
(226,-1,o),
(269,-6,c),
(269,31,l),
(234,36,o),
(176,50,o),
(171,57,c),
(210,135,o),
(244,201,o),
(285,278,cs),
(453,592,l),
(456,558,o),
(456,516,o),
(456,419,cs),
(456,214,ls),
(456,111,o),
(454,65,o),
(448,22,c),
(590,22,l),
(584,65,o),
(582,111,o),
(582,214,cs),
(582,419,ls),
(582,530,o),
(584,579,o),
(590,627,c),
(518,646,l),
(371,646,l),
(371,609,l),
(388,602,o),
(407,593,o),
(422,580,c),
(412,622,l),
(367,533,o),
(324,448,o),
(278,361,cs),
(118,59,ls),
(114,51,o),
(45,37,o),
(11,31,c),
(11,-6,l)
);
},
{
closed = 1;
nodes = (
(836,493,l),
(836,652,l),
(729,648,o),
(628,646,o),
(495,646,c),
(495,600,l),
(709,600,ls),
(746,600,o),
(768,584,o),
(779,552,cs),
(799,493,l)
);
},
{
closed = 1;
nodes = (
(863,128,l),
(824,128,l),
(788,87,ls),
(761,57,o),
(731,47,o),
(691,47,cs),
(646,47,o),
(578,47,o),
(532,56,c),
(463,56,l),
(437,45,o),
(410,36,o),
(384,31,c),
(384,-6,l),
(411,-1,o),
(444,0,o),
(495,0,cs),
(651,0,o),
(709,-2,o),
(807,-11,c)
);
},
{
closed = 1;
nodes = (
(783,223,l),
(778,253,o),
(777,285,o),
(777,315,cs),
(777,345,o),
(778,377,o),
(783,407,c),
(749,407,l),
(745,385,o),
(733,344,o),
(727,344,cs),
(689,342,o),
(657,341,o),
(598,341,cs),
(290,341,l),
(265,294,l),
(727,294,ls),
(733,294,o),
(744,246,o),
(749,223,c)
);
}
);
width = 894;
}
);
metricLeft = A;
metricRight = E;
unicode = 198;
},
{
glyphname = B;
kernLeft = KO_H;
kernRight = KO_B;
lastChange = "2025-03-14 17:56:29 +0000";
layers = (
{
anchors = (
{
name = bottom;
pos = (283,0);
},
{
name = center;
pos = (283,323);
},
{
name = top;
pos = (283,646);
}
);
layerId = m01;
shapes = (
{
closed = 1;
nodes = (
(90,-1,o),
(127,0,o),
(167,0,cs),
(218,0,o),
(258,-4,o),
(296,-4,cs),
(439,-4,o),
(538,53,o),
(538,183,cs),
(538,276,o),
(487,336,o),
(345,360,c),
(348,346,l),
(452,372,o),
(509,425,o),
(509,501,cs),
(509,594,o),
(424,650,o),
(286,650,cs),
(250,650,o),
(214,646,o),
(167,646,cs),
(122,646,o),
(91,647,o),
(68,650,c),
(68,619,l),
(91,613,o),
(110,605,o),
(128,594,c),
(175,597,l),
(212,607,o),
(240,611,o),
(268,611,cs),
(365,611,o),
(433,560,o),
(433,488,cs),
(433,421,o),
(373,371,o),
(284,371,cs),
(188,371,l),
(188,330,l),
(287,330,ls),
(395,330,o),
(459,274,o),
(459,189,cs),
(459,98,o),
(384,35,o),
(277,35,cs),
(247,35,o),
(216,40,o),
(175,49,c),
(128,53,l),
(105,41,o),
(84,34,o),
(60,28,c),
(60,-4,l)
);
},
{
closed = 1;
nodes = (
(217,22,l),
(211,67,o),
(209,112,o),
(209,214,cs),
(209,419,ls),
(209,529,o),
(211,578,o),
(217,627,c),
(125,627,l),
(131,578,o),
(133,529,o),
(133,419,cs),
(133,214,ls),
(133,112,o),
(131,67,o),
(125,22,c)
);
}
);
width = 592;
},
{
anchors = (
{
name = bottom;
pos = (288,0);
},
{
name = center;
pos = (288,327);
},
{
name = top;
pos = (288,654);
}
);
layerId = "66C19249-B420-404C-A3E7-B74793AC6646";
shapes = (
{
closed = 1;
nodes = (
(97,-1,o),
(135,0,o),
(176,0,cs),
(227,0,o),
(267,-4,o),
(305,-4,cs),
(450,-4,o),
(551,54,o),
(551,185,cs),
(551,281,o),
(498,341,o),
(351,365,c),
(354,349,l),
(464,376,o),
(522,430,o),
(522,507,cs),
(522,601,o),
(436,658,o),
(295,658,cs),
(260,658,o),
(224,654,o),
(176,654,cs),
(129,654,o),
(98,655,o),
(74,658,c),
(74,620,l),
(97,615,o),
(116,607,o),
(134,595,c),
(185,586,l),
(221,596,o),
(249,600,o),
(277,600,cs),
(370,600,o),
(438,556,o),
(438,494,cs),
(438,432,o),
(379,383,o),
(291,383,cs),
(197,383,l),
(197,326,l),
(294,326,ls),
(402,326,o),
(464,272,o),
(464,191,cs),
(464,111,o),
(390,54,o),
(285,54,cs),
(255,54,o),
(224,59,o),
(185,68,c),
(134,59,l),
(112,48,o),
(90,40,o),
(66,34,c),
(66,-4,l)
);
},
{
closed = 1;
nodes = (
(232,22,l),
(226,68,o),
(224,113,o),
(224,217,cs),
(224,424,ls),
(224,536,o),
(226,585,o),
(232,635,c),
(130,635,l),
(136,585,o),
(138,536,o),
(138,424,cs),
(138,217,ls),
(138,113,o),
(136,68,o),
(130,22,c)
);
}
);
width = 610;
},
{
anchors = (
{
name = bottom;
pos = (253,0);
},
{
name = center;
pos = (253,323);
},
{
name = top;
pos = (253,646);
}
);
layerId = m004;
shapes = (
{
closed = 1;
nodes = (
(83,-1,o),
(114,0,o),
(152,0,cs),
(197,0,o),
(233,-4,o),
(266,-4,cs),
(394,-4,o),
(484,53,o),
(484,183,cs),
(484,276,o),
(437,337,o),
(307,360,c),
(313,346,l),
(398,372,o),
(453,425,o),
(453,501,cs),
(453,594,o),
(378,650,o),
(256,650,cs),
(225,650,o),
(194,646,o),
(152,646,cs),
(110,646,o),
(82,647,o),
(62,650,c),
(62,627,l),
(82,621,o),
(98,613,o),
(116,602,c),
(159,610,l),
(192,621,o),
(216,625,o),
(240,625,cs),
(326,625,o),
(385,570,o),
(385,491,cs),
(385,418,o),
(328,364,o),
(254,364,cs),
(171,364,l),
(171,337,l),
(261,337,ls),
(356,337,o),
(413,277,o),
(413,186,cs),
(413,88,o),
(345,21,o),
(252,21,cs),
(225,21,o),
(196,26,o),
(159,36,c),
(116,44,l),
(96,32,o),
(77,24,o),
(55,19,c),
(55,-4,l)
);
},
{
closed = 1;
nodes = (
(198,22,l),
(193,65,o),
(191,107,o),
(191,214,cs),
(191,419,ls),
(191,533,o),
(193,581,o),
(198,627,c),
(114,627,l),
(119,581,o),
(121,533,o),
(121,419,cs),
(121,214,ls),
(121,109,o),
(119,64,o),
(114,22,c)
);
}
);
width = 533;
},
{
anchors = (
{
name = bottom;
pos = (291,0);
},
{
name = center;
pos = (291,323);
},
{
name = top;
pos = (291,646);
}
);
layerId = "44D59E61-3B4F-4F98-A7D7-4CA7F8682DBB";
shapes = (
{
closed = 1;
nodes = (
(84,-1,o),
(130,0,o),
(175,0,cs),
(230,0,o),
(272,-4,o),
(313,-4,cs),
(466,-4,o),
(571,53,o),
(571,183,cs),
(571,276,o),
(516,336,o),
(364,360,c),
(367,346,l),
(478,372,o),
(539,425,o),
(539,501,cs),
(539,594,o),
(448,650,o),
(301,650,cs),
(263,650,o),
(225,646,o),
(175,646,cs),
(133,646,o),
(90,647,o),
(48,650,c),
(48,613,l),
(71,607,o),
(90,599,o),
(108,588,c),
(183,591,l),
(216,601,o),
(238,605,o),
(263,605,cs),
(346,605,o),
(404,556,o),
(404,488,cs),
(404,421,o),
(352,371,o),
(277,371,cs),
(195,371,l),
(195,330,l),
(280,330,ls),
(375,330,o),
(430,274,o),
(430,189,cs),
(430,102,o),
(365,41,o),
(272,41,cs),
(246,41,o),
(219,46,o),
(183,55,c),
(108,59,l),
(85,47,o),
(63,40,o),
(39,34,c),
(39,-4,l)
);
},
{
closed = 1;
nodes = (
(255,22,l),
(249,67,o),
(247,112,o),
(247,214,cs),
(247,419,ls),
(247,529,o),
(249,578,o),
(255,627,c),
(104,627,l),
(110,578,o),
(112,529,o),
(112,419,cs),
(112,214,ls),
(112,112,o),
(110,67,o),
(104,22,c)
);
}
);
width = 606;
}
);
metricLeft = "=H@245";
metricRight = "=H*0.9";
unicode = 66;
},
{
glyphname = C;
kernLeft = KO_O;
kernRight = KO_C;
lastChange = "2025-03-15 18:34:50 +0000";
layers = (
{
anchors = (
{
name = bottom;
pos = (404,0);
},
{
name = top;
pos = (384,646);
}
);
layerId = m01;
shapes = (
{
closed = 1;
nodes = (
(475,-10,o),
(523,3,o),
(572,17,c),
(591,57,o),
(601,100,o),
(604,141,c),
(566,141,l),
(554,100,o),
(538,68,o),
(518,42,c),
(498,34,o),
(474,29,o),
(445,29,cs),
(312,29,o),
(148,139,o),
(148,327,cs),
(148,480,o),
(262,621,o),
(417,621,cs),
(469,621,o),
(512,606,o),
(555,578,c),
(569,546,o),
(574,515,o),
(574,483,c),
(611,483,l),
(614,506,o),
(615,527,o),
(615,546,cs),
(615,577,o),
(610,602,o),
(601,627,c),
(531,649,o),
(476,660,o),
(423,660,cs),
(233,660,o),
(55,522,o),
(55,329,cs),
(55,137,o),
(225,-10,o),
(417,-10,cs)
);
}
);
width = 663;
},
{
anchors = (
{
name = bottom;
pos = (425,0);
},
{
name = top;
pos = (405,654);
}
);
layerId = "66C19249-B420-404C-A3E7-B74793AC6646";
shapes = (
{
closed = 1;
nodes = (
(478,-10,o),
(534,-4,o),
(590,17,c),
(609,58,o),
(618,101,o),
(622,143,c),
(580,143,l),
(568,109,o),
(553,81,o),
(534,59,c),
(514,51,o),
(491,46,o),
(462,46,cs),
(332,46,o),
(172,151,o),
(172,331,cs),
(172,477,o),
(284,612,o),
(435,612,cs),
(487,612,o),
(527,597,o),
(569,569,c),
(582,542,o),
(587,516,o),
(587,489,c),
(629,489,l),
(632,512,o),
(633,534,o),
(633,552,cs),
(633,584,o),
(627,609,o),
(618,635,c),
(557,657,o),
(502,668,o),
(445,668,cs),
(245,668,o),
(66,528,o),
(66,333,cs),
(66,139,o),
(216,-10,o),
(435,-10,cs)
);
}
);
width = 686;
},
{
anchors = (
{
name = bottom;
pos = (366,0);
},
{
name = top;
pos = (348,646);
}
);
layerId = m004;
shapes = (
{
closed = 1;
nodes = (
(418,-10,o),
(465,-2,o),
(514,17,c),
(531,57,o),
(540,100,o),
(543,141,c),
(509,141,l),
(498,94,o),
(482,58,o),
(464,28,c),
(445,18,o),
(423,14,o),
(399,14,cs),
(278,14,o),
(130,129,o),
(130,327,cs),
(130,488,o),
(233,636,o),
(374,636,cs),
(423,636,o),
(462,620,o),
(499,592,c),
(512,555,o),
(516,520,o),
(516,483,c),
(549,483,l),
(552,506,o),
(553,525,o),
(553,541,cs),
(553,575,o),
(548,603,o),
(540,627,c),
(479,650,o),
(428,660,o),
(382,660,cs),
(210,660,o),
(50,522,o),
(50,329,cs),
(50,137,o),
(193,-10,o),
(376,-10,cs)
);
}
);
width = 596;
},
{
anchors = (
{
name = bottom;
pos = (417,0);
},
{
name = top;
pos = (397,646);
}
);
background = {
shapes = (
{
closed = 0;
nodes = (
(579,141,l),
(567,100,o),
(551,68,o),
(531,42,c),
(511,34,o),
(487,29,o),
(458,29,cs),
(325,29,o),
(161,139,o),
(161,327,cs),
(161,480,o),
(275,621,o),
(430,621,cs),
(482,621,o),
(525,606,o),
(568,578,c),
(582,546,o),
(587,515,o),
(587,483,c)
);
}
);
};
layerId = "44D59E61-3B4F-4F98-A7D7-4CA7F8682DBB";
shapes = (
{
closed = 1;
nodes = (
(482,-10,o),
(532,3,o),
(584,17,c),
(603,59,o),
(614,104,o),
(617,147,c),
(573,147,l),
(562,106,o),
(548,74,o),
(530,48,c),
(513,40,o),
(492,35,o),
(466,35,cs),
(349,35,o),
(205,143,o),
(205,327,cs),
(205,477,o),
(305,615,o),
(442,615,cs),
(487,615,o),
(526,600,o),
(563,572,c),
(576,540,o),
(581,509,o),
(581,477,c),
(624,477,l),
(627,501,o),
(628,523,o),
(628,543,cs),
(628,575,o),
(623,601,o),
(614,627,c),
(541,649,o),
(483,660,o),
(427,660,cs),
(226,660,o),
(39,522,o),
(39,329,cs),
(39,137,o),
(218,-10,o),
(421,-10,cs)
);
}
);
width = 659;
}
);
metricLeft = O;
metricRight = "=H*0.8";
unicode = 67;
userData = {
KernOnName = C;
};
},
{
glyphname = D;
kernLeft = KO_H;
kernRight = KO_O;
lastChange = "2025-03-15 18:34:54 +0000";
layers = (
{
anchors = (
{
name = bottom;
pos = (411,0);
},
{
name = center;
pos = (411,323);
},
{
name = top;
pos = (381,646);
}
);
layerId = m01;
shapes = (
{
closed = 1;
nodes = (
(98,-1,o),
(131,0,o),
(167,0,cs),
(218,0,o),
(258,-4,o),
(296,-4,cs),
(566,-4,o),
(752,100,o),
(752,342,cs),
(752,567,o),
(594,650,o),
(305,650,cs),
(251,650,o),
(214,646,o),
(167,646,cs),
(122,646,o),
(93,647,o),
(69,650,c),
(69,619,l),
(93,613,o),
(113,604,o),
(129,594,c),
(175,597,l),
(212,607,o),
(247,611,o),
(292,611,cs),
(506,611,o),
(659,538,o),
(659,346,cs),
(659,152,o),
(516,35,o),
(294,35,cs),
(250,35,o),
(216,40,o),
(175,49,c),
(129,52,l),
(110,38,o),
(90,31,o),
(70,27,c),
(70,-4,l)
);
},
{
closed = 1;
nodes = (
(218,22,l),
(211,67,o),
(209,112,o),
(209,214,cs),
(209,419,ls),
(209,529,o),
(211,578,o),
(218,627,c),
(125,627,l),
(132,578,o),
(133,529,o),
(133,419,cs),
(133,214,ls),
(133,112,o),
(132,67,o),
(125,22,c)
);
}
);
width = 807;
},
{
anchors = (
{
name = bottom;
pos = (413,0);
},
{
name = center;
pos = (413,327);
},
{
name = top;
pos = (393,654);
}
);
layerId = "66C19249-B420-404C-A3E7-B74793AC6646";
shapes = (
{
closed = 1;
nodes = (
(99,-1,o),
(133,0,o),
(169,0,cs),
(220,0,o),
(261,-4,o),
(299,-4,cs),
(570,-4,o),
(758,101,o),
(758,346,cs),
(758,574,o),
(599,658,o),
(308,658,cs),
(254,658,o),
(216,654,o),
(169,654,cs),
(125,654,o),
(97,655,o),
(74,658,c),
(74,620,l),
(97,616,o),
(118,607,o),
(134,595,c),
(177,589,l),
(214,598,o),
(248,602,o),
(292,602,cs),
(502,602,o),
(652,532,o),
(652,349,cs),
(652,164,o),
(510,52,o),
(294,52,cs),
(251,52,o),
(218,57,o),
(177,65,c),
(134,59,l),
(114,47,o),
(93,39,o),
(72,34,c),
(72,-4,l)
);
},
{
closed = 1;
nodes = (
(231,22,l),
(225,68,o),
(223,113,o),
(223,217,cs),
(223,424,ls),
(223,536,o),
(225,585,o),
(231,635,c),
(129,635,l),
(136,585,o),
(138,536,o),
(138,424,cs),
(138,217,ls),
(138,113,o),
(136,68,o),
(129,22,c)
);
}
);
width = 824;
},
{
anchors = (
{
name = bottom;
pos = (359,0);
},
{
name = center;
pos = (359,323);
},
{
name = top;
pos = (339,646);
}
);
layerId = m004;
shapes = (
{
closed = 1;
nodes = (
(83,-1,o),
(115,0,o),
(151,0,cs),
(196,0,o),
(230,-4,o),
(264,-4,cs),
(501,-4,o),
(664,100,o),
(664,342,cs),
(664,567,o),
(525,650,o),
(272,650,cs),
(224,650,o),
(192,646,o),
(151,646,cs),
(110,646,o),
(83,647,o),
(62,650,c),
(62,627,l),
(82,621,o),
(100,613,o),
(116,602,c),
(159,610,l),
(192,621,o),
(223,625,o),
(263,625,cs),
(450,625,o),
(584,548,o),
(584,347,cs),
(584,144,o),
(459,21,o),
(264,21,cs),
(225,21,o),
(194,26,o),
(159,36,c),
(116,44,l),
(95,32,o),
(75,25,o),
(55,19,c),
(55,-4,l)
);
},
{
closed = 1;
nodes = (
(199,22,l),
(193,67,o),
(191,112,o),
(191,214,cs),
(191,419,ls),
(191,529,o),
(193,578,o),
(199,627,c),
(113,627,l),
(119,578,o),
(121,529,o),
(121,419,cs),
(121,214,ls),
(121,112,o),
(119,67,o),
(113,22,c)
);
}
);
width = 714;
},
{
anchors = (
{
name = bottom;
pos = (404,0);
},
{
name = center;
pos = (404,323);
},
{
name = top;
pos = (374,646);
}
);
layerId = "44D59E61-3B4F-4F98-A7D7-4CA7F8682DBB";
shapes = (
{
closed = 1;
nodes = (
(79,-1,o),
(119,0,o),
(160,0,cs),
(214,0,o),
(256,-4,o),
(295,-4,cs),
(579,-4,o),
(774,100,o),
(774,342,cs),
(774,567,o),
(608,650,o),
(304,650,cs),
(248,650,o),
(210,646,o),
(160,646,cs),
(119,646,o),
(79,647,o),
(38,650,c),
(38,613,l),
(63,607,o),
(83,598,o),
(100,588,c),
(168,591,l),
(203,601,o),
(237,605,o),
(280,605,cs),
(471,605,o),
(608,534,o),
(608,346,cs),
(608,156,o),
(480,41,o),
(282,41,cs),
(240,41,o),
(207,46,o),
(168,55,c),
(109,58,l),
(90,44,o),
(69,37,o),
(38,33,c),
(38,-4,l)
);
},
{
closed = 1;
nodes = (
(256,22,l),
(249,67,o),
(247,112,o),
(247,214,cs),
(247,419,ls),
(247,529,o),
(249,578,o),
(256,627,c),
(94,627,l),
(101,578,o),
(112,529,o),
(112,419,cs),
(112,214,ls),
(112,112,o),
(111,67,o),
(104,22,c)
);
}
);
width = 813;
}
);
metricLeft = "=H@245";
metricRight = O;
unicode = 68;
},
{
glyphname = Eth;
kernRight = KO_O;
lastChange = "2025-03-15 18:41:19 +0000";
layers = (
{
anchors = (
{
name = bottom;
pos = (400,0);
},
{
name = top;
pos = (400,646);
}
);
layerId = m01;
shapes = (
{
closed = 1;
nodes = (
(90,-1,o),
(123,0,o),
(159,0,cs),
(210,0,o),
(250,-4,o),
(288,-4,cs),
(558,-4,o),
(744,100,o),
(744,342,cs),
(744,567,o),
(586,650,o),
(297,650,cs),
(243,650,o),
(206,646,o),
(159,646,cs),
(114,646,o),
(85,647,o),
(61,650,c),
(61,619,l),
(85,613,o),
(105,604,o),
(121,594,c),
(167,597,l),
(204,607,o),
(239,611,o),
(284,611,cs),
(498,611,o),
(651,538,o),
(651,346,cs),
(651,152,o),
(508,35,o),
(286,35,cs),
(242,35,o),
(208,40,o),
(167,49,c),
(121,52,l),
(102,38,o),
(82,31,o),
(62,27,c),
(62,-4,l)
);
},
{
closed = 1;
nodes = (
(210,22,l),
(203,67,o),
(201,112,o),
(201,214,cs),
(201,419,ls),
(201,529,o),
(203,578,o),
(210,627,c),
(117,627,l),
(124,578,o),
(125,529,o),
(125,419,cs),
(125,214,ls),
(125,112,o),
(124,67,o),
(117,22,c)
);
},
{
closed = 1;
nodes = (
(377,311,l),
(377,359,l),
(304,353,o),
(231,352,o),
(158,352,cs),
(62,352,l),
(62,311,l)
);
}
);
width = 799;
},
{
anchors = (
{
name = bottom;
pos = (408,0);
},
{
name = top;
pos = (408,654);
}
);
background = {
anchors = (
{
name = bottom;
pos = (402,0);
},
{
name = center;
pos = (402,327);
},
{
name = top;
pos = (382,654);
}
);
shapes = (
{
closed = 1;
nodes = (
(88,-1,o),
(122,0,o),
(158,0,cs),
(209,0,o),
(250,-4,o),
(288,-4,cs),
(559,-4,o),
(747,101,o),
(747,346,cs),
(747,574,o),
(588,658,o),
(297,658,cs),
(243,658,o),
(205,654,o),
(158,654,cs),
(114,654,o),
(86,655,o),
(63,658,c),
(63,620,l),
(86,616,o),
(107,607,o),
(123,595,c),
(166,589,l),
(203,598,o),
(237,602,o),
(281,602,cs),
(491,602,o),
(641,532,o),
(641,349,cs),
(641,164,o),
(499,52,o),
(283,52,cs),
(240,52,o),
(207,57,o),
(166,65,c),
(123,59,l),
(103,47,o),
(82,39,o),
(61,34,c),
(61,-4,l)
);
},
{
closed = 1;
nodes = (
(220,22,l),
(214,68,o),
(212,113,o),
(212,217,cs),
(212,424,ls),
(212,536,o),
(214,585,o),
(220,635,c),
(118,635,l),
(125,585,o),
(127,536,o),
(127,424,cs),
(127,217,ls),
(127,113,o),
(125,68,o),
(118,22,c)
);
}
);
};
layerId = "66C19249-B420-404C-A3E7-B74793AC6646";
shapes = (
{
closed = 1;
nodes = (
(88,-1,o),
(122,0,o),
(158,0,cs),
(209,0,o),
(250,-4,o),
(288,-4,cs),
(559,-4,o),
(747,101,o),
(747,346,cs),
(747,574,o),
(588,658,o),
(297,658,cs),
(243,658,o),
(205,654,o),
(158,654,cs),
(114,654,o),
(86,655,o),
(63,658,c),
(63,620,l),
(86,616,o),
(107,607,o),
(123,595,c),
(166,589,l),
(203,598,o),
(237,602,o),
(281,602,cs),
(491,602,o),
(641,532,o),
(641,349,cs),
(641,164,o),
(499,52,o),
(283,52,cs),
(240,52,o),
(207,57,o),
(166,65,c),
(123,59,l),
(103,47,o),
(82,39,o),
(61,34,c),
(61,-4,l)
);
},
{
closed = 1;
nodes = (
(220,22,l),
(214,68,o),
(212,113,o),
(212,217,cs),
(212,424,ls),
(212,536,o),
(214,585,o),
(220,635,c),
(118,635,l),
(125,585,o),
(127,536,o),
(127,424,cs),
(127,217,ls),
(127,113,o),
(125,68,o),
(118,22,c)
);
},
{
closed = 1;
nodes = (
(397,304,l),
(397,369,l),
(321,361,o),
(245,360,o),
(169,360,cs),
(68,360,l),
(68,304,l)
);
}
);
width = 815;
},
{
anchors = (
{
name = bottom;
pos = (358,0);
},
{
name = top;
pos = (358,646);
}
);
background = {
anchors = (
{
name = bottom;
pos = (361,0);
},
{
name = center;
pos = (361,323);
},
{
name = top;
pos = (341,646);
}
);
shapes = (
{
closed = 1;
nodes = (
(85,-1,o),
(117,0,o),
(153,0,cs),
(198,0,o),
(232,-4,o),
(266,-4,cs),
(503,-4,o),
(666,100,o),
(666,342,cs),
(666,567,o),
(527,650,o),
(274,650,cs),
(226,650,o),
(194,646,o),
(153,646,cs),
(112,646,o),
(85,647,o),
(64,650,c),
(64,627,l),
(84,621,o),
(102,613,o),
(118,602,c),
(161,610,l),
(194,621,o),
(225,625,o),
(265,625,cs),
(452,625,o),
(586,548,o),
(586,347,cs),
(586,144,o),
(461,21,o),
(266,21,cs),
(227,21,o),
(196,26,o),
(161,36,c),
(118,44,l),
(97,32,o),
(77,25,o),
(57,19,c),
(57,-4,l)
);
},
{
closed = 1;
nodes = (
(201,22,l),
(195,67,o),
(193,112,o),
(193,214,cs),
(193,419,ls),
(193,529,o),
(195,578,o),
(201,627,c),
(115,627,l),
(121,578,o),
(123,529,o),
(123,419,cs),
(123,214,ls),
(123,112,o),
(121,67,o),
(115,22,c)
);
}
);
};
layerId = m004;
shapes = (
{
closed = 1;
nodes = (
(85,-1,o),
(117,0,o),
(153,0,cs),
(198,0,o),
(232,-4,o),
(266,-4,cs),
(503,-4,o),
(666,100,o),
(666,342,cs),
(666,567,o),
(527,650,o),
(274,650,cs),
(226,650,o),
(194,646,o),
(153,646,cs),
(112,646,o),
(85,647,o),
(64,650,c),
(64,627,l),
(84,621,o),
(102,613,o),
(118,602,c),
(161,610,l),
(194,621,o),
(225,625,o),
(265,625,cs),
(452,625,o),
(586,548,o),
(586,347,cs),
(586,144,o),
(461,21,o),
(266,21,cs),
(227,21,o),
(196,26,o),
(161,36,c),
(118,44,l),
(97,32,o),
(77,25,o),
(57,19,c),
(57,-4,l)
);
},
{
closed = 1;
nodes = (
(201,22,l),
(195,67,o),
(193,112,o),
(193,214,cs),
(193,419,ls),
(193,529,o),
(195,578,o),
(201,627,c),
(115,627,l),
(121,578,o),
(123,529,o),
(123,419,cs),
(123,214,ls),
(123,112,o),
(121,67,o),
(115,22,c)
);
},
{
closed = 1;
nodes = (
(358,318,l),
(358,350,l),
(291,346,o),
(224,345,o),
(157,345,cs),
(56,345,l),
(56,318,l)
);
}
);
width = 715;
},
{
anchors = (
{
name = bottom;
pos = (402,0);
},
{
name = top;
pos = (402,646);
}
);
background = {
shapes = (
{
closed = 1;
nodes = (
(87,-1,o),
(127,0,o),
(170,0,cs),
(223,0,o),
(264,-4,o),
(303,-4,cs),
(582,-4,o),
(774,100,o),
(774,342,cs),
(774,567,o),
(611,650,o),
(312,650,cs),
(257,650,o),
(219,646,o),
(170,646,cs),
(96,646,o),
(67,647,o),
(43,650,c),
(43,613,l),
(68,607,o),
(88,598,o),
(105,588,c),
(178,591,l),
(213,601,o),
(247,605,o),
(290,605,cs),
(495,605,o),
(642,534,o),
(642,346,cs),
(642,156,o),
(505,41,o),
(292,41,cs),
(250,41,o),
(217,46,o),
(178,55,c),
(114,58,l),
(95,44,o),
(74,37,o),
(54,33,c),
(54,-4,l)
);
},
{
closed = 1;
nodes = (
(240,22,l),
(233,67,o),
(231,112,o),
(231,214,cs),
(231,419,ls),
(231,529,o),
(233,578,o),
(240,627,c),
(99,627,l),
(106,578,o),
(117,529,o),
(117,419,cs),
(117,214,ls),
(117,112,o),
(116,67,o),
(109,22,c)
);
}
);
};
layerId = "44D59E61-3B4F-4F98-A7D7-4CA7F8682DBB";
shapes = (
{
closed = 1;
nodes = (
(82,-1,o),
(122,0,o),
(163,0,cs),
(217,0,o),
(259,-4,o),
(298,-4,cs),
(582,-4,o),
(777,100,o),
(777,342,cs),
(777,567,o),
(611,650,o),
(307,650,cs),
(251,650,o),
(213,646,o),
(163,646,cs),
(122,646,o),
(82,647,o),
(41,650,c),
(41,613,l),
(66,607,o),
(86,598,o),
(103,588,c),
(171,591,l),
(206,601,o),
(240,605,o),
(283,605,cs),
(474,605,o),
(611,534,o),
(611,346,cs),
(611,156,o),
(483,41,o),
(285,41,cs),
(243,41,o),
(210,46,o),
(171,55,c),
(112,58,l),
(93,44,o),
(72,37,o),
(41,33,c),
(41,-4,l)
);
},
{
closed = 1;
nodes = (
(259,22,l),
(252,67,o),
(250,112,o),
(250,214,cs),
(250,419,ls),
(250,529,o),
(252,578,o),
(259,627,c),
(97,627,l),
(104,578,o),
(115,529,o),
(115,419,cs),
(115,214,ls),
(115,112,o),
(114,67,o),
(107,22,c)
);
},
{
closed = 1;
nodes = (
(406,300,l),
(406,360,l),
(333,354,o),
(231,353,o),
(158,353,cs),
(41,353,l),
(41,300,l)
);
}
);
width = 813;
}
);
unicode = 208;
},
{
glyphname = E;
kernLeft = KO_H;
kernRight = KO_E;
lastChange = "2025-03-14 17:56:29 +0000";
layers = (
{
anchors = (
{
name = bottom;
pos = (285,0);
},
{
name = ogonek;
pos = (483,10);
},
{
name = top;
pos = (309,646);
},
{
name = topleft;
pos = (7,646);
}
);
layerId = m01;
shapes = (
{
closed = 1;
nodes = (
(518,499,l),
(518,652,l),
(411,648,o),
(310,646,o),
(167,646,cs),
(134,646,o),
(101,647,o),
(68,650,c),
(68,619,l),
(90,614,o),
(110,605,o),
(128,594,c),
(190,606,l),
(400,606,ls),
(437,606,o),
(459,590,o),
(470,558,cs),
(490,499,l)
);
},
{
closed = 1;
nodes = (
(542,122,l),
(514,122,l),
(478,81,ls),
(451,51,o),
(420,41,o),
(380,41,cs),
(328,41,o),
(266,41,o),
(214,46,c),
(128,52,l),
(105,40,o),
(83,32,o),
(60,27,c),
(60,-4,l),
(86,-1,o),
(118,0,o),
(167,0,cs),
(333,0,o),
(391,-2,o),
(489,-11,c)
);
},
{
closed = 1;
nodes = (
(217,22,l),
(211,65,o),
(209,111,o),
(209,214,cs),
(209,419,ls),
(209,530,o),
(211,579,o),
(217,627,c),
(125,627,l),
(131,579,o),
(133,530,o),
(133,419,cs),
(133,214,ls),
(133,111,o),
(131,65,o),
(125,22,c)
);
},
{
closed = 1;
nodes = (
(465,247,l),
(460,276,o),
(459,307,o),
(459,336,cs),
(459,365,o),
(460,396,o),
(465,425,c),
(437,425,l),
(433,403,o),
(421,362,o),
(415,362,cs),
(377,360,o),
(340,359,o),
(302,359,cs),
(192,359,l),
(192,318,l),
(415,318,ls),
(421,318,o),
(432,270,o),
(437,247,c)
);
}
);
width = 590;
},
{
anchors = (
{
name = bottom;
pos = (304,0);
},
{
name = ogonek;
pos = (490,10);
},
{
name = top;
pos = (323,654);
},
{
name = topleft;
pos = (12,654);
}
);
layerId = "66C19249-B420-404C-A3E7-B74793AC6646";
shapes = (
{
closed = 1;
nodes = (
(523,505,l),
(523,660,l),
(416,656,o),
(315,654,o),
(172,654,cs),
(139,654,o),
(107,655,o),
(74,658,c),
(74,620,l),
(96,614,o),
(116,606,o),
(134,595,c),
(195,598,l),
(399,598,ls),
(436,598,o),
(463,582,o),
(471,558,cs),
(489,505,l)
);
},
{
closed = 1;
nodes = (
(547,123,l),
(513,123,l),
(481,86,ls),
(461,63,o),
(426,56,o),
(383,56,cs),
(333,56,o),
(277,56,o),
(227,64,c),
(134,59,l),
(113,47,o),
(90,38,o),
(66,34,c),
(66,-4,l),
(101,-1,o),
(137,0,o),
(172,0,cs),
(338,0,o),
(396,-2,o),
(494,-11,c)
);
},
{
closed = 1;
nodes = (
(231,22,l),
(225,66,o),
(223,112,o),
(223,217,cs),
(223,424,ls),
(223,537,o),
(225,586,o),
(231,635,c),
(130,635,l),
(136,586,o),
(138,537,o),
(138,424,cs),
(138,217,ls),
(138,112,o),
(136,66,o),
(130,22,c)
);
},
{
closed = 1;
nodes = (
(470,250,l),
(465,280,o),
(464,310,o),
(464,340,cs),
(464,370,o),
(465,400,o),
(470,430,c),
(436,430,l),
(432,411,o),
(424,374,o),
(418,374,cs),
(381,371,o),
(344,370,o),
(307,370,cs),
(192,370,l),
(192,314,l),
(418,314,ls),
(424,314,o),
(432,272,o),
(436,250,c)
);
}
);
width = 600;
},
{
anchors = (
{
name = bottom;
pos = (250,0);
},
{
name = ogonek;
pos = (419,10);
},
{
name = top;
pos = (269,646);
},
{
name = topleft;
pos = (12,646);
}
);
layerId = m004;
shapes = (
{
closed = 1;
nodes = (
(454,499,l),
(454,652,l),
(347,648,o),
(246,646,o),
(152,646,cs),
(122,646,o),
(92,647,o),
(62,650,c),
(62,627,l),
(82,620,o),
(100,612,o),
(116,602,c),
(179,620,l),
(344,620,ls),
(381,620,o),
(397,609,o),
(405,585,cs),
(434,499,l)
);
},
{
closed = 1;
nodes = (
(478,122,l),
(458,122,l),
(402,57,ls),
(385,37,o),
(363,24,o),
(324,24,cs),
(285,24,o),
(236,24,o),
(197,41,c),
(116,44,l),
(96,32,o),
(75,24,o),
(55,19,c),
(55,-4,l),
(87,-1,o),
(120,0,o),
(152,0,cs),
(269,0,o),
(327,-2,o),
(425,-11,c)
);
},
{
closed = 1;
nodes = (
(200,22,l),
(193,65,o),
(191,111,o),
(191,214,cs),
(191,419,ls),
(191,530,o),
(193,579,o),
(200,627,c),
(113,627,l),
(119,579,o),
(121,530,o),
(121,419,cs),
(121,214,ls),
(121,111,o),
(119,65,o),
(113,22,c)
);
},
{
closed = 1;
nodes = (
(401,247,l),
(396,276,o),
(395,307,o),
(395,336,cs),
(395,365,o),
(396,396,o),
(401,425,c),
(381,425,l),
(376,401,o),
(362,354,o),
(356,354,cs),
(325,352,o),
(294,351,o),
(263,351,cs),
(171,351,l),
(171,324,l),
(356,324,ls),
(362,324,o),
(375,273,o),
(381,247,c)
);
}
);
width = 521;
},
{
anchors = (
{
name = bottom;
pos = (293,0);
},
{
name = ogonek;
pos = (491,10);
},
{
name = top;
pos = (317,646);
},
{
name = topleft;
pos = (15,646);
}
);
layerId = "44D59E61-3B4F-4F98-A7D7-4CA7F8682DBB";
shapes = (
{
closed = 1;
nodes = (
(526,499,l),
(526,652,l),
(419,648,o),
(308,646,o),
(165,646,cs),
(113,646,o),
(80,647,o),
(47,650,c),
(47,613,l),
(69,608,o),
(89,599,o),
(107,588,c),
(198,600,l),
(402,600,ls),
(439,600,o),
(462,586,o),
(472,558,cs),
(492,499,l)
);
},
{
closed = 1;
nodes = (
(550,122,l),
(516,122,l),
(480,81,ls),
(456,53,o),
(422,47,o),
(382,47,cs),
(330,47,o),
(274,47,o),
(222,52,c),
(109,58,l),
(85,46,o),
(63,38,o),
(39,33,c),
(39,-4,l),
(65,-1,o),
(97,0,o),
(165,0,cs),
(331,0,o),
(399,-2,o),
(497,-11,c)
);
},
{
closed = 1;
nodes = (
(247,22,l),
(240,67,o),
(238,112,o),
(238,214,cs),
(238,419,ls),
(238,529,o),
(240,578,o),
(247,627,c),
(100,627,l),
(106,578,o),
(112,529,o),
(112,419,cs),
(112,214,ls),
(112,112,o),
(111,67,o),
(104,22,c)
);
},
{
closed = 1;
nodes = (
(473,247,l),
(468,276,o),
(467,307,o),
(467,336,cs),
(467,365,o),
(468,396,o),
(473,425,c),
(439,425,l),
(435,404,o),
(423,365,o),
(417,365,cs),
(379,363,o),
(342,362,o),
(304,362,cs),
(200,362,l),
(200,315,l),
(417,315,ls),
(423,315,o),
(434,269,o),
(439,247,c)
);
}
);
width = 581;
}
);
metricLeft = "=H@214";
metricRight = "=H*0.8";
unicode = 69;
userData = {
KernOnName = E;
};
},
{
glyphname = Eogonek;
kernLeft = KO_H;
kernRight = KO_E;
lastChange = "2025-03-14 17:56:29 +0000";
layers = (
{
anchors = (
{
name = top;
pos = (295,646);
}
);
layerId = m01;
shapes = (
{
closed = 1;
nodes = (
(217,22,l),
(211,65,o),
(209,113,o),
(209,214,cs),
(209,419,ls),
(209,528,o),
(211,577,o),
(217,627,c),
(125,627,l),
(131,577,o),
(133,528,o),
(133,419,cs),
(133,214,ls),
(133,113,o),
(131,65,o),
(125,22,c)
);
},
{
closed = 1;
nodes = (
(425,-253,o),
(453,-238,o),
(479,-205,c),
(479,-178,l),
(461,-196,o),
(446,-203,o),
(428,-203,cs),
(390,-203,o),
(367,-170,o),
(367,-118,cs),
(367,-51,o),
(407,-10,o),
(474,-10,cs),
(479,-10,o),
(484,-10,o),
(489,-11,c),
(542,122,l),
(506,122,l),
(470,81,ls),
(445,53,o),
(413,41,o),
(364,41,cs),
(307,41,o),
(250,42,o),
(192,49,c),
(128,52,l),
(104,40,o),
(84,32,o),
(60,27,c),
(60,-4,l),
(96,-1,o),
(131,0,o),
(167,0,cs),
(310,0,o),
(363,-1,o),
(420,-6,c),
(430,12,l),
(350,-8,o),
(295,-73,o),
(295,-146,cs),
(295,-210,o),
(333,-253,o),
(390,-253,cs)
);
},
{
closed = 1;
nodes = (
(465,247,l),
(460,276,o),
(459,307,o),
(459,336,cs),
(459,365,o),
(460,396,o),
(465,425,c),
(441,425,l),
(437,403,o),
(425,362,o),
(419,362,cs),
(381,360,o),
(344,359,o),
(306,359,cs),
(192,359,l),
(192,318,l),
(419,318,ls),
(425,318,o),
(436,270,o),
(441,247,c)
);
},
{
closed = 1;
nodes = (
(518,499,l),
(518,652,l),
(411,648,o),
(310,646,o),
(167,646,cs),
(134,646,o),
(101,647,o),
(68,650,c),
(68,619,l),
(88,614,o),
(112,605,o),
(128,594,c),
(190,606,l),
(393,606,ls),
(430,606,o),
(452,590,o),
(463,558,cs),
(483,499,l)
);
}
);
width = 590;
},
{
anchors = (
{
name = top;
pos = (300,654);
}
);
layerId = "66C19249-B420-404C-A3E7-B74793AC6646";
shapes = (
{
closed = 1;
nodes = (
(231,22,l),
(225,68,o),
(223,114,o),
(223,217,cs),
(223,424,ls),
(223,534,o),
(225,584,o),
(231,635,c),
(130,635,l),
(136,584,o),
(138,534,o),
(138,424,cs),
(138,217,ls),
(138,114,o),
(136,68,o),
(130,22,c)
);
},
{
closed = 1;
nodes = (
(427,-253,o),
(455,-238,o),
(482,-205,c),
(482,-169,l),
(464,-186,o),
(450,-193,o),
(433,-193,cs),
(396,-193,o),
(374,-162,o),
(374,-112,cs),
(374,-48,o),
(413,-9,o),
(477,-9,cs),
(483,-9,o),
(489,-10,o),
(494,-11,c),
(547,123,l),
(507,123,l),
(475,86,ls),
(458,66,o),
(423,57,o),
(365,57,cs),
(309,57,o),
(253,57,o),
(197,65,c),
(134,59,l),
(112,47,o),
(93,39,o),
(66,34,c),
(66,-4,l),
(101,-1,o),
(137,0,o),
(172,0,cs),
(289,0,o),
(350,-1,o),
(408,-4,c),
(414,7,l),
(342,-18,o),
(294,-79,o),
(294,-146,cs),
(294,-209,o),
(333,-253,o),
(391,-253,cs)
);
},
{
closed = 1;
nodes = (
(470,250,l),
(465,280,o),
(464,310,o),
(464,340,cs),
(464,370,o),
(465,400,o),
(470,430,c),
(436,430,l),
(432,411,o),
(424,374,o),
(418,374,cs),
(381,371,o),
(344,370,o),
(307,370,cs),
(192,370,l),
(192,314,l),
(418,314,ls),
(424,314,o),
(432,272,o),
(436,250,c)
);
},
{
closed = 1;
nodes = (
(523,505,l),
(523,660,l),
(416,656,o),
(315,654,o),
(172,654,cs),
(139,654,o),
(107,655,o),
(74,658,c),
(74,620,l),
(97,614,o),
(115,606,o),
(134,595,c),
(195,598,l),
(394,598,ls),
(431,598,o),
(458,582,o),
(466,558,cs),
(484,505,l)
);
}
);
width = 600;
},
{
anchors = (
{
name = top;
pos = (261,646);
}
);
layerId = m004;
shapes = (
{
closed = 1;
nodes = (
(200,22,l),
(193,65,o),
(191,111,o),
(191,214,cs),
(191,419,ls),
(191,530,o),
(193,579,o),
(200,627,c),
(113,627,l),
(119,579,o),
(121,530,o),
(121,419,cs),
(121,214,ls),
(121,111,o),
(119,65,o),
(113,22,c)
);
},
{
closed = 1;
nodes = (
(354,-253,o),
(382,-238,o),
(408,-205,c),
(408,-183,l),
(391,-201,o),
(375,-209,o),
(356,-209,cs),
(318,-209,o),
(294,-175,o),
(294,-121,cs),
(294,-52,o),
(335,-9,o),
(403,-9,cs),
(410,-9,o),
(418,-10,o),
(425,-11,c),
(478,122,l),
(447,122,l),
(391,57,ls),
(372,35,o),
(346,25,o),
(305,25,cs),
(262,25,o),
(220,26,o),
(177,35,c),
(116,44,l),
(96,32,o),
(76,24,o),
(55,19,c),
(55,-4,l),
(87,-1,o),
(120,0,o),
(152,0,cs),
(235,0,o),
(285,-1,o),
(338,-4,c),
(339,6,l),
(271,-19,o),
(226,-80,o),
(226,-146,cs),
(226,-209,o),
(264,-253,o),
(320,-253,cs)
);
},
{
closed = 1;
nodes = (
(401,247,l),
(396,276,o),
(395,307,o),
(395,336,cs),
(395,365,o),
(396,396,o),
(401,425,c),
(381,425,l),
(376,401,o),
(362,354,o),
(356,354,cs),
(325,352,o),
(294,351,o),
(263,351,cs),
(171,351,l),
(171,324,l),
(356,324,ls),
(362,324,o),
(375,273,o),
(381,247,c)
);
},
{
closed = 1;
nodes = (
(454,499,l),
(454,652,l),
(347,648,o),
(246,646,o),
(152,646,cs),
(122,646,o),
(92,647,o),
(62,650,c),
(62,627,l),
(82,621,o),
(98,613,o),
(116,602,c),
(179,620,l),
(333,620,ls),
(370,620,o),
(386,609,o),
(394,585,cs),
(423,499,l)
);
}
);
width = 521;
},
{
anchors = (
{
name = top;
pos = (302,646);
}
);
layerId = "44D59E61-3B4F-4F98-A7D7-4CA7F8682DBB";
shapes = (
{
closed = 1;
nodes = (
(247,22,l),
(240,67,o),
(238,112,o),
(238,214,cs),
(238,419,ls),
(238,529,o),
(240,578,o),
(247,627,c),
(100,627,l),
(106,578,o),
(112,529,o),
(112,419,cs),
(112,214,ls),
(112,112,o),
(111,67,o),
(104,22,c)
);
},
{
closed = 1;
nodes = (
(430,-253,o),
(464,-238,o),
(496,-205,c),
(496,-178,l),
(479,-195,o),
(462,-203,o),
(444,-203,cs),
(412,-203,o),
(392,-170,o),
(392,-118,cs),
(392,-51,o),
(426,-10,o),
(481,-10,c),
(486,-10,o),
(493,-10,o),
(497,-11,c),
(550,122,l),
(516,122,l),
(480,81,ls),
(456,53,o),
(422,47,o),
(382,47,cs),
(330,47,o),
(274,49,o),
(222,52,cs),
(109,58,l),
(85,46,o),
(63,38,o),
(39,33,c),
(39,-4,l),
(65,-1,o),
(97,0,o),
(175,0,cs),
(282,0,o),
(345,-1,o),
(402,-4,c),
(408,5,l),
(334,-19,o),
(284,-72,o),
(284,-140,cs),
(284,-202,o),
(326,-253,o),
(388,-253,cs)
);
},
{
closed = 1;
nodes = (
(473,247,l),
(468,276,o),
(467,307,o),
(467,336,cs),
(467,365,o),
(468,396,o),
(473,425,c),
(439,425,l),
(435,404,o),
(423,365,o),
(417,365,cs),
(379,363,o),
(342,362,o),
(304,362,cs),
(200,362,l),
(200,315,l),
(417,315,ls),
(423,315,o),
(434,269,o),
(439,247,c)
);
},
{
closed = 1;
nodes = (
(526,499,l),
(526,652,l),
(419,648,o),
(318,646,o),
(175,646,cs),
(113,646,o),
(80,647,o),
(47,650,c),
(47,613,l),
(69,608,o),
(89,599,o),
(107,588,c),
(198,600,l),
(402,600,ls),
(439,600,o),
(462,586,o),
(472,558,cs),
(492,499,l)
);
}
);
width = 581;
}
);
metricLeft = "=H@214";
metricRight = "=H*0.8";
unicode = 280;
},
{
glyphname = F;
kernLeft = KO_H;
kernRight = KO_F;
lastChange = "2025-03-14 17:56:29 +0000";
layers = (
{
anchors = (
{
name = bottom;
pos = (266,0);
},
{
name = top;
pos = (266,646);
}
);
layerId = m01;
shapes = (
{
closed = 1;
nodes = (
(98,-1,o),
(134,0,o),
(171,0,cs),
(208,0,o),
(244,-1,o),
(281,-6,c),
(281,25,l),
(259,30,o),
(214,45,o),
(213,53,cs),
(210,84,o),
(209,130,o),
(209,214,cs),
(209,419,ls),
(209,530,o),
(211,579,o),
(217,627,c),
(125,627,l),
(131,579,o),
(133,530,o),
(133,419,cs),
(133,214,ls),
(133,130,o),
(132,83,o),
(129,53,cs),
(128,45,o),
(83,31,o),
(61,25,c),
(61,-6,l)
);
},
{
closed = 1;
nodes = (
(503,499,l),
(503,652,l),
(396,648,o),
(314,646,o),
(171,646,cs),
(137,646,o),
(102,647,o),
(68,650,c),
(68,619,l),
(90,613,o),
(110,605,o),
(128,594,c),
(190,606,l),
(385,606,ls),
(422,606,o),
(444,590,o),
(455,558,cs),
(475,499,l)
);
},
{
closed = 1;
nodes = (
(445,252,l),
(440,283,o),
(439,317,o),
(439,348,cs),
(439,375,o),
(440,403,o),
(445,430,c),
(417,430,l),
(413,410,o),
(401,374,o),
(395,374,cs),
(357,372,o),
(320,371,o),
(282,371,cs),
(182,371,l),
(182,330,l),
(395,330,ls),
(401,330,o),
(412,277,o),
(417,252,c)
);
}
);
width = 533;
},
{
anchors = (
{
name = bottom;
pos = (270,0);
},
{
name = top;
pos = (270,654);
}
);
layerId = "66C19249-B420-404C-A3E7-B74793AC6646";
shapes = (
{
closed = 1;
nodes = (
(104,-1,o),
(142,0,o),
(181,0,cs),
(219,0,o),
(257,-1,o),
(295,-6,c),
(295,32,l),
(272,37,o),
(228,52,o),
(227,60,cs),
(224,101,o),
(223,145,o),
(223,217,cs),
(223,424,ls),
(223,537,o),
(225,586,o),
(232,635,c),
(130,635,l),
(136,586,o),
(138,537,o),
(138,424,cs),
(138,217,ls),
(138,145,o),
(137,101,o),
(134,60,cs),
(134,52,o),
(89,38,o),
(66,32,c),
(66,-6,l)
);
},
{
closed = 1;
nodes = (
(512,505,l),
(512,660,l),
(405,656,o),
(324,654,o),
(181,654,cs),
(145,654,o),
(110,655,o),
(74,658,c),
(74,620,l),
(95,615,o),
(115,607,o),
(134,595,c),
(199,597,l),
(388,597,ls),
(426,597,o),
(450,589,o),
(458,565,cs),
(478,505,l)
);
},
{
closed = 1;
nodes = (
(446,263,l),
(441,293,o),
(440,323,o),
(440,353,cs),
(440,383,o),
(441,413,o),
(446,443,c),
(412,443,l),
(408,424,o),
(400,387,o),
(394,387,cs),
(357,384,o),
(320,383,o),
(283,383,cs),
(188,383,l),
(188,327,l),
(394,327,ls),
(400,327,o),
(408,285,o),
(412,263,c)
);
}
);
width = 545;
},
{
anchors = (
{
name = bottom;
pos = (249,0);
},
{
name = top;
pos = (249,646);
}
);
layerId = m004;
shapes = (
{
closed = 1;
nodes = (
(88,-1,o),
(122,0,o),
(156,0,cs),
(190,0,o),
(224,-1,o),
(258,-6,c),
(258,17,l),
(237,22,o),
(198,37,o),
(197,45,cs),
(192,80,o),
(191,127,o),
(191,214,cs),
(191,419,ls),
(191,530,o),
(193,579,o),
(200,627,c),
(113,627,l),
(119,579,o),
(121,530,o),
(121,419,cs),
(121,214,ls),
(121,126,o),
(120,80,o),
(115,45,cs),
(114,37,o),
(75,23,o),
(54,17,c),
(54,-6,l)
);
},
{
closed = 1;
nodes = (
(465,499,l),
(465,652,l),
(358,648,o),
(251,646,o),
(156,646,cs),
(125,646,o),
(93,647,o),
(62,650,c),
(62,627,l),
(82,622,o),
(100,614,o),
(116,602,c),
(179,621,l),
(355,621,ls),
(392,621,o),
(408,609,o),
(416,585,cs),
(445,499,l)
);
},
{
closed = 1;
nodes = (
(412,260,l),
(407,289,o),
(406,320,o),
(406,349,cs),
(406,378,o),
(407,409,o),
(412,438,c),
(392,438,l),
(387,414,o),
(373,367,o),
(367,367,cs),
(336,365,o),
(305,364,o),
(274,364,cs),
(173,364,l),
(173,337,l),
(367,337,ls),
(373,337,o),
(386,286,o),
(392,260,c)
);
}
);
width = 492;
},
{
anchors = (
{
name = bottom;
pos = (265,0);
},
{
name = top;
pos = (265,646);
}
);
layerId = "44D59E61-3B4F-4F98-A7D7-4CA7F8682DBB";
shapes = (
{
closed = 1;
nodes = (
(85,-1,o),
(130,0,o),
(175,0,cs),
(220,0,o),
(265,-1,o),
(310,-6,c),
(310,31,l),
(288,36,o),
(243,51,o),
(242,59,cs),
(239,90,o),
(238,136,o),
(238,220,cs),
(238,419,ls),
(238,530,o),
(240,579,o),
(246,627,c),
(104,627,l),
(110,579,o),
(112,530,o),
(112,419,cs),
(112,220,ls),
(112,136,o),
(111,89,o),
(108,59,cs),
(107,51,o),
(62,37,o),
(40,31,c),
(40,-6,l)
);
},
{
closed = 1;
nodes = (
(502,499,l),
(502,652,l),
(395,648,o),
(293,646,o),
(150,646,cs),
(116,646,o),
(81,647,o),
(47,650,c),
(47,613,l),
(69,607,o),
(89,599,o),
(107,588,c),
(169,600,l),
(380,600,ls),
(417,600,o),
(439,584,o),
(450,552,cs),
(468,499,l)
);
},
{
closed = 1;
nodes = (
(444,252,l),
(439,283,o),
(438,317,o),
(438,348,cs),
(438,375,o),
(439,403,o),
(444,430,c),
(416,430,l),
(412,411,o),
(400,377,o),
(394,377,cs),
(356,375,o),
(319,374,o),
(281,374,cs),
(181,374,l),
(181,327,l),
(394,327,ls),
(400,327,o),
(411,276,o),
(416,252,c)
);
}
);
width = 522;
}
);
metricLeft = "=H@245";
metricRight = "=H/2";
unicode = 70;
userData = {
KernOnName = F;
};
},
{
glyphname = G;
kernLeft = KO_O;
kernRight = KO_G;
lastChange = "2025-03-15 12:25:13 +0000";
layers = (
{
anchors = (
{
name = bottom;
pos = (435,0);
},
{
name = top;
pos = (406,646);
}
);
layerId = m01;
shapes = (
{
closed = 1;
nodes = (
(524,-10,o),
(560,9,o),
(663,6,c),
(663,37,l),
(636,43,o),
(606,54,o),
(575,69,c),
(543,46,o),
(495,29,o),
(440,29,cs),
(300,29,o),
(147,139,o),
(147,327,cs),
(147,480,o),
(258,621,o),
(422,621,cs),
(480,621,o),
(534,606,o),
(577,578,c),
(590,543,o),
(595,509,o),
(595,474,c),
(633,474,l),
(636,501,o),
(637,527,o),
(637,554,cs),
(637,587,o),
(631,616,o),
(622,647,c),
(544,642,o),
(494,660,o),
(424,660,cs),
(235,660,o),
(55,522,o),
(55,329,cs),
(55,137,o),
(225,-10,o),
(442,-10,cs)
);
},
{
closed = 1;
nodes = (
(643,22,l),
(636,76,o),
(635,131,o),
(635,178,cs),
(635,186,o),
(673,199,o),
(693,204,c),
(693,235,l),
(663,232,o),
(632,231,o),
(602,231,cs),
(571,231,o),
(540,232,o),
(510,235,c),
(510,204,l),
(527,198,o),
(559,186,o),
(559,178,cs),
(559,131,o),
(558,76,o),
(551,22,c)
);
}
);
width = 741;
},
{
anchors = (
{
name = bottom;
pos = (438,0);
},
{
name = top;
pos = (416,654);
}
);
layerId = "66C19249-B420-404C-A3E7-B74793AC6646";
shapes = (
{
closed = 1;
nodes = (
(538,-10,o),
(574,9,o),
(678,6,c),
(678,44,l),
(649,52,o),
(622,64,o),
(590,84,c),
(558,62,o),
(512,46,o),
(458,46,cs),
(322,46,o),
(172,151,o),
(172,331,cs),
(172,477,o),
(281,612,o),
(440,612,cs),
(498,612,o),
(549,598,o),
(591,571,c),
(604,536,o),
(609,515,o),
(609,480,c),
(648,480,l),
(650,507,o),
(652,534,o),
(652,561,cs),
(652,594,o),
(646,624,o),
(637,655,c),
(558,650,o),
(508,668,o),
(437,668,cs),
(247,668,o),
(66,528,o),
(66,333,cs),
(66,139,o),
(237,-10,o),
(456,-10,cs)
);
},
{
closed = 1;
nodes = (
(662,22,l),
(656,71,o),
(655,118,o),
(654,174,cs),
(654,182,o),
(690,195,o),
(708,200,c),
(708,238,l),
(676,235,o),
(644,234,o),
(612,234,cs),
(579,234,o),
(547,235,o),
(515,238,c),
(515,200,l),
(533,194,o),
(569,182,o),
(569,174,cs),
(568,118,o),
(567,71,o),
(561,22,c)
);
}
);
width = 761;
},
{
anchors = (
{
name = bottom;
pos = (379,0);
},
{
name = top;
pos = (365,646);
}
);
layerId = m004;
shapes = (
{
closed = 1;
nodes = (
(467,-10,o),
(500,9,o),
(591,6,c),
(591,29,l),
(564,32,o),
(534,37,o),
(503,48,c),
(476,29,o),
(433,15,o),
(386,15,cs),
(264,15,o),
(130,130,o),
(130,327,cs),
(130,487,o),
(227,635,o),
(371,635,cs),
(421,635,o),
(468,619,o),
(505,590,c),
(520,555,o),
(526,509,o),
(526,474,c),
(561,474,l),
(564,501,o),
(565,527,o),
(565,554,cs),
(565,587,o),
(563,616,o),
(554,647,c),
(485,642,o),
(441,660,o),
(379,660,cs),
(210,660,o),
(50,522,o),
(50,329,cs),
(50,137,o),
(201,-10,o),
(394,-10,cs)
);
},
{
closed = 1;
nodes = (
(567,22,l),
(560,78,o),
(559,133,o),
(559,186,cs),
(559,194,o),
(600,206,o),
(621,212,c),
(621,235,l),
(589,232,o),
(557,231,o),
(525,231,cs),
(493,231,o),
(461,232,o),
(429,235,c),
(429,212,l),
(449,206,o),
(489,194,o),
(489,186,cs),
(489,133,o),
(488,78,o),
(481,22,c)
);
}
);
width = 664;
},
{
anchors = (
{
name = bottom;
pos = (453,0);
},
{
name = top;
pos = (424,646);
}
);
layerId = "44D59E61-3B4F-4F98-A7D7-4CA7F8682DBB";
shapes = (
{
closed = 1;
nodes = (
(546,-10,o),
(594,9,o),
(701,6,c),
(701,43,l),
(674,49,o),
(644,60,o),
(613,75,c),
(584,52,o),
(531,35,o),
(478,35,cs),
(344,35,o),
(205,143,o),
(205,327,cs),
(205,477,o),
(306,615,o),
(455,615,cs),
(505,615,o),
(572,600,o),
(609,572,c),
(622,539,o),
(627,507,o),
(627,474,c),
(671,474,l),
(674,501,o),
(675,527,o),
(675,554,cs),
(675,587,o),
(669,616,o),
(660,647,c),
(576,640,o),
(527,660,o),
(439,660,cs),
(219,660,o),
(39,522,o),
(39,329,cs),
(39,137,o),
(219,-10,o),
(454,-10,cs)
);
},
{
closed = 1;
nodes = (
(681,22,l),
(674,76,o),
(673,125,o),
(673,172,cs),
(673,180,o),
(711,193,o),
(731,198,c),
(731,235,l),
(692,232,o),
(653,231,o),
(615,231,cs),
(576,231,o),
(537,232,o),
(498,235,c),
(498,198,l),
(515,192,o),
(547,180,o),
(547,172,cs),
(547,125,o),
(546,76,o),
(539,22,c)
);
}
);
width = 762;
}
);
metricLeft = O;
metricRight = "=H*0.8";
unicode = 71;
},
{
glyphname = H;
kernLeft = KO_H;
kernRight = KO_H;
lastChange = "2025-03-14 17:54:18 +0000";
layers = (
{
anchors = (
{
name = bottom;
pos = (403,0);
},
{
name = center;
pos = (403,323);
},
{
name = top;
pos = (403,646);
},
{
name = topleft;
pos = (7,646);
}
);
guides = (
{
pos = (27,593);
},
{
pos = (772,53);
},
{
angle = 90;
pos = (60,10);
},
{
angle = 270;
pos = (282,10);
},
{
angle = 90;
pos = (518,10);
},
{
angle = 270;
pos = (740,10);
}
);
layerId = m01;
shapes = (
{
closed = 1;
nodes = (
(627,298,l),
(627,339,l),
(175,339,l),
(175,298,l)
);
},
{
closed = 1;
nodes = (
(97,-1,o),
(134,0,o),
(171,0,cs),
(208,0,o),
(245,-1,o),
(282,-6,c),
(282,25,l),
(259,31,o),
(215,45,o),
(214,53,cs),
(209,107,o),
(209,160,o),
(209,214,cs),
(209,419,ls),
(209,480,o),
(209,540,o),
(214,593,cs),
(214,601,o),
(259,614,o),
(282,619,c),
(282,650,l),
(245,647,o),
(208,646,o),
(171,646,cs),
(134,646,o),
(97,647,o),
(60,650,c),
(60,619,l),
(83,613,o),
(128,601,o),
(128,593,cs),
(133,540,o),
(133,480,o),
(133,419,cs),
(133,214,ls),
(133,160,o),
(133,107,o),
(128,53,cs),
(127,46,o),
(84,32,o),
(60,25,c),
(60,-6,l)
);
},
{
closed = 1;
nodes = (
(555,-1,o),
(592,0,o),
(629,0,cs),
(666,0,o),
(703,-1,o),
(740,-6,c),
(740,25,l),
(717,31,o),
(673,45,o),
(672,53,cs),
(667,107,o),
(667,160,o),
(667,214,cs),
(667,419,ls),
(667,480,o),
(667,540,o),
(672,593,cs),
(672,601,o),
(717,614,o),
(740,619,c),
(740,650,l),
(703,647,o),
(666,646,o),
(629,646,cs),
(592,646,o),
(555,647,o),
(518,650,c),
(518,619,l),
(541,613,o),
(586,601,o),
(586,593,cs),
(591,540,o),
(591,480,o),
(591,419,cs),
(591,214,ls),
(591,160,o),
(591,107,o),
(586,53,cs),
(585,45,o),
(542,32,o),
(518,25,c),
(518,-6,l)
);
}
);
width = 800;
},
{
anchors = (
{
name = bottom;
pos = (412,0);
},
{
name = center;
pos = (412,327);
},
{
name = top;
pos = (412,654);
},
{
name = topleft;
pos = (-2,654);
}
);
guides = (
{
pos = (33,594);
},
{
angle = 90;
pos = (66,13);
},
{
angle = 270;
pos = (295,13);
},
{
angle = 90;
pos = (523,13);
},
{
angle = 270;
pos = (752,13);
}
);
layerId = "66C19249-B420-404C-A3E7-B74793AC6646";
shapes = (
{
closed = 1;
nodes = (
(635,294,l),
(635,350,l),
(183,350,l),
(183,294,l)
);
},
{
closed = 1;
nodes = (
(105,-1,o),
(145,0,o),
(184,0,cs),
(220,0,o),
(259,-1,o),
(295,-6,c),
(295,32,l),
(272,37,o),
(228,52,o),
(227,60,cs),
(223,116,o),
(223,167,o),
(223,217,cs),
(223,424,ls),
(223,479,o),
(223,534,o),
(227,592,cs),
(228,600,o),
(272,615,o),
(295,620,c),
(295,658,l),
(257,655,o),
(219,654,o),
(180,654,cs),
(142,654,o),
(104,655,o),
(66,658,c),
(66,620,l),
(89,614,o),
(133,600,o),
(134,592,cs),
(138,534,o),
(138,479,o),
(138,424,cs),
(138,217,ls),
(138,167,o),
(138,116,o),
(134,60,cs),
(133,52,o),
(89,38,o),
(66,32,c),
(66,-6,l)
);
},
{
closed = 1;
nodes = (
(561,-1,o),
(601,0,o),
(639,0,cs),
(676,0,o),
(715,-1,o),
(752,-6,c),
(752,32,l),
(729,37,o),
(685,52,o),
(684,60,cs),
(680,116,o),
(680,167,o),
(680,217,cs),
(680,424,ls),
(680,479,o),
(680,534,o),
(684,592,cs),
(685,600,o),
(729,615,o),
(752,620,c),
(752,658,l),
(714,655,o),
(676,654,o),
(638,654,cs),
(600,654,o),
(561,655,o),
(523,658,c),
(523,620,l),
(546,614,o),
(591,600,o),
(592,592,cs),
(596,534,o),
(595,479,o),
(595,424,cs),
(595,217,ls),
(595,167,o),
(595,116,o),
(591,60,cs),
(590,52,o),
(546,38,o),
(523,32,c),
(523,-6,l)
);
}
);
width = 818;
},
{
anchors = (
{
name = bottom;
pos = (347,0);
},
{
name = center;
pos = (347,323);
},
{
name = top;
pos = (347,646);
},
{
name = topleft;
pos = (12,646);
}
);
guides = (
{
pos = (15,601);
},
{
angle = 90;
pos = (54,6);
},
{
angle = 270;
pos = (636,6);
},
{
angle = 270;
pos = (258,6);
},
{
angle = 90;
pos = (431,6);
}
);
layerId = m004;
shapes = (
{
closed = 1;
nodes = (
(531,304,l),
(531,331,l),
(158,331,l),
(158,304,l)
);
},
{
closed = 1;
nodes = (
(88,-1,o),
(122,0,o),
(156,0,cs),
(190,0,o),
(224,-1,o),
(258,-6,c),
(258,17,l),
(238,22,o),
(198,37,o),
(197,45,cs),
(191,99,o),
(191,157,o),
(191,214,cs),
(191,419,ls),
(191,481,o),
(191,541,o),
(197,599,cs),
(198,607,o),
(240,622,o),
(258,627,c),
(258,650,l),
(224,647,o),
(190,646,o),
(156,646,cs),
(122,646,o),
(88,647,o),
(54,650,c),
(54,627,l),
(72,621,o),
(114,607,o),
(115,599,cs),
(121,541,o),
(121,481,o),
(121,419,cs),
(121,214,ls),
(121,157,o),
(121,99,o),
(115,45,cs),
(114,37,o),
(74,23,o),
(54,17,c),
(54,-6,l)
);
},
{
closed = 1;
nodes = (
(465,-1,o),
(499,0,o),
(534,0,cs),
(568,0,o),
(602,-1,o),
(636,-6,c),
(636,17,l),
(615,22,o),
(576,37,o),
(575,45,cs),
(568,99,o),
(568,157,o),
(568,214,cs),
(568,419,ls),
(568,481,o),
(568,541,o),
(574,599,cs),
(575,607,o),
(618,622,o),
(636,627,c),
(636,650,l),
(602,647,o),
(568,646,o),
(534,646,cs),
(499,646,o),
(465,647,o),
(431,650,c),
(431,627,l),
(450,621,o),
(491,607,o),
(492,599,cs),
(498,541,o),
(498,481,o),
(498,419,cs),
(498,214,ls),
(498,157,o),
(498,99,o),
(492,45,cs),
(491,37,o),
(452,23,o),
(431,17,c),
(431,-6,l)
);
}
);
width = 690;
},
{
anchors = (
{
name = bottom;
pos = (404,0);
},
{
name = center;
pos = (404,323);
},
{
name = top;
pos = (404,646);
},
{
name = topleft;
pos = (8,646);
}
);
guides = (
{
pos = (28,593);
},
{
pos = (773,53);
},
{
angle = 90;
pos = (61,10);
},
{
angle = 270;
pos = (283,10);
},
{
angle = 90;
pos = (519,10);
},
{
angle = 270;
pos = (741,10);
}
);
layerId = "44D59E61-3B4F-4F98-A7D7-4CA7F8682DBB";
shapes = (
{
closed = 1;
nodes = (
(628,296,l),
(628,341,l),
(176,341,l),
(176,296,l)
);
},
{
closed = 1;
nodes = (
(76,-1,o),
(123,0,o),
(170,0,cs),
(217,0,o),
(264,-1,o),
(311,-6,c),
(311,31,l),
(288,37,o),
(244,51,o),
(243,59,cs),
(238,113,o),
(238,166,o),
(238,220,cs),
(238,413,ls),
(238,474,o),
(238,534,o),
(243,587,cs),
(243,595,o),
(288,608,o),
(311,613,c),
(311,650,l),
(266,647,o),
(220,646,o),
(175,646,cs),
(130,646,o),
(84,647,o),
(39,650,c),
(39,613,l),
(62,607,o),
(107,595,o),
(107,587,cs),
(112,534,o),
(112,474,o),
(112,413,cs),
(112,220,ls),
(112,166,o),
(112,113,o),
(107,59,cs),
(106,52,o),
(63,38,o),
(39,31,c),
(39,-6,l)
);
},
{
closed = 1;
nodes = (
(537,-1,o),
(583,0,o),
(628,0,cs),
(673,0,o),
(719,-1,o),
(764,-6,c),
(764,31,l),
(741,37,o),
(697,51,o),
(696,59,cs),
(691,113,o),
(691,166,o),
(691,220,cs),
(691,413,ls),
(691,474,o),
(691,534,o),
(696,587,cs),
(696,595,o),
(741,608,o),
(764,613,c),
(764,650,l),
(719,647,o),
(673,646,o),
(628,646,cs),
(583,646,o),
(537,647,o),
(492,650,c),
(492,613,l),
(515,607,o),
(560,595,o),
(560,587,cs),
(565,534,o),
(565,474,o),
(565,413,cs),
(565,220,ls),
(565,166,o),
(565,113,o),
(560,59,cs),
(559,51,o),
(516,38,o),
(492,31,c),
(492,-6,l)
);
}
);
width = 803;
}
);
unicode = 72;
userData = {
KernOnName = H;
};
},
{
glyphname = I;
kernLeft = KO_H;
kernRight = KO_H;
lastChange = "2025-03-14 17:54:50 +0000";
layers = (
{
anchors = (
{
name = bottom;
pos = (182,0);
},
{
name = ogonek;
pos = (296,10);
},
{
name = top;
pos = (182,646);
},
{
name = topleft;
pos = (15,646);
}
);
guides = (
{
angle = 270;
pos = (313,637);
},
{
angle = 90;
pos = (45,637);
}
);
layerId = m01;
shapes = (
{
closed = 1;
nodes = (
(90,-1,o),
(134,0,o),
(179,0,cs),
(224,0,o),
(268,-1,o),
(313,-6,c),
(313,25,l),
(277,31,o),
(223,45,o),
(222,53,cs),
(217,109,o),
(217,165,o),
(217,221,cs),
(217,406,ls),
(217,468,o),
(217,530,o),
(223,593,cs),
(224,601,o),
(282,615,o),
(313,621,c),
(313,652,l),
(268,647,o),
(224,646,o),
(179,646,cs),
(134,646,o),
(90,647,o),
(45,652,c),
(45,621,l),
(76,615,o),
(134,601,o),
(135,593,cs),
(141,530,o),
(141,468,o),
(141,406,cs),
(141,221,ls),
(141,165,o),
(141,109,o),
(136,53,cs),
(135,45,o),
(80,31,o),
(45,25,c),
(45,-6,l)
);
}
);
width = 358;
},
{
anchors = (
{
name = bottom;
pos = (191,0);
},
{
name = ogonek;
pos = (307,10);
},
{
name = top;
pos = (191,654);
},
{
name = topleft;
pos = (6,654);
}
);
guides = (
{
angle = 270;
pos = (328,639);
},
{
angle = 90;
pos = (50,639);
}
);
layerId = "66C19249-B420-404C-A3E7-B74793AC6646";
shapes = (
{
closed = 1;
nodes = (
(96,-1,o),
(143,0,o),
(189,0,cs),
(235,0,o),
(282,-1,o),
(328,-6,c),
(328,32,l),
(294,38,o),
(239,52,o),
(238,60,cs),
(233,110,o),
(233,161,o),
(233,211,cs),
(233,424,ls),
(233,480,o),
(233,537,o),
(238,594,cs),
(239,602,o),
(298,614,o),
(328,620,c),
(328,658,l),
(282,655,o),
(235,654,o),
(189,654,cs),
(143,654,o),
(96,655,o),
(50,658,c),
(50,620,l),
(81,614,o),
(139,602,o),
(140,594,cs),
(144,537,o),
(144,481,o),
(144,424,cs),
(144,211,ls),
(144,161,o),
(144,110,o),
(140,60,cs),
(139,52,o),
(83,38,o),
(50,32,c),
(50,-6,l)
);
}
);
width = 378;
},
{
anchors = (
{
name = bottom;
pos = (167,0);
},
{
name = ogonek;
pos = (283,10);
},
{
name = top;
pos = (167,646);
},
{
name = topleft;
pos = (21,646);
}
);
guides = (
{
angle = 270;
pos = (315,643);
},
{
angle = 90;
pos = (41,6);
},
{
angle = 270;
pos = (289,6);
}
);
layerId = m004;
shapes = (
{
closed = 1;
nodes = (
(82,-1,o),
(124,0,o),
(165,0,cs),
(206,0,o),
(248,-1,o),
(289,-6,c),
(289,17,l),
(261,23,o),
(207,37,o),
(206,45,cs),
(200,102,o),
(200,160,o),
(200,217,cs),
(200,410,ls),
(200,473,o),
(200,537,o),
(206,601,cs),
(207,609,o),
(261,621,o),
(289,627,c),
(289,650,l),
(248,647,o),
(206,646,o),
(165,646,cs),
(124,646,o),
(82,647,o),
(41,650,c),
(41,627,l),
(69,621,o),
(123,609,o),
(124,601,cs),
(130,537,o),
(130,473,o),
(130,410,cs),
(130,217,ls),
(130,160,o),
(130,102,o),
(124,45,cs),
(123,37,o),
(69,23,o),
(41,17,c),
(41,-6,l)
);
}
);
width = 330;
},
{
anchors = (
{
name = bottom;
pos = (197,0);
},
{
name = ogonek;
pos = (311,10);
},
{
name = top;
pos = (197,646);
},
{
name = topleft;
pos = (30,646);
}
);
guides = (
{
angle = 270;
pos = (328,637);
},
{
angle = 90;
pos = (60,637);
}
);
layerId = "44D59E61-3B4F-4F98-A7D7-4CA7F8682DBB";
shapes = (
{
closed = 1;
nodes = (
(82,-1,o),
(135,0,o),
(188,0,cs),
(241,0,o),
(294,-1,o),
(347,-6,c),
(347,31,l),
(311,37,o),
(257,51,o),
(256,59,cs),
(251,115,o),
(251,171,o),
(251,227,cs),
(251,400,ls),
(251,462,o),
(251,524,o),
(257,587,cs),
(258,595,o),
(316,609,o),
(347,615,c),
(347,652,l),
(294,647,o),
(241,646,o),
(188,646,cs),
(135,646,o),
(82,647,o),
(29,652,c),
(29,615,l),
(60,609,o),
(118,595,o),
(119,587,cs),
(125,524,o),
(125,462,o),
(125,400,cs),
(125,227,ls),
(125,171,o),
(125,115,o),
(120,59,cs),
(119,51,o),
(64,37,o),
(29,31,c),
(29,-6,l)
);
}
);
width = 376;
}
);
metricLeft = "=H*0.75";
metricRight = "=H*0.75";
unicode = 73;
userData = {
KernOnName = I;
};
},
{
glyphname = J;
kernLeft = KO_J;
kernRight = KO_J;
lastChange = "2025-03-14 17:55:55 +0000";
layers = (
{
anchors = (
{
name = bottom;
pos = (174,0);
},
{
name = top;
pos = (174,646);
}
);
layerId = m01;
shapes = (
{
closed = 1;
nodes = (
(84,-180,o),
(134,-162,o),
(167,-121,cs),
(205,-72,o),
(209,-13,o),
(209,56,cs),
(209,419,ls),
(209,480,o),
(209,540,o),
(214,593,cs),
(214,601,o),
(274,614,o),
(304,619,c),
(304,650,l),
(260,647,o),
(215,646,o),
(171,646,cs),
(127,646,o),
(82,647,o),
(38,650,c),
(38,619,l),
(68,614,o),
(127,601,o),
(128,593,cs),
(133,540,o),
(133,480,o),
(133,419,cs),
(133,56,ls),
(132,-62,o),
(107,-141,o),
(47,-141,cs),
(29,-141,o),
(4,-135,o),
(-12,-103,c),
(-64,-160,l),
(-34,-172,o),
(-1,-180,o),
(32,-180,cs)
);
}
);
width = 342;
},
{
anchors = (
{
name = bottom;
pos = (183,0);
},
{
name = top;
pos = (183,654);
}
);
layerId = "66C19249-B420-404C-A3E7-B74793AC6646";
shapes = (
{
closed = 1;
nodes = (
(91,-182,o),
(143,-165,o),
(177,-121,cs),
(214,-73,o),
(223,-13,o),
(223,57,cs),
(223,424,ls),
(223,479,o),
(223,534,o),
(227,594,cs),
(228,602,o),
(287,615,o),
(317,620,c),
(317,658,l),
(271,655,o),
(225,654,o),
(180,654,cs),
(135,654,o),
(89,655,o),
(44,658,c),
(44,620,l),
(74,615,o),
(133,602,o),
(134,594,cs),
(138,534,o),
(138,479,o),
(138,424,cs),
(138,57,ls),
(138,-53,o),
(121,-127,o),
(65,-127,cs),
(49,-127,o),
(26,-121,o),
(12,-88,c),
(-54,-162,l),
(-24,-174,o),
(9,-182,o),
(42,-182,cs)
);
}
);
width = 361;
},
{
anchors = (
{
name = bottom;
pos = (158,0);
},
{
name = top;
pos = (158,646);
}
);
guides = (
{
pos = (156,601);
}
);
layerId = m004;
shapes = (
{
closed = 1;
nodes = (
(72,-180,o),
(120,-159,o),
(151,-121,cs),
(180,-83,o),
(191,-41,o),
(191,56,cs),
(191,419,ls),
(191,509,o),
(193,559,o),
(197,601,cs),
(198,609,o),
(252,622,o),
(280,627,c),
(280,650,l),
(239,647,o),
(197,646,o),
(156,646,cs),
(115,646,o),
(73,647,o),
(32,650,c),
(32,627,l),
(60,622,o),
(114,609,o),
(115,601,cs),
(121,559,o),
(121,509,o),
(121,419,cs),
(121,56,ls),
(121,-82,o),
(90,-155,o),
(32,-155,cs),
(0,-155,o),
(-22,-142,o),
(-37,-114,c),
(-79,-160,l),
(-46,-173,o),
(-13,-180,o),
(17,-180,cs)
);
}
);
width = 313;
},
{
anchors = (
{
name = bottom;
pos = (178,0);
},
{
name = top;
pos = (178,646);
}
);
layerId = "44D59E61-3B4F-4F98-A7D7-4CA7F8682DBB";
shapes = (
{
closed = 1;
nodes = (
(89,-180,o),
(152,-163,o),
(185,-121,cs),
(230,-64,o),
(238,-13,o),
(238,56,cs),
(238,413,ls),
(238,474,o),
(238,534,o),
(243,587,cs),
(243,595,o),
(303,608,o),
(333,613,c),
(333,650,l),
(280,647,o),
(228,646,o),
(175,646,cs),
(122,646,o),
(70,647,o),
(17,650,c),
(17,613,l),
(47,608,o),
(106,595,o),
(107,587,cs),
(112,534,o),
(112,474,o),
(112,413,cs),
(112,56,ls),
(112,-56,o),
(88,-131,o),
(31,-131,cs),
(13,-131,o),
(-3,-123,o),
(-19,-97,c),
(-70,-153,l),
(-37,-169,o),
(0,-180,o),
(36,-180,cs)
);
}
);
width = 350;
}
);
metricLeft = "=H@245";
metricRight = "=H@245";
unicode = 74;
},
{
glyphname = K;
kernLeft = KO_H;
kernRight = KO_K;
lastChange = "2025-03-14 23:09:55 +0000";
layers = (
{
anchors = (
{
name = bottom;
pos = (339,0);
},
{
name = top;
pos = (339,646);
}
);
layerId = m01;
shapes = (
{
closed = 1;
nodes = (
(98,-1,o),
(136,0,o),
(173,0,cs),
(209,0,o),
(245,-1,o),
(281,-6,c),
(281,25,l),
(258,31,o),
(213,45,o),
(213,53,cs),
(209,102,o),
(209,158,o),
(209,214,cs),
(209,413,ls),
(209,475,o),
(209,537,o),
(215,593,cs),
(215,601,o),
(255,615,o),
(275,621,c),
(275,652,l),
(240,647,o),
(206,646,o),
(171,646,cs),
(136,646,o),
(102,647,o),
(67,652,c),
(67,621,l),
(88,615,o),
(127,601,o),
(127,593,cs),
(133,537,o),
(133,475,o),
(133,413,cs),
(133,214,ls),
(133,158,o),
(133,102,o),
(129,53,cs),
(129,45,o),
(84,31,o),
(61,25,c),
(61,-6,l)
);
},
{
closed = 1;
nodes = (
(638,-11,o),
(658,-7,o),
(676,-2,c),
(676,31,l),
(654,30,o),
(633,34,o),
(617,47,cs),
(508,135,o),
(388,264,o),
(318,377,c),
(305,339,l),
(568,593,ls),
(575,599,o),
(636,616,o),
(658,621,c),
(658,652,l),
(620,647,o),
(582,646,o),
(544,646,cs),
(500,646,o),
(456,647,o),
(412,652,c),
(412,621,l),
(434,617,o),
(495,602,o),
(501,596,c),
(468,556,o),
(435,519,o),
(397,483,cs),
(326,415,ls),
(264,356,o),
(241,335,o),
(189,335,c),
(189,296,l),
(250,296,o),
(280,292,o),
(330,231,cs),
(406,137,o),
(526,-11,o),
(622,-11,cs)
);
}
);
width = 691;
},
{
anchors = (
{
name = bottom;
pos = (343,0);
},
{
name = top;
pos = (343,654);
}
);
guides = (
{
angle = 135;
pos = (497,597);
}
);
layerId = "66C19249-B420-404C-A3E7-B74793AC6646";
shapes = (
{
closed = 1;
nodes = (
(104,-1,o),
(142,0,o),
(181,0,cs),
(219,0,o),
(257,-1,o),
(295,-6,c),
(295,32,l),
(273,34,o),
(228,52,o),
(227,60,cs),
(224,93,o),
(223,138,o),
(223,217,cs),
(223,424,ls),
(223,501,o),
(224,548,o),
(227,594,cs),
(228,602,o),
(266,619,o),
(287,622,c),
(287,660,l),
(252,655,o),
(216,654,o),
(181,654,cs),
(145,654,o),
(110,655,o),
(74,660,c),
(74,622,l),
(95,618,o),
(133,602,o),
(134,594,cs),
(137,548,o),
(138,501,o),
(138,424,cs),
(138,217,ls),
(138,137,o),
(137,91,o),
(134,58,cs),
(133,50,o),
(89,34,o),
(66,32,c),
(66,-6,l)
);
},
{
closed = 1;
nodes = (
(651,-11,o),
(672,-8,o),
(696,-2,c),
(696,36,l),
(649,36,o),
(626,43,o),
(597,70,cs),
(530,132,o),
(402,270,o),
(332,387,c),
(320,341,l),
(577,594,ls),
(584,600,o),
(645,620,o),
(667,622,c),
(667,660,l),
(626,655,o),
(582,654,o),
(541,654,cs),
(498,654,o),
(451,655,o),
(408,660,c),
(408,622,l),
(432,619,o),
(490,603,o),
(497,597,c),
(466,560,o),
(427,516,o),
(399,489,cs),
(328,420,ls),
(264,358,o),
(244,339,o),
(199,339,c),
(198,300,l),
(264,300,o),
(289,293,o),
(336,233,cs),
(410,138,o),
(526,-11,o),
(627,-11,cs)
);
}
);
width = 705;
},
{
anchors = (
{
name = bottom;
pos = (308,0);
},
{
name = top;
pos = (308,646);
}
);
layerId = m004;
shapes = (
{
closed = 1;
nodes = (
(88,-1,o),
(122,0,o),
(156,0,cs),
(189,0,o),
(223,-1,o),
(257,-6,c),
(257,17,l),
(236,22,o),
(197,37,o),
(196,45,cs),
(192,82,o),
(191,129,o),
(191,214,cs),
(191,419,ls),
(191,510,o),
(192,561,o),
(196,601,cs),
(197,609,o),
(232,624,o),
(250,629,c),
(250,652,l),
(219,647,o),
(187,646,o),
(156,646,cs),
(124,646,o),
(93,647,o),
(61,652,c),
(61,629,l),
(79,623,o),
(114,609,o),
(115,601,cs),
(120,562,o),
(121,509,o),
(121,419,cs),
(121,214,ls),
(121,127,o),
(120,81,o),
(115,45,cs),
(114,37,o),
(74,23,o),
(54,17,c),
(54,-6,l)
);
},
{
closed = 1;
nodes = (
(577,-10,o),
(595,-7,o),
(611,-1,c),
(611,22,l),
(594,20,o),
(579,27,o),
(557,47,cs),
(457,139,o),
(349,267,o),
(287,383,c),
(275,343,l),
(515,601,ls),
(520,607,o),
(577,625,o),
(596,629,c),
(596,652,l),
(560,647,o),
(525,646,o),
(489,646,cs),
(453,646,o),
(418,647,o),
(382,652,c),
(382,629,l),
(398,626,o),
(457,610,o),
(462,604,c),
(434,564,o),
(403,526,o),
(363,483,cs),
(299,415,ls),
(242,355,o),
(217,329,o),
(172,329,c),
(172,302,l),
(230,302,o),
(258,295,o),
(302,232,cs),
(369,137,o),
(473,-10,o),
(565,-10,cs)
);
}
);
width = 623;
},
{
anchors = (
{
name = bottom;
pos = (343,0);
},
{
name = top;
pos = (343,646);
}
);
background = {
shapes = (
{
closed = 1;
nodes = (
(82,-1,o),
(120,0,o),
(177,0,cs),
(233,0,o),
(269,-1,o),
(305,-6,c),
(305,31,l),
(282,37,o),
(237,51,o),
(237,59,cs),
(233,108,o),
(233,164,o),
(233,220,cs),
(233,407,ls),
(233,469,o),
(233,531,o),
(239,587,cs),
(239,595,o),
(279,609,o),
(299,615,c),
(299,652,l),
(264,647,o),
(230,646,o),
(175,646,cs),
(120,646,o),
(86,647,o),
(51,652,c),
(51,615,l),
(72,609,o),
(111,595,o),
(111,587,cs),
(117,531,o),
(117,469,o),
(117,407,cs),
(117,220,ls),
(117,164,o),
(117,108,o),
(113,59,cs),
(113,51,o),
(68,37,o),
(45,31,c),
(45,-6,l)
);
},
{
closed = 1;
nodes = (
(620,-11,o),
(652,-7,o),
(680,-2,c),
(680,37,l),
(663,36,o),
(644,42,o),
(631,53,cs),
(527,140,o),
(410,266,o),
(342,377,c),
(313,339,l),
(576,593,ls),
(583,599,o),
(641,616,o),
(662,621,c),
(662,652,l),
(624,647,o),
(586,646,o),
(548,646,cs),
(504,646,o),
(460,647,o),
(416,652,c),
(416,621,l),
(437,617,o),
(495,602,o),
(501,596,c),
(468,556,o),
(435,519,o),
(397,483,cs),
(326,415,ls),
(266,358,o),
(243,338,o),
(193,338,c),
(193,293,l),
(234,293,o),
(257,287,o),
(303,231,cs),
(379,137,o),
(499,-11,o),
(595,-11,cs)
);
}
);
};
guides = (
{
angle = 42.8789;
pos = (469,203);
showMeasurement = 1;
}
);
layerId = "44D59E61-3B4F-4F98-A7D7-4CA7F8682DBB";
shapes = (
{
closed = 1;
nodes = (
(85,-1,o),
(130,0,o),
(175,0,cs),
(220,0,o),
(265,-1,o),
(310,-6,c),
(310,31,l),
(287,37,o),
(242,51,o),
(242,59,cs),
(238,108,o),
(238,164,o),
(238,220,cs),
(238,407,ls),
(238,469,o),
(238,531,o),
(244,587,cs),
(244,595,o),
(284,609,o),
(304,615,c),
(304,652,l),
(261,647,o),
(218,646,o),
(175,646,cs),
(132,646,o),
(89,647,o),
(46,652,c),
(46,615,l),
(67,609,o),
(106,595,o),
(106,587,cs),
(112,531,o),
(112,469,o),
(112,407,cs),
(112,220,ls),
(112,164,o),
(112,108,o),
(108,59,cs),
(108,51,o),
(63,37,o),
(40,31,c),
(40,-6,l)
);
},
{
closed = 1;
nodes = (
(620,-11,o),
(652,-7,o),
(680,-2,c),
(680,37,l),
(663,36,o),
(644,42,o),
(631,53,cs),
(531,140,o),
(418,266,o),
(352,377,c),
(313,339,l),
(570,587,ls),
(577,593,o),
(640,610,o),
(662,615,c),
(662,652,l),
(624,647,o),
(586,646,o),
(548,646,cs),
(504,646,o),
(460,647,o),
(416,652,c),
(416,615,l),
(436,611,o),
(489,596,o),
(495,590,c),
(464,550,o),
(434,518,o),
(397,483,cs),
(326,415,ls),
(266,358,o),
(243,338,o),
(193,338,c),
(193,293,l),
(234,293,o),
(257,287,o),
(303,231,cs),
(379,137,o),
(499,-11,o),
(595,-11,cs)
);
}
);
width = 691;
}
);
metricLeft = "=H@245";
unicode = 75;
userData = {
KernOnName = K;
};
},
{
glyphname = L;
kernLeft = KO_H;
kernRight = KO_L;
lastChange = "2025-03-14 23:44:16 +0000";
layers = (
{
anchors = (
{
name = bottom;
pos = (271,0);
},
{
name = center;
pos = (271,323);
},
{
name = top;
pos = (271,646);
},
{
name = topright;
pos = (360,646);
}
);
layerId = m01;
shapes = (
{
closed = 1;
nodes = (
(539,122,l),
(511,122,l),
(475,81,ls),
(448,51,o),
(419,41,o),
(380,41,cs),
(328,41,o),
(270,41,o),
(218,50,c),
(215,106,o),
(214,158,o),
(214,214,cs),
(214,413,ls),
(214,508,o),
(215,558,o),
(219,591,cs),
(220,599,o),
(272,612,o),
(320,619,c),
(320,650,l),
(277,647,o),
(233,646,o),
(190,646,cs),
(147,646,o),
(103,647,o),
(60,650,c),
(60,619,l),
(92,611,o),
(127,599,o),
(128,591,cs),
(132,558,o),
(133,508,o),
(133,413,cs),
(133,214,ls),
(133,127,o),
(133,88,o),
(129,50,cs),
(128,42,o),
(85,30,o),
(61,25,c),
(61,-6,l),
(95,-1,o),
(129,0,o),
(170,0,cs),
(330,0,o),
(388,-2,o),
(486,-11,c)
);
}
);
width = 554;
},
{
anchors = (
{
name = bottom;
pos = (269,0);
},
{
name = center;
pos = (269,327);
},
{
name = top;
pos = (269,654);
},
{
name = topright;
pos = (368,654);
}
);
guides = (
{
pos = (55,63);
}
);
layerId = "66C19249-B420-404C-A3E7-B74793AC6646";
shapes = (
{
closed = 1;
nodes = (
(545,123,l),
(511,123,l),
(480,87,ls),
(462,66,o),
(428,57,o),
(368,57,cs),
(323,57,o),
(272,57,o),
(227,60,c),
(224,94,o),
(223,139,o),
(223,217,cs),
(223,418,ls),
(223,501,o),
(224,550,o),
(227,592,cs),
(228,600,o),
(294,615,o),
(328,620,c),
(328,658,l),
(284,655,o),
(241,654,o),
(197,654,cs),
(153,654,o),
(110,655,o),
(66,658,c),
(66,620,l),
(101,612,o),
(133,600,o),
(134,592,cs),
(137,551,o),
(138,504,o),
(138,418,cs),
(138,217,ls),
(138,140,o),
(137,97,o),
(134,60,cs),
(133,52,o),
(99,40,o),
(66,32,c),
(66,-6,l),
(98,-2,o),
(130,0,o),
(176,0,cs),
(337,0,o),
(395,-2,o),
(493,-11,c)
);
}
);
width = 560;
},
{
anchors = (
{
name = bottom;
pos = (240,0);
},
{
name = center;
pos = (240,323);
},
{
name = top;
pos = (240,646);
},
{
name = topright;
pos = (328,646);
}
);
guides = (
{
pos = (42,39);
}
);
layerId = m004;
shapes = (
{
closed = 1;
nodes = (
(473,122,l),
(453,122,l),
(424,81,ls),
(396,41,o),
(369,27,o),
(330,27,cs),
(288,27,o),
(238,27,o),
(196,42,c),
(193,59,o),
(191,104,o),
(191,214,cs),
(191,413,ls),
(191,509,o),
(193,558,o),
(197,599,cs),
(198,607,o),
(257,622,o),
(288,627,c),
(288,650,l),
(249,647,o),
(210,646,o),
(171,646,cs),
(132,646,o),
(93,647,o),
(54,650,c),
(54,627,l),
(74,621,o),
(114,607,o),
(115,599,cs),
(119,561,o),
(121,511,o),
(121,413,cs),
(121,214,ls),
(121,124,o),
(120,81,o),
(116,42,cs),
(115,34,o),
(76,22,o),
(55,17,c),
(55,-6,l),
(86,-1,o),
(116,0,o),
(152,0,cs),
(265,0,o),
(323,-2,o),
(421,-11,c)
);
}
);
width = 488;
},
{
anchors = (
{
name = bottom;
pos = (275,0);
},
{
name = center;
pos = (275,323);
},
{
name = top;
pos = (275,646);
},
{
name = topright;
pos = (384,646);
}
);
layerId = "44D59E61-3B4F-4F98-A7D7-4CA7F8682DBB";
shapes = (
{
closed = 1;
nodes = (
(546,128,l),
(509,128,l),
(473,87,ls),
(446,57,o),
(417,47,o),
(378,47,cs),
(332,47,o),
(294,47,o),
(242,56,c),
(239,112,o),
(238,164,o),
(238,220,cs),
(238,407,ls),
(238,502,o),
(239,552,o),
(243,585,cs),
(244,593,o),
(296,606,o),
(344,613,c),
(344,650,l),
(293,647,o),
(242,646,o),
(192,646,cs),
(141,646,o),
(90,647,o),
(39,650,c),
(39,613,l),
(71,605,o),
(106,593,o),
(107,585,cs),
(111,552,o),
(112,502,o),
(112,407,cs),
(112,220,ls),
(112,133,o),
(112,94,o),
(108,56,cs),
(107,48,o),
(64,36,o),
(40,31,c),
(40,-6,l),
(74,-1,o),
(108,0,o),
(174,0,cs),
(334,0,o),
(392,-2,o),
(490,-11,c)
);
}
);
width = 557;
}
);
metricLeft = "=H@245";
unicode = 76;
userData = {
KernOnName = L;
};
},
{
glyphname = Lslash;
kernRight = Lslash;
lastChange = "2025-01-30 19:22:32 +0000";
layers = (
{
layerId = m01;
shapes = (
{
closed = 1;
nodes = (
(531,122,l),
(498,122,l),
(462,81,ls),
(435,51,o),
(406,41,o),
(367,41,cs),
(315,41,o),
(262,41,o),
(210,50,c),
(207,106,o),
(206,158,o),
(206,214,cs),
(206,413,ls),
(206,508,o),
(207,558,o),
(211,591,cs),
(212,599,o),
(264,612,o),
(312,619,c),
(312,650,l),
(265,647,o),
(218,646,o),
(171,646,cs),
(134,646,o),
(97,647,o),
(60,650,c),
(60,619,l),
(88,611,o),
(119,599,o),
(120,591,cs),
(124,558,o),
(125,508,o),
(125,413,cs),
(125,214,ls),
(125,127,o),
(125,88,o),
(121,50,cs),
(120,42,o),
(77,30,o),
(53,25,c),
(53,-6,l),
(87,-1,o),
(121,0,o),
(162,0,cs),
(322,0,o),
(380,-2,o),
(478,-11,c)
);
},
{
closed = 1;
nodes = (
(390,412,l),
(390,463,l),
(316,415,o),
(243,369,o),
(168,325,cs),
(131,303,o),
(91,283,o),
(53,264,c),
(53,217,l)
);
}
);
width = 546;
},
{
background = {
anchors = (
{
name = bottom;
pos = (258,0);
},
{
name = center;
pos = (258,327);
},
{
name = top;
pos = (258,654);
},
{
name = topright;
pos = (529,654);
}
);
shapes = (
{
closed = 1;
nodes = (
(534,123,l),
(495,123,l),
(464,87,ls),
(446,66,o),
(412,57,o),
(352,57,cs),
(307,57,o),
(261,57,o),
(216,60,c),
(213,94,o),
(212,139,o),
(212,217,cs),
(212,418,ls),
(212,501,o),
(213,550,o),
(216,592,cs),
(217,600,o),
(283,615,o),
(317,620,c),
(317,658,l),
(269,655,o),
(220,654,o),
(172,654,cs),
(136,654,o),
(99,655,o),
(63,658,c),
(63,620,l),
(94,612,o),
(122,600,o),
(123,592,cs),
(126,551,o),
(127,504,o),
(127,418,cs),
(127,217,ls),
(127,140,o),
(126,97,o),
(123,60,cs),
(122,52,o),
(88,40,o),
(55,32,c),
(55,-6,l),
(87,-2,o),
(119,0,o),
(165,0,cs),
(326,0,o),
(384,-2,o),
(482,-11,c)
);
}
);
};
guides = (
{
angle = 30.0957;
pos = (222,308);
}
);
layerId = "66C19249-B420-404C-A3E7-B74793AC6646";
shapes = (
{
closed = 1;
nodes = (
(534,123,l),
(495,123,l),
(464,87,ls),
(446,66,o),
(412,57,o),
(352,57,cs),
(307,57,o),
(261,57,o),
(216,60,c),
(213,94,o),
(212,139,o),
(212,217,cs),
(212,418,ls),
(212,501,o),
(213,550,o),
(216,592,cs),
(217,600,o),
(283,615,o),
(317,620,c),
(317,658,l),
(269,655,o),
(220,654,o),
(172,654,cs),
(136,654,o),
(99,655,o),
(63,658,c),
(63,620,l),
(94,612,o),
(122,600,o),
(123,592,cs),
(126,551,o),
(127,504,o),
(127,418,cs),
(127,217,ls),
(127,140,o),
(126,97,o),
(123,60,cs),
(122,52,o),
(88,40,o),
(55,32,c),
(55,-6,l),
(87,-2,o),
(119,0,o),
(165,0,cs),
(326,0,o),
(384,-2,o),
(482,-11,c)
);
},
{
closed = 1;
nodes = (
(395,408,l),
(395,470,l),
(321,420,o),
(245,374,o),
(170,330,cs),
(133,308,o),
(93,288,o),
(55,269,c),
(55,211,l)
);
}
);
width = 549;
},
{
background = {
anchors = (
{
name = bottom;
pos = (242,0);
},
{
name = center;
pos = (242,323);
},
{
name = top;
pos = (242,646);
},
{
name = topright;
pos = (470,646);
}
);
shapes = (
{
closed = 1;
nodes = (
(475,122,l),
(447,122,l),
(418,81,ls),
(390,41,o),
(363,27,o),
(324,27,cs),
(282,27,o),
(240,27,o),
(198,42,c),
(195,59,o),
(193,104,o),
(193,214,cs),
(193,413,ls),
(193,509,o),
(195,558,o),
(199,599,cs),
(200,607,o),
(259,622,o),
(290,627,c),
(290,650,l),
(246,647,o),
(203,646,o),
(159,646,cs),
(127,646,o),
(95,647,o),
(63,650,c),
(63,627,l),
(81,621,o),
(116,607,o),
(117,599,cs),
(121,561,o),
(123,511,o),
(123,413,cs),
(123,214,ls),
(123,124,o),
(122,81,o),
(118,42,cs),
(117,34,o),
(78,22,o),
(57,17,c),
(57,-6,l),
(88,-1,o),
(118,0,o),
(154,0,cs),
(267,0,o),
(325,-2,o),
(423,-11,c)
);
}
);
};
layerId = m004;
shapes = (
{
closed = 1;
nodes = (
(475,122,l),
(447,122,l),
(418,81,ls),
(390,41,o),
(363,27,o),
(324,27,cs),
(282,27,o),
(240,27,o),
(198,42,c),
(195,59,o),
(193,104,o),
(193,214,cs),
(193,413,ls),
(193,509,o),
(195,558,o),
(199,599,cs),
(200,607,o),
(259,622,o),
(290,627,c),
(290,650,l),
(246,647,o),
(203,646,o),
(159,646,cs),
(127,646,o),
(95,647,o),
(63,650,c),
(63,627,l),
(81,621,o),
(116,607,o),
(117,599,cs),
(121,561,o),
(123,511,o),
(123,413,cs),
(123,214,ls),
(123,124,o),
(122,81,o),
(118,42,cs),
(117,34,o),
(78,22,o),
(57,17,c),
(57,-6,l),
(88,-1,o),
(118,0,o),
(154,0,cs),
(267,0,o),
(325,-2,o),
(423,-11,c)
);
},
{
closed = 1;
nodes = (
(354,404,l),
(354,449,l),
(290,404,o),
(236,371,o),
(172,333,cs),
(135,311,o),
(95,291,o),
(57,272,c),
(57,231,l)
);
}
);
width = 490;
},
{
background = {
anchors = (
{
name = bottom;
pos = (273,0);
},
{
name = center;
pos = (273,323);
},
{
name = top;
pos = (273,646);
},
{
name = topright;
pos = (382,646);
}
);
shapes = (
{
closed = 1;
nodes = (
(544,128,l),
(507,128,l),
(471,87,ls),
(444,57,o),
(415,47,o),
(376,47,cs),
(330,47,o),
(292,47,o),
(240,56,c),
(237,112,o),
(236,164,o),
(236,220,cs),
(236,407,ls),
(236,502,o),
(237,552,o),
(241,585,cs),
(242,593,o),
(294,606,o),
(342,613,c),
(342,650,l),
(295,647,o),
(245,646,o),
(178,646,cs),
(119,646,o),
(81,647,o),
(42,650,c),
(42,613,l),
(74,605,o),
(109,593,o),
(110,585,cs),
(114,552,o),
(115,502,o),
(115,407,cs),
(115,220,ls),
(115,133,o),
(115,94,o),
(111,56,cs),
(110,48,o),
(67,36,o),
(43,31,c),
(43,-6,l),
(77,-1,o),
(111,0,o),
(172,0,cs),
(332,0,o),
(390,-2,o),
(488,-11,c)
);
}
);
};
layerId = "44D59E61-3B4F-4F98-A7D7-4CA7F8682DBB";
shapes = (
{
closed = 1;
nodes = (
(544,128,l),
(507,128,l),
(471,87,ls),
(444,57,o),
(415,47,o),
(376,47,cs),
(330,47,o),
(292,47,o),
(240,56,c),
(237,112,o),
(236,164,o),
(236,220,cs),
(236,407,ls),
(236,502,o),
(237,552,o),
(241,585,cs),
(242,593,o),
(294,606,o),
(342,613,c),
(342,650,l),
(295,647,o),
(245,646,o),
(178,646,cs),
(119,646,o),
(81,647,o),
(42,650,c),
(42,613,l),
(74,605,o),
(109,593,o),
(110,585,cs),
(114,552,o),
(115,502,o),
(115,407,cs),
(115,220,ls),
(115,133,o),
(115,94,o),
(111,56,cs),
(110,48,o),
(67,36,o),
(43,31,c),
(43,-6,l),
(77,-1,o),
(111,0,o),
(172,0,cs),
(332,0,o),
(390,-2,o),
(488,-11,c)
);
},
{
closed = 1;
nodes = (
(399,420,l),
(399,477,l),
(325,428,o),
(233,372,o),
(158,328,cs),
(121,306,o),
(81,286,o),
(43,267,c),
(43,214,l)
);
}
);
width = 546;
}
);
unicode = 321;
},
{
glyphname = M;
kernLeft = KO_M;
kernRight = KO_M;
lastChange = "2025-03-15 00:25:35 +0000";
layers = (
{
anchors = (
{
name = bottom;
pos = (476,0);
},
{
name = top;
pos = (476,646);
}
);
layerId = m01;
shapes = (
{
closed = 1;
nodes = (
(79,-1,o),
(110,0,o),
(141,0,cs),
(174,0,o),
(208,-1,o),
(241,-6,c),
(241,18,l),
(218,23,o),
(177,38,o),
(174,46,c),
(184,150,o),
(198,249,o),
(216,355,cs),
(248,545,l),
(232,543,l),
(432,19,l),
(489,19,l),
(570,198,o),
(655,358,o),
(753,532,c),
(741,534,l),
(744,491,o),
(746,460,o),
(747,412,cs),
(753,213,ls),
(755,161,o),
(755,102,o),
(755,53,cs),
(755,45,o),
(706,24,o),
(684,18,c),
(684,-6,l),
(724,-1,o),
(763,0,o),
(803,0,cs),
(839,0,o),
(876,-1,o),
(912,-6,c),
(912,18,l),
(890,23,o),
(845,45,o),
(844,53,cs),
(838,101,o),
(835,158,o),
(832,215,cs),
(823,414,ls),
(820,479,o),
(818,536,o),
(821,603,c),
(843,610,o),
(865,616,o),
(889,619,c),
(889,650,l),
(869,647,o),
(848,646,o),
(828,646,cs),
(807,646,o),
(787,646,o),
(766,647,c),
(471,92,l),
(498,95,l),
(433,232,o),
(395,329,o),
(361,418,cs),
(273,647,l),
(252,646,o),
(231,646,o),
(210,646,cs),
(188,646,o),
(167,647,o),
(146,650,c),
(146,619,l),
(171,615,o),
(193,604,o),
(212,591,c),
(115,46,ls),
(114,38,o),
(71,24,o),
(48,18,c),
(48,-6,l)
);
}
);
width = 966;
},
{
anchors = (
{
name = bottom;
pos = (485,0);
},
{
name = top;
pos = (485,654);
}
);
layerId = "66C19249-B420-404C-A3E7-B74793AC6646";
shapes = (
{
closed = 1;
nodes = (
(85,-1,o),
(118,0,o),
(150,0,cs),
(185,0,o),
(219,-1,o),
(254,-6,c),
(254,32,l),
(231,37,o),
(186,51,o),
(186,59,c),
(198,154,o),
(213,258,o),
(229,359,cs),
(258,536,l),
(239,534,l),
(434,19,l),
(503,19,l),
(580,193,o),
(661,350,o),
(758,522,c),
(743,536,l),
(746,496,o),
(748,457,o),
(749,417,c),
(756,216,ls),
(758,170,o),
(758,120,o),
(758,60,cs),
(758,52,o),
(710,38,o),
(686,32,c),
(686,-6,l),
(726,-1,o),
(765,0,o),
(805,0,cs),
(845,0,o),
(884,-1,o),
(924,-6,c),
(924,32,l),
(901,37,o),
(857,52,o),
(856,60,cs),
(849,117,o),
(846,170,o),
(844,218,cs),
(834,419,ls),
(830,490,o),
(828,547,o),
(832,606,c),
(851,613,o),
(867,617,o),
(892,620,c),
(892,658,l),
(871,655,o),
(851,654,o),
(830,654,cs),
(809,654,o),
(789,654,o),
(768,655,c),
(480,108,l),
(509,112,l),
(451,239,o),
(418,326,o),
(386,418,cs),
(302,655,l),
(278,654,o),
(254,654,o),
(230,654,cs),
(205,654,o),
(181,655,o),
(157,658,c),
(157,620,l),
(178,614,o),
(198,604,o),
(216,590,c),
(121,60,ls),
(120,52,o),
(76,38,o),
(53,32,c),
(53,-6,l)
);
}
);
width = 983;
},
{
anchors = (
{
name = bottom;
pos = (426,0);
},
{
name = top;
pos = (426,646);
}
);
layerId = m004;
shapes = (
{
closed = 1;
nodes = (
(72,-1,o),
(100,0,o),
(129,0,cs),
(157,0,o),
(186,-1,o),
(214,-6,c),
(214,17,l),
(193,22,o),
(155,36,o),
(153,44,c),
(161,146,o),
(171,243,o),
(185,355,cs),
(212,572,l),
(198,571,l),
(388,19,l),
(437,19,l),
(512,198,o),
(595,372,o),
(685,550,c),
(672,562,l),
(675,512,o),
(676,462,o),
(678,412,cs),
(684,213,ls),
(686,153,o),
(685,106,o),
(682,45,cs),
(682,37,o),
(641,23,o),
(621,17,c),
(621,-6,l),
(656,-1,o),
(690,0,o),
(725,0,cs),
(759,0,o),
(794,-1,o),
(828,-6,c),
(828,17,l),
(808,22,o),
(768,37,o),
(767,45,cs),
(760,98,o),
(757,155,o),
(755,215,cs),
(747,414,ls),
(744,480,o),
(741,548,o),
(745,618,c),
(764,624,o),
(784,628,o),
(804,630,c),
(804,653,l),
(785,648,o),
(766,646,o),
(747,646,cs),
(727,646,o),
(708,646,o),
(689,647,c),
(423,94,l),
(447,98,l),
(391,230,o),
(356,329,o),
(325,418,cs),
(245,647,l),
(225,646,o),
(205,646,o),
(185,646,cs),
(165,646,o),
(145,648,o),
(125,653,c),
(125,630,l),
(145,626,o),
(167,617,o),
(185,606,c),
(104,45,ls),
(103,37,o),
(64,23,o),
(43,17,c),
(43,-6,l)
);
}
);
width = 877;
},
{
anchors = (
{
name = bottom;
pos = (462,0);
},
{
name = top;
pos = (462,646);
}
);
layerId = "44D59E61-3B4F-4F98-A7D7-4CA7F8682DBB";
shapes = (
{
closed = 1;
nodes = (
(64,-1,o),
(97,0,o),
(131,0,cs),
(164,0,o),
(197,-1,o),
(230,-6,c),
(230,31,l),
(206,36,o),
(162,51,o),
(162,59,cs),
(170,163,o),
(183,251,o),
(200,355,cs),
(226,514,l),
(205,512,l),
(408,19,l),
(475,19,l),
(552,187,o),
(630,338,o),
(721,500,c),
(707,502,l),
(708,472,o),
(710,442,o),
(711,412,cs),
(717,213,ls),
(719,157,o),
(719,108,o),
(716,59,cs),
(716,51,o),
(672,35,o),
(648,31,c),
(648,-6,l),
(693,-1,o),
(739,0,o),
(784,0,cs),
(829,0,o),
(875,-1,o),
(920,-6,c),
(920,27,l),
(898,31,o),
(852,51,o),
(851,59,cs),
(845,107,o),
(843,158,o),
(840,215,cs),
(831,414,ls),
(828,479,o),
(826,536,o),
(829,602,c),
(849,607,o),
(868,611,o),
(887,613,c),
(887,650,l),
(864,647,o),
(840,646,o),
(817,646,cs),
(793,646,o),
(770,646,o),
(746,647,c),
(472,131,l),
(501,137,l),
(446,247,o),
(408,334,o),
(373,421,cs),
(280,648,l),
(254,646,o),
(228,646,o),
(202,646,cs),
(176,646,o),
(150,647,o),
(124,650,c),
(124,613,l),
(148,609,o),
(170,597,o),
(189,584,c),
(99,59,ls),
(98,51,o),
(54,37,o),
(31,31,c),
(31,-6,l)
);
}
);
width = 955;
}
);
metricLeft = "=H*0.8";
metricRight = "=H*0.9";
unicode = 77;
userData = {
KernOnName = M;
};
},
{
glyphname = N;
kernLeft = KO_N;
kernRight = KO_N;
lastChange = "2025-03-15 12:21:31 +0000";
layers = (
{
anchors = (
{
name = bottom;
pos = (406,0);
},
{
name = top;
pos = (406,646);
}
);
layerId = m01;
shapes = (
{
closed = 1;
nodes = (
(696,-9,l),
(688,90,o),
(687,180,o),
(687,278,cs),
(687,396,ls),
(687,459,o),
(689,523,o),
(692,593,cs),
(693,601,o),
(737,614,o),
(760,619,c),
(760,650,l),
(730,647,o),
(699,646,o),
(669,646,cs),
(639,646,o),
(608,647,o),
(578,650,c),
(578,619,l),
(601,613,o),
(646,601,o),
(646,593,cs),
(646,92,l),
(666,104,l),
(552,211,o),
(486,284,o),
(422,356,cs),
(315,476,ls),
(265,533,o),
(226,578,o),
(171,648,c),
(152,647,o),
(133,646,o),
(114,646,cs),
(94,646,o),
(75,647,o),
(56,650,c),
(56,619,l),
(76,613,o),
(98,604,o),
(116,594,c),
(118,528,o),
(118,461,o),
(118,390,cs),
(118,270,ls),
(118,195,o),
(118,121,o),
(116,54,cs),
(116,48,o),
(71,31,o),
(48,26,c),
(48,-5,l),
(78,0,o),
(107,0,o),
(137,0,cs),
(167,0,o),
(196,0,o),
(226,-5,c),
(226,26,l),
(203,31,o),
(158,46,o),
(158,54,cs),
(158,568,l),
(137,559,l),
(650,-9,l)
);
}
);
width = 808;
},
{
anchors = (
{
name = bottom;
pos = (417,0);
},
{
name = top;
pos = (417,654);
}
);
layerId = "66C19249-B420-404C-A3E7-B74793AC6646";
shapes = (
{
closed = 1;
nodes = (
(713,-9,l),
(706,67,o),
(704,145,o),
(704,281,cs),
(704,401,ls),
(704,455,o),
(706,513,o),
(710,594,cs),
(710,602,o),
(755,615,o),
(778,620,c),
(778,658,l),
(746,655,o),
(713,654,o),
(681,654,cs),
(648,654,o),
(616,655,o),
(583,658,c),
(583,620,l),
(606,614,o),
(651,602,o),
(651,594,cs),
(651,109,l),
(676,122,l),
(560,228,o),
(507,288,o),
(446,356,cs),
(339,476,ls),
(288,533,o),
(240,588,o),
(189,656,c),
(168,655,o),
(146,654,o),
(125,654,cs),
(104,654,o),
(82,656,o),
(61,658,c),
(61,620,l),
(82,615,o),
(104,606,o),
(121,595,c),
(123,543,o),
(123,486,o),
(123,395,cs),
(123,273,ls),
(123,176,o),
(123,115,o),
(121,60,cs),
(121,52,o),
(76,39,o),
(53,33,c),
(53,-5,l),
(85,-1,o),
(117,0,o),
(149,0,cs),
(180,0,o),
(212,-1,o),
(244,-5,c),
(244,33,l),
(221,38,o),
(176,52,o),
(176,60,cs),
(176,566,l),
(152,557,l),
(656,-9,l)
);
}
);
width = 831;
},
{
anchors = (
{
name = bottom;
pos = (353,0);
},
{
name = top;
pos = (353,646);
}
);
layerId = m004;
shapes = (
{
closed = 1;
nodes = (
(602,-9,l),
(594,90,o),
(593,180,o),
(593,278,cs),
(593,396,ls),
(593,460,o),
(595,525,o),
(600,601,cs),
(601,609,o),
(641,622,o),
(661,627,c),
(661,650,l),
(634,647,o),
(608,646,o),
(581,646,cs),
(554,646,o),
(528,647,o),
(501,650,c),
(501,627,l),
(522,621,o),
(562,609,o),
(562,601,cs),
(562,96,l),
(583,105,l),
(474,220,o),
(421,289,o),
(370,356,cs),
(279,476,ls),
(238,530,o),
(194,590,o),
(153,648,c),
(136,646,o),
(119,646,o),
(102,646,cs),
(84,646,o),
(67,648,o),
(50,650,c),
(50,627,l),
(68,622,o),
(88,613,o),
(104,602,c),
(107,533,o),
(106,462,o),
(106,390,cs),
(106,270,ls),
(106,194,o),
(106,118,o),
(104,45,cs),
(104,34,o),
(64,22,o),
(43,17,c),
(43,-6,l),
(69,-1,o),
(95,0,o),
(121,0,cs),
(146,0,o),
(172,-1,o),
(198,-6,c),
(198,17,l),
(177,22,o),
(137,37,o),
(137,45,cs),
(137,576,l),
(118,569,l),
(563,-9,l)
);
}
);
width = 704;
},
{
anchors = (
{
name = bottom;
pos = (392,0);
},
{
name = top;
pos = (392,646);
}
);
layerId = "44D59E61-3B4F-4F98-A7D7-4CA7F8682DBB";
shapes = (
{
closed = 1;
nodes = (
(685,-9,l),
(677,90,o),
(676,180,o),
(676,278,cs),
(676,390,ls),
(676,453,o),
(678,517,o),
(681,587,cs),
(682,595,o),
(726,608,o),
(749,613,c),
(749,650,l),
(718,647,o),
(686,646,o),
(655,646,cs),
(624,646,o),
(592,647,o),
(561,650,c),
(561,613,l),
(584,607,o),
(629,595,o),
(629,587,cs),
(629,92,l),
(658,127,l),
(569,213,o),
(502,284,o),
(438,356,cs),
(331,476,ls),
(281,533,o),
(242,578,o),
(187,648,c),
(162,647,o),
(138,646,o),
(113,646,cs),
(88,646,o),
(64,647,o),
(39,650,c),
(39,613,l),
(59,607,o),
(80,598,o),
(98,588,c),
(101,522,o),
(101,455,o),
(101,384,cs),
(101,276,ls),
(101,201,o),
(101,127,o),
(99,60,cs),
(99,54,o),
(54,37,o),
(31,32,c),
(31,-5,l),
(62,0,o),
(92,0,o),
(123,0,cs),
(154,0,o),
(184,0,o),
(215,-5,c),
(215,32,l),
(192,37,o),
(147,52,o),
(147,60,cs),
(147,568,l),
(118,529,l),
(604,-9,l)
);
}
);
width = 780;
}
);
metricLeft = "=H*0.8";
metricRight = "=H*0.8";
unicode = 78;
userData = {
KernOnName = N;
};
},
{
glyphname = O;
kernLeft = KO_O;
kernRight = KO_O;
lastChange = "2025-03-15 12:22:51 +0000";
layers = (
{
anchors = (
{
name = bottom;
pos = (411,0);
},
{
name = center;
pos = (411,323);
},
{
name = ogonek;
pos = (464,10);
},
{
name = top;
pos = (411,646);
},
{
name = topleft;
pos = (20,646);
},
{
name = topright;
pos = (801,646);
}
);
background = {
shapes = (
{
closed = 1;
nodes = (
(519,45,o),
(474,33,o),
(429,33,cs),
(330,33,o),
(230,89,o),
(173,188,cs),
(144,238,o),
(131,291,o),
(131,344,cs),
(131,441,o),
(178,533,o),
(263,582,cs),
(303,605,o),
(347,616,o),
(391,616,cs),
(491,616,o),
(591,560,o),
(648,462,cs),
(677,412,o),
(690,358,o),
(690,305,cs),
(690,208,o),
(643,117,o),
(559,68,cs)
);
}
);
};
guides = (
{
angle = 90;
pos = (411,325);
}
);
layerId = m01;
shapes = (
{
closed = 1;
nodes = (
(607,-11,o),
(766,140,o),
(766,325,cs),
(766,510,o),
(607,660,o),
(411,660,cs),
(214,660,o),
(55,510,o),
(55,325,cs),
(55,140,o),
(214,-11,o),
(411,-11,cs)
);
},
{
closed = 1;
nodes = (
(277,33,o),
(148,176,o),
(148,344,cs),
(148,501,o),
(259,616,o),
(392,616,cs),
(567,616,o),
(673,448,o),
(673,305,cs),
(673,145,o),
(558,33,o),
(428,33,cs)
);
}
);
width = 821;
},
{
anchors = (
{
name = bottom;
pos = (426,0);
},
{
name = center;
pos = (426,327);
},
{
name = ogonek;
pos = (474,10);
},
{
name = top;
pos = (426,654);
},
{
name = topleft;
pos = (25,654);
},
{
name = topright;
pos = (827,654);
}
);
guides = (
{
angle = 90;
pos = (426,329);
}
);
layerId = "66C19249-B420-404C-A3E7-B74793AC6646";
shapes = (
{
closed = 1;
nodes = (
(624,-11,o),
(786,142,o),
(786,329,cs),
(786,516,o),
(624,668,o),
(426,668,cs),
(227,668,o),
(66,516,o),
(66,329,cs),
(66,142,o),
(227,-11,o),
(426,-11,cs)
);
},
{
closed = 1;
nodes = (
(266,48,o),
(167,207,o),
(167,337,cs),
(167,512,o),
(301,609,o),
(417,609,cs),
(585,609,o),
(685,452,o),
(685,321,cs),
(685,146,o),
(551,48,o),
(435,48,cs)
);
}
);
width = 852;
},
{
anchors = (
{
name = bottom;
pos = (361,0);
},
{
name = center;
pos = (361,323);
},
{
name = ogonek;
pos = (411,10);
},
{
name = top;
pos = (361,646);
},
{
name = topleft;
pos = (21,646);
},
{
name = topright;
pos = (701,646);
}
);
guides = (
{
angle = 90;
pos = (361,325);
},
{
angle = 38.3682;
pos = (466,470);
showMeasurement = 1;
}
);
layerId = m004;
shapes = (
{
closed = 1;
nodes = (
(533,-11,o),
(672,140,o),
(672,325,cs),
(672,510,o),
(533,660,o),
(361,660,cs),
(189,660,o),
(50,510,o),
(50,325,cs),
(50,140,o),
(189,-11,o),
(361,-11,cs)
);
},
{
closed = 1;
nodes = (
(247,34,o),
(122,189,o),
(122,367,cs),
(122,506,o),
(214,615,o),
(331,615,cs),
(475,615,o),
(600,461,o),
(600,282,cs),
(600,145,o),
(506,34,o),
(391,34,cs)
);
}
);
width = 722;
},
{
anchors = (
{
name = bottom;
pos = (424,0);
},
{
name = center;
pos = (424,323);
},
{
name = ogonek;
pos = (477,10);
},
{
name = top;
pos = (424,646);
},
{
name = topleft;
pos = (33,646);
},
{
name = topright;
pos = (814,646);
}
);
layerId = "44D59E61-3B4F-4F98-A7D7-4CA7F8682DBB";
shapes = (
{
closed = 1;
nodes = (
(637,-11,o),
(808,140,o),
(808,325,cs),
(808,510,o),
(637,660,o),
(424,660,cs),
(210,660,o),
(39,510,o),
(39,325,cs),
(39,140,o),
(210,-11,o),
(424,-11,cs)
);
},
{
closed = 1;
nodes = (
(313,39,o),
(205,179,o),
(205,344,cs),
(205,497,o),
(297,610,o),
(408,610,cs),
(554,610,o),
(642,445,o),
(642,305,cs),
(642,149,o),
(546,39,o),
(438,39,cs)
);
}
);
width = 847;
}
);
unicode = 79;
userData = {
KernOnName = O;
};
},
{
glyphname = Oslash;
kernLeft = KO_O;
kernRight = KO_O;
lastChange = "2025-03-15 12:24:51 +0000";
layers = (
{
anchors = (
{
name = bottom;
pos = (411,0);
},
{
name = top;
pos = (411,646);
}
);
layerId = m01;
shapes = (
{
closed = 1;
nodes = (
(607,-11,o),
(766,140,o),
(766,325,cs),
(766,510,o),
(607,660,o),
(411,660,cs),
(214,660,o),
(55,510,o),
(55,325,cs),
(55,140,o),
(214,-11,o),
(411,-11,cs)
);
},
{
closed = 1;
nodes = (
(277,33,o),
(148,176,o),
(148,344,cs),
(148,501,o),
(259,616,o),
(392,616,cs),
(567,616,o),
(673,448,o),
(673,305,cs),
(673,145,o),
(558,33,o),
(428,33,cs)
);
},
{
closed = 1;
nodes = (
(679,644,l),
(645,670,l),
(144,4,l),
(177,-21,l)
);
}
);
width = 821;
},
{
anchors = (
{
name = bottom;
pos = (426,0);
},
{
name = top;
pos = (426,654);
}
);
background = {
anchors = (
{
name = bottom;
pos = (426,0);
},
{
name = center;
pos = (426,327);
},
{
name = ogonek;
pos = (474,10);
},
{
name = top;
pos = (426,654);
},
{
name = topleft;
pos = (25,654);
},
{
name = topright;
pos = (827,654);
}
);
shapes = (
{
closed = 1;
nodes = (
(624,-11,o),
(786,142,o),
(786,329,cs),
(786,516,o),
(624,668,o),
(426,668,cs),
(227,668,o),
(66,516,o),
(66,329,cs),
(66,142,o),
(227,-11,o),
(426,-11,cs)
);
},
{
closed = 1;
nodes = (
(269,48,o),
(172,207,o),
(172,337,cs),
(172,512,o),
(303,609,o),
(418,609,cs),
(582,609,o),
(680,452,o),
(680,321,cs),
(680,146,o),
(549,48,o),
(434,48,cs)
);
}
);
};
layerId = "66C19249-B420-404C-A3E7-B74793AC6646";
shapes = (
{
closed = 1;
nodes = (
(624,-11,o),
(786,142,o),
(786,329,cs),
(786,516,o),
(624,668,o),
(426,668,cs),
(227,668,o),
(66,516,o),
(66,329,cs),
(66,142,o),
(227,-11,o),
(426,-11,cs)
);
},
{
closed = 1;
nodes = (
(269,48,o),
(172,207,o),
(172,337,cs),
(172,512,o),
(303,609,o),
(418,609,cs),
(582,609,o),
(680,452,o),
(680,321,cs),
(680,146,o),
(549,48,o),
(434,48,cs)
);
},
{
closed = 1;
nodes = (
(700,643,l),
(654,677,l),
(155,13,l),
(201,-21,l)
);
}
);
width = 852;
},
{
anchors = (
{
name = bottom;
pos = (361,0);
},
{
name = top;
pos = (361,646);
}
);
background = {
anchors = (
{
name = bottom;
pos = (361,0);
},
{
name = center;
pos = (361,323);
},
{
name = ogonek;
pos = (411,10);
},
{
name = top;
pos = (361,646);
},
{
name = topleft;
pos = (21,646);
},
{
name = topright;
pos = (701,646);
}
);
shapes = (
{
closed = 1;
nodes = (
(533,-11,o),
(672,140,o),
(672,325,cs),
(672,510,o),
(533,660,o),
(361,660,cs),
(189,660,o),
(50,510,o),
(50,325,cs),
(50,140,o),
(189,-11,o),
(361,-11,cs)
);
},
{
closed = 1;
nodes = (
(247,34,o),
(122,189,o),
(122,367,cs),
(122,506,o),
(214,615,o),
(331,615,cs),
(475,615,o),
(600,461,o),
(600,282,cs),
(600,145,o),
(506,34,o),
(391,34,cs)
);
}
);
};
layerId = m004;
shapes = (
{
closed = 1;
nodes = (
(533,-11,o),
(672,140,o),
(672,325,cs),
(672,510,o),
(533,660,o),
(361,660,cs),
(189,660,o),
(50,510,o),
(50,325,cs),
(50,140,o),
(189,-11,o),
(361,-11,cs)
);
},
{
closed = 1;
nodes = (
(247,34,o),
(122,189,o),
(122,367,cs),
(122,506,o),
(214,615,o),
(331,615,cs),
(475,615,o),
(600,461,o),
(600,282,cs),
(600,145,o),
(506,34,o),
(391,34,cs)
);
},
{
closed = 1;
nodes = (
(630,650,l),
(600,673,l),
(88,2,l),
(119,-21,l)
);
}
);
width = 722;
},
{
anchors = (
{
name = bottom;
pos = (424,0);
},
{
name = top;
pos = (424,646);
}
);
background = {
anchors = (
{
name = bottom;
pos = (434,0);
},
{
name = center;
pos = (434,323);
},
{
name = ogonek;
pos = (487,10);
},
{
name = top;
pos = (434,646);
},
{
name = topleft;
pos = (43,646);
},
{
name = topright;
pos = (824,646);
}
);
shapes = (
{
closed = 1;
nodes = (
(637,-11,o),
(808,140,o),
(808,325,cs),
(808,510,o),
(637,660,o),
(424,660,cs),
(210,660,o),
(39,510,o),
(39,325,cs),
(39,140,o),
(210,-11,o),
(424,-11,cs)
);
},
{
closed = 1;
nodes = (
(313,39,o),
(205,179,o),
(205,344,cs),
(205,497,o),
(297,610,o),
(408,610,cs),
(554,610,o),
(642,445,o),
(642,305,cs),
(642,149,o),
(546,39,o),
(438,39,cs)
);
}
);
};
layerId = "44D59E61-3B4F-4F98-A7D7-4CA7F8682DBB";
shapes = (
{
closed = 1;
nodes = (
(637,-11,o),
(808,140,o),
(808,325,cs),
(808,510,o),
(637,660,o),
(424,660,cs),
(210,660,o),
(39,510,o),
(39,325,cs),
(39,140,o),
(210,-11,o),
(424,-11,cs)
);
},
{
closed = 1;
nodes = (
(313,39,o),
(205,179,o),
(205,344,cs),
(205,497,o),
(297,610,o),
(408,610,cs),
(554,610,o),
(642,445,o),
(642,305,cs),
(642,149,o),
(546,39,o),
(438,39,cs)
);
},
{
closed = 1;
nodes = (
(697,641,l),
(653,675,l),
(152,9,l),
(195,-24,l)
);
}
);
width = 847;
}
);
metricLeft = O;
metricRight = O;
unicode = 216;
},
{
glyphname = OE;
kernLeft = KO_O;
kernRight = KO_E;
lastChange = "2025-03-15 18:40:50 +0000";
layers = (
{
anchors = (
{
name = bottom;
pos = (525,0);
},
{
name = top;
pos = (525,646);
}
);
background = {
anchors = (
{
name = bottom;
pos = (744,0);
},
{
name = ogonek;
pos = (942,10);
},
{
name = top;
pos = (768,646);
},
{
name = topleft;
pos = (466,646);
}
);
shapes = (
{
closed = 1;
nodes = (
(977,499,l),
(977,652,l),
(870,648,o),
(769,646,o),
(626,646,cs),
(579,646,o),
(553,647,o),
(533,650,c),
(533,625,l),
(553,620,o),
(571,611,o),
(587,600,c),
(649,606,l),
(852,606,ls),
(889,606,o),
(911,590,o),
(922,558,cs),
(942,499,l)
);
},
{
closed = 1;
nodes = (
(1001,122,l),
(965,122,l),
(929,81,ls),
(901,50,o),
(866,41,o),
(823,41,cs),
(651,41,l),
(587,46,l),
(563,36,o),
(539,26,o),
(515,21,c),
(515,-4,l),
(542,-1,o),
(575,0,o),
(626,0,cs),
(792,0,o),
(850,-2,o),
(948,-11,c)
);
},
{
closed = 1;
nodes = (
(676,22,l),
(670,65,o),
(668,111,o),
(668,214,cs),
(668,419,ls),
(668,530,o),
(670,579,o),
(676,627,c),
(584,627,l),
(590,579,o),
(592,530,o),
(592,419,cs),
(592,214,ls),
(592,111,o),
(590,65,o),
(584,22,c)
);
},
{
closed = 1;
nodes = (
(924,247,l),
(919,276,o),
(918,307,o),
(918,336,cs),
(918,365,o),
(919,396,o),
(924,425,c),
(900,425,l),
(896,403,o),
(884,362,o),
(878,362,cs),
(840,360,o),
(803,359,o),
(765,359,cs),
(651,359,l),
(651,318,l),
(878,318,ls),
(884,318,o),
(895,270,o),
(900,247,c)
);
}
);
};
layerId = m01;
shapes = (
{
closed = 1;
nodes = (
(462,-11,o),
(533,17,o),
(589,63,c),
(588,39,o),
(586,19,o),
(584,0,c),
(676,0,l),
(670,48,o),
(668,99,o),
(668,214,cs),
(668,419,ls),
(668,540,o),
(670,594,o),
(676,646,c),
(584,646,l),
(587,626,o),
(589,606,o),
(589,586,c),
(533,632,o),
(462,660,o),
(386,660,cs),
(203,660,o),
(55,510,o),
(55,325,cs),
(55,140,o),
(203,-11,o),
(386,-11,cs)
);
},
{
closed = 1;
nodes = (
(268,33,o),
(148,176,o),
(148,344,cs),
(148,501,o),
(251,616,o),
(376,616,cs),
(474,616,o),
(548,562,o),
(592,492,c),
(592,124,l),
(550,67,o),
(482,33,o),
(409,33,cs)
);
},
{
closed = 1;
nodes = (
(1001,122,l),
(965,122,l),
(929,81,ls),
(902,51,o),
(871,41,o),
(831,41,cs),
(778,41,o),
(724,41,o),
(671,50,c),
(626,0,l),
(792,0,o),
(850,-2,o),
(948,-11,c)
);
},
{
closed = 1;
nodes = (
(977,499,l),
(977,652,l),
(870,648,o),
(769,646,o),
(626,646,c),
(649,606,l),
(852,606,ls),
(889,606,o),
(911,590,o),
(922,558,cs),
(942,499,l)
);
},
{
closed = 1;
nodes = (
(924,247,l),
(919,276,o),
(918,307,o),
(918,336,cs),
(918,365,o),
(919,396,o),
(924,425,c),
(900,425,l),
(896,403,o),
(884,362,o),
(878,362,cs),
(840,360,o),
(803,359,o),
(765,359,cs),
(651,359,l),
(651,318,l),
(878,318,ls),
(884,318,o),
(895,270,o),
(900,247,c)
);
}
);
width = 1049;
},
{
anchors = (
{
name = bottom;
pos = (542,0);
},
{
name = top;
pos = (542,654);
}
);
guides = (
{
pos = (580,586);
}
);
layerId = "66C19249-B420-404C-A3E7-B74793AC6646";
shapes = (
{
closed = 1;
nodes = (
(482,-11,o),
(557,20,o),
(615,73,c),
(614,44,o),
(612,22,o),
(609,0,c),
(710,0,l),
(704,49,o),
(702,100,o),
(702,217,cs),
(702,424,ls),
(702,547,o),
(704,601,o),
(710,654,c),
(609,654,l),
(611,633,o),
(613,611,o),
(614,586,c),
(557,637,o),
(482,668,o),
(401,668,cs),
(216,668,o),
(66,516,o),
(66,329,cs),
(66,142,o),
(216,-11,o),
(401,-11,cs)
);
},
{
closed = 1;
nodes = (
(262,48,o),
(172,207,o),
(172,337,cs),
(172,512,o),
(289,609,o),
(407,609,cs),
(501,609,o),
(580,544,o),
(617,465,c),
(617,173,l),
(577,92,o),
(493,48,o),
(418,48,cs)
);
},
{
closed = 1;
nodes = (
(1026,123,l),
(986,123,l),
(954,86,ls),
(935,64,o),
(898,57,o),
(855,57,cs),
(805,57,o),
(755,57,o),
(705,60,c),
(651,0,l),
(817,0,o),
(875,-2,o),
(973,-11,c)
);
},
{
closed = 1;
nodes = (
(1002,505,l),
(1002,660,l),
(895,656,o),
(794,654,o),
(651,654,c),
(674,597,l),
(873,597,ls),
(910,597,o),
(937,582,o),
(945,558,cs),
(963,505,l)
);
},
{
closed = 1;
nodes = (
(949,250,l),
(944,280,o),
(943,310,o),
(943,340,cs),
(943,370,o),
(944,400,o),
(949,430,c),
(915,430,l),
(911,411,o),
(903,374,o),
(897,374,cs),
(860,371,o),
(823,370,o),
(786,370,cs),
(671,370,l),
(671,314,l),
(897,314,ls),
(903,314,o),
(911,272,o),
(915,250,c)
);
}
);
width = 1079;
},
{
anchors = (
{
name = bottom;
pos = (469,0);
},
{
name = top;
pos = (469,646);
}
);
guides = (
{
pos = (602,646);
}
);
layerId = m004;
shapes = (
{
closed = 1;
nodes = (
(402,-11,o),
(463,17,o),
(511,63,c),
(510,39,o),
(508,19,o),
(506,0,c),
(593,0,l),
(586,48,o),
(584,99,o),
(584,214,cs),
(584,419,ls),
(584,540,o),
(586,594,o),
(593,646,c),
(506,646,l),
(509,626,o),
(511,607,o),
(511,587,c),
(463,633,o),
(402,660,o),
(336,660,cs),
(178,660,o),
(50,510,o),
(50,325,cs),
(50,140,o),
(178,-11,o),
(336,-11,cs)
);
},
{
closed = 1;
nodes = (
(236,34,o),
(122,189,o),
(122,367,cs),
(122,506,o),
(206,615,o),
(320,615,cs),
(395,615,o),
(469,565,o),
(513,492,c),
(513,118,l),
(479,66,o),
(427,34,o),
(368,34,cs)
);
},
{
closed = 1;
nodes = (
(871,122,l),
(840,122,l),
(784,57,ls),
(766,37,o),
(745,25,o),
(705,25,cs),
(666,25,o),
(627,25,o),
(588,44,c),
(545,0,l),
(662,0,o),
(720,-2,o),
(818,-11,c)
);
},
{
closed = 1;
nodes = (
(847,499,l),
(847,652,l),
(740,648,o),
(639,646,o),
(545,646,c),
(572,621,l),
(726,621,ls),
(763,621,o),
(779,609,o),
(787,585,cs),
(816,499,l)
);
},
{
closed = 1;
nodes = (
(794,247,l),
(789,276,o),
(788,307,o),
(788,336,cs),
(788,365,o),
(789,396,o),
(794,425,c),
(774,425,l),
(769,401,o),
(755,354,o),
(749,354,cs),
(718,352,o),
(687,351,o),
(656,351,cs),
(564,351,l),
(564,324,l),
(749,324,ls),
(755,324,o),
(768,273,o),
(774,247,c)
);
}
);
width = 914;
},
{
anchors = (
{
name = bottom;
pos = (538,0);
},
{
name = top;
pos = (538,646);
}
);
guides = (
{
angle = 68.2729;
pos = (988,56);
},
{
pos = (978,128);
}
);
layerId = "44D59E61-3B4F-4F98-A7D7-4CA7F8682DBB";
shapes = (
{
closed = 1;
nodes = (
(453,-11,o),
(525,17,o),
(582,63,c),
(581,39,o),
(579,19,o),
(577,0,c),
(719,0,l),
(713,48,o),
(711,99,o),
(711,214,cs),
(711,419,ls),
(711,540,o),
(713,594,o),
(719,646,c),
(577,646,l),
(580,626,o),
(582,606,o),
(582,586,c),
(525,632,o),
(453,660,o),
(375,660,cs),
(190,660,o),
(39,510,o),
(39,325,cs),
(39,140,o),
(190,-11,o),
(375,-11,cs)
);
},
{
closed = 1;
nodes = (
(302,39,o),
(205,179,o),
(205,344,cs),
(205,497,o),
(293,610,o),
(400,610,cs),
(484,610,o),
(547,557,o),
(585,489,c),
(585,128,l),
(549,72,o),
(491,39,o),
(428,39,cs)
);
},
{
closed = 1;
nodes = (
(1022,128,l),
(983,128,l),
(951,87,ls),
(926,56,o),
(893,47,o),
(853,47,cs),
(799,47,o),
(743,47,o),
(689,56,c),
(644,0,l),
(810,0,o),
(868,-2,o),
(966,-11,c)
);
},
{
closed = 1;
nodes = (
(995,493,l),
(995,652,l),
(888,648,o),
(787,646,o),
(644,646,c),
(667,600,l),
(870,600,ls),
(907,600,o),
(929,584,o),
(940,552,cs),
(960,493,l)
);
},
{
closed = 1;
nodes = (
(942,244,l),
(937,274,o),
(936,307,o),
(936,336,cs),
(936,365,o),
(937,398,o),
(942,428,c),
(908,428,l),
(904,406,o),
(892,365,o),
(886,365,cs),
(848,363,o),
(811,362,o),
(773,362,cs),
(669,362,l),
(669,315,l),
(886,315,ls),
(892,315,o),
(903,267,o),
(908,244,c)
);
}
);
width = 1053;
}
);
metricLeft = O;
metricRight = E;
unicode = 338;
},
{
glyphname = P;
kernLeft = KO_H;
kernRight = KO_P;
lastChange = "2025-03-15 12:30:54 +0000";
layers = (
{
anchors = (
{
name = bottom;
pos = (300,0);
},
{
name = top;
pos = (300,646);
}
);
layerId = m01;
shapes = (
{
closed = 1;
nodes = (
(98,-1,o),
(135,0,o),
(173,0,cs),
(222,0,o),
(271,-1,o),
(320,-6,c),
(320,25,l),
(284,30,o),
(213,45,o),
(212,53,cs),
(209,86,o),
(208,132,o),
(208,214,cs),
(208,419,ls),
(208,526,o),
(210,576,o),
(216,627,c),
(124,627,l),
(130,566,o),
(132,516,o),
(132,419,cs),
(132,214,ls),
(132,132,o),
(131,86,o),
(128,53,cs),
(127,45,o),
(82,31,o),
(60,25,c),
(60,-6,l)
);
},
{
closed = 1;
nodes = (
(446,219,o),
(540,334,o),
(540,443,cs),
(540,571,o),
(442,650,o),
(290,650,cs),
(258,650,o),
(217,646,o),
(166,646,cs),
(133,646,o),
(100,648,o),
(67,650,c),
(67,619,l),
(88,612,o),
(108,604,o),
(127,594,c),
(182,605,l),
(217,609,o),
(240,611,o),
(263,611,cs),
(367,611,o),
(447,542,o),
(447,433,cs),
(447,347,o),
(395,258,o),
(319,258,cs),
(301,258,l),
(301,224,l),
(316,221,o),
(327,219,o),
(344,219,cs)
);
}
);
width = 584;
},
{
anchors = (
{
name = bottom;
pos = (310,0);
},
{
name = top;
pos = (310,654);
}
);
background = {
shapes = (
{
closed = 1;
nodes = (
(114,-1,o),
(158,0,o),
(201,0,cs),
(243,0,o),
(287,-1,o),
(330,-6,c),
(330,38,l),
(295,43,o),
(227,58,o),
(226,66,cs),
(223,102,o),
(223,146,o),
(223,217,cs),
(223,424,ls),
(223,533,o),
(224,583,o),
(231,635,c),
(130,635,l),
(136,583,o),
(138,533,o),
(138,424,cs),
(138,217,ls),
(138,146,o),
(137,102,o),
(134,66,cs),
(133,58,o),
(92,44,o),
(71,38,c),
(71,-6,l)
);
}
);
};
layerId = "66C19249-B420-404C-A3E7-B74793AC6646";
shapes = (
{
closed = 1;
nodes = (
(104,-1,o),
(142,0,o),
(180,0,cs),
(231,0,o),
(283,-1,o),
(334,-5,c),
(334,33,l),
(298,38,o),
(227,53,o),
(226,61,cs),
(223,102,o),
(223,146,o),
(223,217,cs),
(223,424,ls),
(223,533,o),
(224,583,o),
(231,635,c),
(130,635,l),
(136,563,o),
(138,513,o),
(138,424,cs),
(138,217,ls),
(138,146,o),
(137,102,o),
(134,61,cs),
(133,53,o),
(89,39,o),
(66,33,c),
(66,-5,l)
);
},
{
closed = 1;
nodes = (
(463,222,o),
(560,339,o),
(560,448,cs),
(560,578,o),
(459,658,o),
(302,658,cs),
(269,658,o),
(228,654,o),
(176,654,cs),
(142,654,o),
(107,656,o),
(73,658,c),
(73,620,l),
(96,614,o),
(116,606,o),
(133,595,c),
(193,591,l),
(228,595,o),
(250,597,o),
(273,597,cs),
(376,597,o),
(454,533,o),
(454,433,cs),
(454,353,o),
(404,271,o),
(329,271,cs),
(309,271,l),
(309,227,l),
(326,224,o),
(338,222,o),
(357,222,cs)
);
}
);
width = 613;
},
{
anchors = (
{
name = bottom;
pos = (262,0);
},
{
name = top;
pos = (262,646);
}
);
layerId = m004;
shapes = (
{
closed = 1;
nodes = (
(88,-1,o),
(122,0,o),
(156,0,cs),
(202,0,o),
(248,-1,o),
(294,-6,c),
(294,17,l),
(261,22,o),
(198,37,o),
(197,45,cs),
(192,83,o),
(191,129,o),
(191,214,cs),
(191,419,ls),
(191,526,o),
(193,576,o),
(199,627,c),
(113,627,l),
(119,576,o),
(121,526,o),
(121,419,cs),
(121,214,ls),
(121,129,o),
(118,83,o),
(115,45,cs),
(114,37,o),
(75,23,o),
(54,17,c),
(54,-6,l)
);
},
{
closed = 1;
nodes = (
(395,219,o),
(476,334,o),
(476,443,cs),
(476,571,o),
(392,650,o),
(259,650,cs),
(231,650,o),
(196,646,o),
(152,646,cs),
(122,646,o),
(92,648,o),
(62,650,c),
(62,627,l),
(82,620,o),
(101,612,o),
(116,602,c),
(174,620,l),
(201,623,o),
(219,625,o),
(238,625,cs),
(328,625,o),
(396,551,o),
(396,435,cs),
(396,343,o),
(352,248,o),
(287,248,cs),
(267,248,l),
(267,224,l),
(280,221,o),
(291,219,o),
(306,219,cs)
);
}
);
width = 516;
},
{
anchors = (
{
name = bottom;
pos = (304,0);
},
{
name = top;
pos = (304,646);
}
);
layerId = "44D59E61-3B4F-4F98-A7D7-4CA7F8682DBB";
shapes = (
{
closed = 1;
nodes = (
(77,-1,o),
(114,0,o),
(172,0,cs),
(241,0,o),
(300,-1,o),
(349,-6,c),
(349,31,l),
(313,36,o),
(242,51,o),
(241,59,cs),
(238,92,o),
(237,138,o),
(237,220,cs),
(237,419,ls),
(237,526,o),
(239,576,o),
(245,627,c),
(103,627,l),
(109,566,o),
(111,516,o),
(111,419,cs),
(111,220,ls),
(111,138,o),
(110,92,o),
(107,59,cs),
(106,51,o),
(61,37,o),
(39,31,c),
(39,-6,l)
);
},
{
closed = 1;
nodes = (
(471,219,o),
(573,334,o),
(573,443,cs),
(573,571,o),
(467,650,o),
(303,650,cs),
(269,650,o),
(225,646,o),
(170,646,cs),
(112,646,o),
(79,648,o),
(46,650,c),
(46,613,l),
(67,606,o),
(87,598,o),
(106,588,c),
(186,599,l),
(215,603,o),
(235,605,o),
(253,605,cs),
(341,605,o),
(407,538,o),
(407,433,cs),
(407,350,o),
(364,264,o),
(305,264,cs),
(300,264,l),
(300,224,l),
(320,221,o),
(342,219,o),
(362,219,cs)
);
}
);
width = 604;
}
);
metricLeft = H;
metricRight = "=O*0.8";
unicode = 80;
},
{
glyphname = Thorn;
kernRight = Thorn;
lastChange = "2025-03-15 18:36:55 +0000";
layers = (
{
anchors = (
{
name = bottom;
pos = (274,0);
},
{
name = top;
pos = (274,646);
}
);
layerId = m01;
shapes = (
{
closed = 1;
nodes = (
(97,-1,o),
(134,0,o),
(170,0,cs),
(221,0,o),
(272,-1,o),
(323,-6,c),
(323,25,l),
(287,31,o),
(215,45,o),
(215,53,cs),
(210,102,o),
(210,158,o),
(210,214,cs),
(210,413,ls),
(210,475,o),
(210,538,o),
(215,593,cs),
(216,601,o),
(260,614,o),
(283,619,c),
(283,650,l),
(246,647,o),
(208,646,o),
(171,646,cs),
(134,646,o),
(96,647,o),
(60,650,c),
(60,619,l),
(83,614,o),
(128,601,o),
(128,593,cs),
(134,537,o),
(134,475,o),
(134,413,cs),
(134,214,ls),
(134,158,o),
(134,102,o),
(129,53,cs),
(129,45,o),
(84,31,o),
(61,25,c),
(61,-6,l)
);
},
{
closed = 1;
nodes = (
(415,142,o),
(515,202,o),
(515,338,cs),
(515,428,o),
(475,517,o),
(279,517,cs),
(161,517,l),
(161,476,l),
(256,476,ls),
(360,476,o),
(422,420,o),
(422,335,cs),
(422,244,o),
(350,181,o),
(247,181,cs),
(221,181,o),
(195,185,o),
(161,192,c),
(161,146,l),
(202,143,o),
(237,142,o),
(270,142,cs)
);
}
);
width = 570;
},
{
anchors = (
{
name = bottom;
pos = (286,0);
},
{
name = top;
pos = (286,654);
}
);
layerId = "66C19249-B420-404C-A3E7-B74793AC6646";
shapes = (
{
closed = 1;
nodes = (
(105,0,o),
(144,0,o),
(183,0,cs),
(234,0,o),
(284,0,o),
(335,-5,c),
(335,33,l),
(299,39,o),
(228,53,o),
(227,61,cs),
(223,116,o),
(223,167,o),
(223,217,cs),
(223,418,ls),
(223,474,o),
(223,531,o),
(228,594,cs),
(229,602,o),
(273,615,o),
(296,620,c),
(296,658,l),
(258,655,o),
(219,654,o),
(181,654,cs),
(143,654,o),
(104,655,o),
(66,658,c),
(66,620,l),
(89,615,o),
(133,602,o),
(134,594,cs),
(138,531,o),
(138,475,o),
(138,418,cs),
(138,217,ls),
(138,167,o),
(138,116,o),
(134,61,cs),
(133,53,o),
(89,39,o),
(66,33,c),
(66,-5,l)
);
},
{
closed = 1;
nodes = (
(442,140,o),
(550,202,o),
(550,342,cs),
(550,434,o),
(506,526,o),
(308,526,cs),
(171,526,l),
(171,470,l),
(270,470,ls),
(380,470,o),
(444,416,o),
(444,335,cs),
(444,254,o),
(368,197,o),
(261,197,cs),
(235,197,o),
(206,201,o),
(171,209,c),
(171,144,l),
(215,141,o),
(251,140,o),
(287,140,cs)
);
}
);
width = 616;
},
{
anchors = (
{
name = bottom;
pos = (243,0);
},
{
name = top;
pos = (243,646);
}
);
layerId = m004;
shapes = (
{
closed = 1;
nodes = (
(89,-1,o),
(124,0,o),
(159,0,cs),
(204,0,o),
(249,-1,o),
(294,-5,c),
(294,18,l),
(262,24,o),
(198,38,o),
(197,46,cs),
(191,99,o),
(191,157,o),
(191,214,cs),
(191,413,ls),
(191,476,o),
(191,540,o),
(197,601,cs),
(198,609,o),
(237,622,o),
(258,627,c),
(258,650,l),
(224,647,o),
(190,646,o),
(156,646,cs),
(122,646,o),
(88,647,o),
(54,650,c),
(54,627,l),
(75,622,o),
(114,609,o),
(115,601,cs),
(121,540,o),
(121,476,o),
(121,413,cs),
(121,214,ls),
(121,157,o),
(121,99,o),
(115,46,cs),
(114,38,o),
(75,24,o),
(54,18,c),
(54,-5,l)
);
},
{
closed = 1;
nodes = (
(380,145,o),
(471,204,o),
(471,337,cs),
(471,426,o),
(434,513,o),
(250,513,cs),
(153,513,l),
(153,486,l),
(242,486,ls),
(335,486,o),
(391,426,o),
(391,335,cs),
(391,237,o),
(324,170,o),
(233,170,cs),
(209,170,o),
(183,174,o),
(153,182,c),
(153,149,l),
(190,146,o),
(221,145,o),
(250,145,cs)
);
}
);
width = 521;
},
{
anchors = (
{
name = bottom;
pos = (278,0);
},
{
name = top;
pos = (278,646);
}
);
layerId = "44D59E61-3B4F-4F98-A7D7-4CA7F8682DBB";
shapes = (
{
closed = 1;
nodes = (
(76,-1,o),
(113,0,o),
(174,0,cs),
(250,0,o),
(301,-1,o),
(352,-6,c),
(352,31,l),
(316,37,o),
(244,51,o),
(244,59,cs),
(239,108,o),
(239,164,o),
(239,220,cs),
(239,407,ls),
(239,469,o),
(239,532,o),
(244,587,cs),
(245,595,o),
(289,608,o),
(312,613,c),
(312,650,l),
(275,647,o),
(237,646,o),
(175,646,cs),
(113,646,o),
(75,647,o),
(39,650,c),
(39,613,l),
(62,608,o),
(107,595,o),
(107,587,cs),
(113,531,o),
(113,469,o),
(113,407,cs),
(113,220,ls),
(113,164,o),
(113,108,o),
(108,59,cs),
(108,51,o),
(63,37,o),
(40,31,c),
(40,-6,l)
);
},
{
closed = 1;
nodes = (
(459,142,o),
(567,202,o),
(567,338,cs),
(567,428,o),
(524,517,o),
(312,517,cs),
(185,517,l),
(185,470,l),
(263,470,ls),
(350,470,o),
(401,416,o),
(401,335,cs),
(401,247,o),
(342,187,o),
(256,187,cs),
(235,187,o),
(213,191,o),
(185,198,c),
(185,146,l),
(230,143,o),
(267,142,o),
(303,142,cs)
);
}
);
width = 606;
}
);
metricLeft = H;
metricRight = O;
unicode = 222;
},
{
glyphname = Q;
kernLeft = KO_O;
kernRight = KO_Q;
lastChange = "2025-03-15 12:32:36 +0000";
layers = (
{
anchors = (
{
name = bottom;
pos = (411,0);
},
{
name = top;
pos = (411,646);
}
);
layerId = m01;
shapes = (
{
closed = 1;
nodes = (
(607,-11,o),
(766,140,o),
(766,325,cs),
(766,510,o),
(607,660,o),
(411,660,cs),
(214,660,o),
(55,510,o),
(55,325,cs),
(55,140,o),
(214,-11,o),
(411,-11,cs)
);
},
{
closed = 1;
nodes = (
(269,28,o),
(153,160,o),
(153,325,cs),
(153,489,o),
(269,621,o),
(411,621,cs),
(552,621,o),
(668,489,o),
(668,325,cs),
(668,160,o),
(552,28,o),
(411,28,cs)
);
},
{
closed = 1;
nodes = (
(1322,-208,o),
(1373,-180,o),
(1427,-200,c),
(1449,-91,l),
(1373,-145,o),
(1286,-162,o),
(1214,-162,cs),
(1074,-162,o),
(940,-109,o),
(693,45,cs),
(651,72,o),
(616,79,o),
(568,77,c),
(521,5,l),
(557,14,o),
(593,6,o),
(620,-11,cs),
(829,-141,o),
(1032,-208,o),
(1214,-208,cs)
);
}
);
width = 821;
},
{
anchors = (
{
name = bottom;
pos = (422,0);
},
{
name = top;
pos = (422,654);
}
);
background = {
anchors = (
{
name = bottom;
pos = (426,0);
},
{
name = center;
pos = (426,327);
},
{
name = ogonek;
pos = (474,10);
},
{
name = top;
pos = (426,654);
},
{
name = topleft;
pos = (25,654);
},
{
name = topright;
pos = (827,654);
}
);
shapes = (
{
closed = 1;
nodes = (
(624,-11,o),
(786,142,o),
(786,329,cs),
(786,516,o),
(624,668,o),
(426,668,cs),
(227,668,o),
(66,516,o),
(66,329,cs),
(66,142,o),
(227,-11,o),
(426,-11,cs)
);
},
{
closed = 1;
nodes = (
(269,48,o),
(172,207,o),
(172,337,cs),
(172,512,o),
(303,609,o),
(418,609,cs),
(582,609,o),
(680,452,o),
(680,321,cs),
(680,146,o),
(549,48,o),
(434,48,cs)
);
}
);
};
layerId = "66C19249-B420-404C-A3E7-B74793AC6646";
shapes = (
{
closed = 1;
nodes = (
(624,-11,o),
(786,142,o),
(786,329,cs),
(786,516,o),
(624,668,o),
(426,668,cs),
(227,668,o),
(66,516,o),
(66,329,cs),
(66,142,o),
(227,-11,o),
(426,-11,cs)
);
},
{
closed = 1;
nodes = (
(269,48,o),
(172,207,o),
(172,337,cs),
(172,512,o),
(303,609,o),
(418,609,cs),
(582,609,o),
(680,452,o),
(680,321,cs),
(680,146,o),
(549,48,o),
(434,48,cs)
);
},
{
closed = 1;
nodes = (
(1333,-211,o),
(1384,-182,o),
(1438,-202,c),
(1462,-82,l),
(1387,-137,o),
(1298,-155,o),
(1225,-155,cs),
(1086,-155,o),
(950,-104,o),
(710,49,cs),
(666,77,o),
(632,85,o),
(582,83,c),
(532,5,l),
(568,14,o),
(604,6,o),
(634,-13,cs),
(839,-143,o),
(1043,-211,o),
(1225,-211,cs)
);
}
);
width = 852;
},
{
anchors = (
{
name = bottom;
pos = (361,0);
},
{
name = top;
pos = (361,646);
}
);
background = {
anchors = (
{
name = bottom;
pos = (361,0);
},
{
name = center;
pos = (361,323);
},
{
name = ogonek;
pos = (411,10);
},
{
name = top;
pos = (361,646);
},
{
name = topleft;
pos = (21,646);
},
{
name = topright;
pos = (701,646);
}
);
shapes = (
{
closed = 1;
nodes = (
(533,-11,o),
(672,140,o),
(672,325,cs),
(672,510,o),
(533,660,o),
(361,660,cs),
(189,660,o),
(50,510,o),
(50,325,cs),
(50,140,o),
(189,-11,o),
(361,-11,cs)
);
},
{
closed = 1;
nodes = (
(247,34,o),
(122,189,o),
(122,367,cs),
(122,506,o),
(214,615,o),
(331,615,cs),
(475,615,o),
(600,461,o),
(600,282,cs),
(600,145,o),
(506,34,o),
(391,34,cs)
);
}
);
};
layerId = m004;
shapes = (
{
closed = 1;
nodes = (
(533,-11,o),
(672,140,o),
(672,325,cs),
(672,510,o),
(533,660,o),
(361,660,cs),
(189,660,o),
(50,510,o),
(50,325,cs),
(50,140,o),
(189,-11,o),
(361,-11,cs)
);
},
{
closed = 1;
nodes = (
(247,34,o),
(122,189,o),
(122,367,cs),
(122,506,o),
(214,615,o),
(331,615,cs),
(475,615,o),
(600,461,o),
(600,282,cs),
(600,145,o),
(506,34,o),
(391,34,cs)
);
},
{
closed = 1;
nodes = (
(1264,-208,o),
(1315,-180,o),
(1369,-200,c),
(1389,-101,l),
(1314,-157,o),
(1227,-175,o),
(1156,-175,cs),
(1016,-175,o),
(883,-120,o),
(635,35,cs),
(593,62,o),
(558,69,o),
(510,67,c),
(463,8,l),
(499,17,o),
(535,9,o),
(562,-8,cs),
(772,-139,o),
(974,-208,o),
(1156,-208,cs)
);
}
);
width = 722;
},
{
anchors = (
{
name = bottom;
pos = (421,0);
},
{
name = top;
pos = (421,646);
}
);
background = {
anchors = (
{
name = bottom;
pos = (434,0);
},
{
name = center;
pos = (434,323);
},
{
name = ogonek;
pos = (487,10);
},
{
name = top;
pos = (434,646);
},
{
name = topleft;
pos = (43,646);
},
{
name = topright;
pos = (824,646);
}
);
shapes = (
{
closed = 1;
nodes = (
(637,-11,o),
(808,140,o),
(808,325,cs),
(808,510,o),
(637,660,o),
(424,660,cs),
(210,660,o),
(39,510,o),
(39,325,cs),
(39,140,o),
(210,-11,o),
(424,-11,cs)
);
},
{
closed = 1;
nodes = (
(313,39,o),
(205,179,o),
(205,344,cs),
(205,497,o),
(297,610,o),
(408,610,cs),
(554,610,o),
(642,445,o),
(642,305,cs),
(642,149,o),
(546,39,o),
(438,39,cs)
);
}
);
};
layerId = "44D59E61-3B4F-4F98-A7D7-4CA7F8682DBB";
shapes = (
{
closed = 1;
nodes = (
(637,-11,o),
(808,140,o),
(808,325,cs),
(808,510,o),
(637,660,o),
(424,660,cs),
(210,660,o),
(39,510,o),
(39,325,cs),
(39,140,o),
(210,-11,o),
(424,-11,cs)
);
},
{
closed = 1;
nodes = (
(313,39,o),
(205,179,o),
(205,344,cs),
(205,497,o),
(297,610,o),
(408,610,cs),
(554,610,o),
(642,445,o),
(642,305,cs),
(642,149,o),
(546,39,o),
(438,39,cs)
);
},
{
closed = 1;
nodes = (
(1332,-211,o),
(1383,-183,o),
(1437,-203,c),
(1459,-88,l),
(1383,-142,o),
(1296,-159,o),
(1224,-159,cs),
(1087,-159,o),
(959,-98,o),
(713,55,cs),
(671,82,o),
(636,89,o),
(588,87,c),
(511,-1,l),
(547,9,o),
(583,-1,o),
(610,-18,cs),
(823,-150,o),
(1036,-211,o),
(1224,-211,cs)
);
}
);
width = 847;
}
);
metricLeft = O;
metricWidth = O;
unicode = 81;
},
{
glyphname = R;
kernLeft = KO_H;
kernRight = KO_R;
lastChange = "2025-03-15 12:35:42 +0000";
layers = (
{
anchors = (
{
name = bottom;
pos = (339,0);
},
{
name = top;
pos = (271,646);
}
);
layerId = m01;
shapes = (
{
closed = 1;
nodes = (
(73,-1,o),
(110,0,o),
(147,0,cs),
(183,0,o),
(220,-1,o),
(256,-5,c),
(256,26,l),
(233,31,o),
(189,46,o),
(188,54,cs),
(185,85,o),
(184,132,o),
(184,214,cs),
(184,419,ls),
(184,526,o),
(186,576,o),
(192,627,c),
(100,627,l),
(106,576,o),
(108,526,o),
(108,419,cs),
(108,214,ls),
(108,132,o),
(107,85,o),
(104,54,cs),
(103,46,o),
(58,32,o),
(36,26,c),
(36,-5,l)
);
},
{
closed = 1;
nodes = (
(399,286,o),
(505,368,o),
(505,476,cs),
(505,577,o),
(411,650,o),
(267,650,cs),
(234,650,o),
(193,646,o),
(142,646,cs),
(109,646,o),
(76,648,o),
(43,650,c),
(43,619,l),
(65,613,o),
(85,605,o),
(103,594,c),
(161,605,l),
(187,609,o),
(214,611,o),
(240,611,cs),
(338,611,o),
(412,549,o),
(412,465,cs),
(412,392,o),
(355,325,o),
(254,325,cs),
(225,325,o),
(194,331,o),
(164,345,c),
(164,306,l),
(197,291,o),
(230,286,o),
(262,286,cs)
);
},
{
closed = 1;
nodes = (
(624,-11,o),
(657,-2,o),
(677,12,c),
(677,36,l),
(641,30,o),
(615,32,o),
(593,50,cs),
(492,133,o),
(420,220,o),
(357,329,c),
(257,296,l),
(291,285,o),
(309,263,o),
(330,231,cs),
(395,133,o),
(508,-11,o),
(602,-11,cs)
);
}
);
width = 692;
},
{
anchors = (
{
name = bottom;
pos = (340,0);
},
{
name = top;
pos = (290,654);
}
);
layerId = "66C19249-B420-404C-A3E7-B74793AC6646";
shapes = (
{
closed = 1;
nodes = (
(79,-1,o),
(118,0,o),
(157,0,cs),
(194,0,o),
(232,-1,o),
(269,-5,c),
(269,33,l),
(246,38,o),
(202,53,o),
(201,61,cs),
(198,102,o),
(197,146,o),
(197,217,cs),
(197,424,ls),
(197,533,o),
(199,583,o),
(205,635,c),
(104,635,l),
(110,583,o),
(112,533,o),
(112,424,cs),
(112,217,ls),
(112,146,o),
(111,102,o),
(108,61,cs),
(107,53,o),
(63,39,o),
(40,33,c),
(40,-5,l)
);
},
{
closed = 1;
nodes = (
(413,290,o),
(521,373,o),
(521,482,cs),
(521,584,o),
(425,658,o),
(279,658,cs),
(245,658,o),
(203,654,o),
(151,654,cs),
(117,654,o),
(82,656,o),
(48,658,c),
(48,620,l),
(71,613,o),
(91,605,o),
(108,595,c),
(174,596,l),
(201,600,o),
(227,602,o),
(254,602,cs),
(353,602,o),
(428,546,o),
(428,471,cs),
(428,405,o),
(369,345,o),
(266,345,cs),
(236,345,o),
(204,350,o),
(173,363,c),
(173,310,l),
(206,295,o),
(240,290,o),
(274,290,cs)
);
},
{
closed = 1;
nodes = (
(630,-11,o),
(662,-7,o),
(686,-2,c),
(686,42,l),
(650,36,o),
(609,50,o),
(582,72,cs),
(505,135,o),
(434,225,o),
(373,332,c),
(259,300,l),
(291,289,o),
(310,266,o),
(331,234,cs),
(397,134,o),
(509,-11,o),
(604,-11,cs)
);
}
);
width = 703;
},
{
anchors = (
{
name = bottom;
pos = (313,0);
},
{
name = top;
pos = (256,646);
}
);
layerId = m004;
shapes = (
{
closed = 1;
nodes = (
(66,-1,o),
(101,0,o),
(135,0,cs),
(168,0,o),
(201,-1,o),
(234,-5,c),
(234,18,l),
(214,23,o),
(174,38,o),
(173,46,cs),
(169,81,o),
(168,127,o),
(168,214,cs),
(168,419,ls),
(168,530,o),
(170,579,o),
(175,627,c),
(91,627,l),
(96,579,o),
(98,530,o),
(98,419,cs),
(98,214,ls),
(98,127,o),
(97,81,o),
(93,46,cs),
(92,38,o),
(53,24,o),
(32,18,c),
(32,-5,l)
);
},
{
closed = 1;
nodes = (
(355,286,o),
(449,368,o),
(449,476,cs),
(449,577,o),
(366,650,o),
(239,650,cs),
(210,650,o),
(174,646,o),
(129,646,cs),
(99,646,o),
(69,648,o),
(39,650,c),
(39,627,l),
(60,620,o),
(78,612,o),
(93,602,c),
(143,617,l),
(168,622,o),
(192,625,o),
(217,625,cs),
(309,625,o),
(379,557,o),
(379,465,cs),
(379,385,o),
(326,311,o),
(232,311,cs),
(205,311,o),
(176,318,o),
(148,333,c),
(148,306,l),
(177,291,o),
(206,286,o),
(235,286,cs)
);
},
{
closed = 1;
nodes = (
(560,-11,o),
(590,-3,o),
(607,13,c),
(607,33,l),
(569,26,o),
(555,28,o),
(541,41,cs),
(442,131,o),
(383,215,o),
(327,330,c),
(234,296,l),
(264,285,o),
(279,267,o),
(299,232,cs),
(355,135,o),
(458,-11,o),
(542,-11,cs)
);
}
);
width = 621;
},
{
anchors = (
{
name = bottom;
pos = (352,0);
},
{
name = top;
pos = (284,646);
}
);
layerId = "44D59E61-3B4F-4F98-A7D7-4CA7F8682DBB";
shapes = (
{
closed = 1;
nodes = (
(60,-1,o),
(96,0,o),
(160,0,cs),
(221,0,o),
(257,-1,o),
(293,-5,c),
(293,32,l),
(270,37,o),
(226,52,o),
(225,60,cs),
(222,91,o),
(221,138,o),
(221,220,cs),
(221,419,ls),
(221,526,o),
(223,576,o),
(229,627,c),
(87,627,l),
(93,576,o),
(95,526,o),
(95,419,cs),
(95,220,ls),
(95,138,o),
(94,91,o),
(91,60,cs),
(90,52,o),
(45,38,o),
(23,32,c),
(23,-5,l)
);
},
{
closed = 1;
nodes = (
(432,286,o),
(547,368,o),
(547,476,cs),
(547,577,o),
(445,650,o),
(290,650,cs),
(255,650,o),
(210,646,o),
(155,646,cs),
(109,646,o),
(70,648,o),
(31,650,c),
(31,613,l),
(53,607,o),
(73,599,o),
(91,588,c),
(156,599,l),
(179,604,o),
(216,605,o),
(238,605,cs),
(320,605,o),
(381,546,o),
(381,465,cs),
(381,395,o),
(333,331,o),
(250,331,cs),
(225,331,o),
(200,337,o),
(177,351,c),
(178,306,l),
(215,291,o),
(250,286,o),
(284,286,cs)
);
},
{
closed = 1;
nodes = (
(618,-11,o),
(665,-2,o),
(690,12,c),
(690,42,l),
(664,36,o),
(645,40,o),
(629,53,cs),
(532,136,o),
(463,223,o),
(403,332,c),
(245,296,l),
(279,285,o),
(297,263,o),
(318,231,cs),
(383,133,o),
(496,-11,o),
(590,-11,cs)
);
}
);
width = 701;
}
);
metricLeft = "=H*0.6";
unicode = 82;
userData = {
KernOnName = R;
};
},
{
glyphname = S;
kernLeft = KO_S;
kernRight = KO_S;
lastChange = "2025-03-15 18:05:11 +0000";
layers = (
{
anchors = (
{
name = bottom;
pos = (272,0);
},
{
name = top;
pos = (302,646);
}
);
layerId = m01;
shapes = (
{
closed = 1;
nodes = (
(384,-11,o),
(484,65,o),
(484,172,cs),
(484,273,o),
(411,334,o),
(306,388,cs),
(232,425,o),
(174,461,o),
(174,519,cs),
(174,581,o),
(232,621,o),
(299,621,cs),
(363,621,o),
(424,590,o),
(446,523,c),
(481,523,l),
(478,572,o),
(465,618,o),
(446,664,c),
(432,659,o),
(419,656,o),
(398,656,cs),
(374,656,o),
(346,660,o),
(312,660,cs),
(167,660,o),
(90,595,o),
(90,504,cs),
(90,402,o),
(177,353,o),
(259,311,cs),
(369,256,o),
(403,206,o),
(403,154,cs),
(403,90,o),
(353,28,o),
(268,28,cs),
(188,28,o),
(124,76,o),
(98,192,c),
(63,192,l),
(63,128,o),
(73,62,o),
(88,3,c),
(110,5,o),
(131,6,o),
(151,6,cs),
(182,6,o),
(212,-11,o),
(267,-11,cs)
);
}
);
width = 544;
},
{
anchors = (
{
name = bottom;
pos = (286,0);
},
{
name = top;
pos = (306,654);
}
);
layerId = "66C19249-B420-404C-A3E7-B74793AC6646";
shapes = (
{
closed = 1;
nodes = (
(401,-11,o),
(503,66,o),
(503,174,cs),
(503,277,o),
(431,342,o),
(327,392,cs),
(250,429,o),
(193,462,o),
(193,516,cs),
(193,575,o),
(251,612,o),
(315,612,cs),
(376,612,o),
(435,597,o),
(456,529,c),
(495,529,l),
(492,579,o),
(479,625,o),
(460,672,c),
(446,667,o),
(433,664,o),
(412,664,cs),
(387,664,o),
(360,668,o),
(325,668,cs),
(178,668,o),
(99,602,o),
(99,510,cs),
(99,407,o),
(184,357,o),
(267,315,cs),
(380,258,o),
(412,212,o),
(412,165,cs),
(412,104,o),
(363,44,o),
(280,44,cs),
(202,44,o),
(140,77,o),
(116,194,c),
(77,194,l),
(77,129,o),
(87,63,o),
(102,3,c),
(124,5,o),
(145,6,o),
(165,6,cs),
(196,6,o),
(227,-11,o),
(282,-11,cs)
);
}
);
width = 572;
},
{
anchors = (
{
name = bottom;
pos = (234,0);
},
{
name = top;
pos = (261,646);
}
);
layerId = m004;
shapes = (
{
closed = 1;
nodes = (
(330,-11,o),
(421,65,o),
(421,172,cs),
(421,267,o),
(356,321,o),
(263,375,cs),
(195,414,o),
(143,459,o),
(143,527,cs),
(143,593,o),
(197,635,o),
(259,635,cs),
(315,635,o),
(370,591,o),
(390,523,c),
(422,523,l),
(419,572,o),
(408,618,o),
(391,664,c),
(378,659,o),
(367,656,o),
(347,656,cs),
(326,656,o),
(300,660,o),
(270,660,cs),
(143,660,o),
(74,595,o),
(74,504,cs),
(74,408,o),
(155,365,o),
(226,323,cs),
(323,266,o),
(352,204,o),
(352,146,cs),
(352,79,o),
(308,14,o),
(231,14,cs),
(158,14,o),
(101,77,o),
(78,192,c),
(46,192,l),
(46,128,o),
(55,62,o),
(68,3,c),
(88,5,o),
(107,6,o),
(125,6,cs),
(153,6,o),
(180,-11,o),
(229,-11,cs)
);
}
);
width = 468;
},
{
anchors = (
{
name = bottom;
pos = (259,0);
},
{
name = top;
pos = (289,646);
}
);
guides = (
{
angle = 64.3978;
pos = (254,293);
showMeasurement = 1;
},
{
angle = 154.3978;
pos = (254,293);
},
{
angle = 153.6902;
pos = (313,391);
}
);
layerId = "44D59E61-3B4F-4F98-A7D7-4CA7F8682DBB";
shapes = (
{
closed = 1;
nodes = (
(374,-11,o),
(476,68,o),
(476,186,cs),
(476,285,o),
(406,356,o),
(298,407,cs),
(228,440,o),
(181,473,o),
(181,525,cs),
(181,581,o),
(234,615,o),
(300,615,cs),
(355,615,o),
(412,590,o),
(433,523,c),
(474,523,l),
(471,572,o),
(458,618,o),
(439,664,c),
(423,659,o),
(409,656,o),
(385,656,cs),
(361,656,o),
(333,660,o),
(299,660,cs),
(151,660,o),
(72,596,o),
(72,495,cs),
(72,392,o),
(155,331,o),
(240,291,cs),
(345,241,o),
(370,189,o),
(370,144,cs),
(370,83,o),
(324,34,o),
(244,34,cs),
(170,34,o),
(110,76,o),
(85,192,c),
(44,192,l),
(44,128,o),
(54,62,o),
(69,3,c),
(93,5,o),
(116,6,o),
(138,6,cs),
(169,6,o),
(199,-11,o),
(254,-11,cs)
);
}
);
width = 518;
}
);
unicode = 83;
userData = {
KernOnName = S;
};
},
{
glyphname = Germandbls;
kernLeft = Eszett;
kernRight = KO_B;
lastChange = "2025-03-15 18:39:22 +0000";
layers = (
{
anchors = (
{
name = bottom;
pos = (360,0);
},
{
name = top;
pos = (360,646);
}
);
layerId = m01;
shapes = (
{
closed = 1;
nodes = (
(567,-11,o),
(638,68,o),
(638,173,cs),
(638,287,o),
(556,369,o),
(425,383,c),
(433,353,l),
(587,587,l),
(521,637,o),
(461,658,o),
(383,658,cs),
(207,658,o),
(124,547,o),
(124,314,cs),
(124,53,ls),
(124,45,o),
(84,30,o),
(54,25,c),
(54,-6,l),
(88,-2,o),
(123,0,o),
(167,0,cs),
(211,0,o),
(246,-2,o),
(279,-6,c),
(279,25,l),
(249,30,o),
(210,45,o),
(209,53,cs),
(203,112,o),
(200,184,o),
(200,286,cs),
(200,381,ls),
(200,535,o),
(263,617,o),
(382,617,cs),
(449,617,o),
(496,590,o),
(527,533,c),
(532,579,l),
(399,376,l),
(399,335,l),
(501,335,o),
(559,273,o),
(559,162,cs),
(559,70,o),
(521,14,o),
(460,14,cs),
(402,14,o),
(369,57,o),
(345,162,c),
(310,162,l),
(310,115,o),
(317,61,o),
(332,3,c),
(351,5,o),
(364,6,o),
(375,6,cs),
(404,6,o),
(430,-11,o),
(474,-11,cs)
);
}
);
width = 692;
},
{
anchors = (
{
name = bottom;
pos = (347,0);
},
{
name = top;
pos = (347,654);
}
);
background = {
shapes = (
{
closed = 1;
nodes = (
(106,-1,o),
(142,0,o),
(177,0,cs),
(213,0,o),
(249,-1,o),
(284,-6,c),
(284,38,l),
(249,54,o),
(213,63,o),
(177,63,cs),
(142,63,o),
(106,54,o),
(70,38,c),
(70,-6,l)
);
}
);
};
layerId = "66C19249-B420-404C-A3E7-B74793AC6646";
shapes = (
{
closed = 1;
nodes = (
(578,-11,o),
(652,72,o),
(652,176,cs),
(652,285,o),
(574,365,o),
(445,382,c),
(453,347,l),
(621,598,l),
(552,645,o),
(485,666,o),
(400,666,cs),
(212,666,o),
(129,563,o),
(129,330,cs),
(129,60,ls),
(129,54,o),
(89,37,o),
(59,32,c),
(59,-6,l),
(97,-2,o),
(137,0,o),
(176,0,cs),
(214,0,o),
(254,-2,o),
(292,-6,c),
(292,38,l),
(262,43,o),
(223,54,o),
(222,60,cs),
(217,125,o),
(215,186,o),
(215,277,cs),
(215,372,ls),
(215,530,o),
(277,610,o),
(401,610,cs),
(469,610,o),
(523,585,o),
(548,542,c),
(553,592,l),
(409,376,l),
(409,325,l),
(507,325,o),
(565,266,o),
(565,166,cs),
(565,86,o),
(532,40,o),
(473,40,cs),
(419,40,o),
(385,77,o),
(361,162,c),
(320,162,l),
(320,115,o),
(327,61,o),
(342,3,c),
(362,5,o),
(374,6,o),
(388,6,cs),
(414,6,o),
(444,-11,o),
(485,-11,cs)
);
}
);
width = 711;
},
{
anchors = (
{
name = bottom;
pos = (361,0);
},
{
name = top;
pos = (361,641);
}
);
layerId = m004;
shapes = (
{
closed = 1;
nodes = (
(551,-11,o),
(620,67,o),
(620,171,cs),
(620,288,o),
(537,372,o),
(403,384,c),
(411,355,l),
(564,590,l),
(495,639,o),
(439,658,o),
(361,658,cs),
(185,658,o),
(113,558,o),
(113,315,cs),
(113,45,ls),
(113,39,o),
(79,22,o),
(49,17,c),
(49,-6,l),
(84,-2,o),
(118,0,o),
(153,0,cs),
(188,0,o),
(222,-2,o),
(257,-6,c),
(257,17,l),
(227,22,o),
(194,36,o),
(193,45,cs),
(186,106,o),
(183,181,o),
(183,292,cs),
(183,375,ls),
(183,548,o),
(242,634,o),
(361,634,cs),
(429,634,o),
(481,604,o),
(519,543,c),
(523,588,l),
(385,378,l),
(385,342,l),
(491,342,o),
(549,281,o),
(549,169,cs),
(549,74,o),
(508,13,o),
(445,13,cs),
(387,13,o),
(353,56,o),
(328,162,c),
(296,162,l),
(296,115,o),
(303,61,o),
(318,3,c),
(338,5,o),
(349,6,o),
(359,6,cs),
(390,6,o),
(413,-11,o),
(459,-11,cs)
);
}
);
width = 669;
},
{
anchors = (
{
name = bottom;
pos = (378,0);
},
{
name = top;
pos = (378,646);
}
);
background = {
shapes = (
{
closed = 1;
nodes = (
(600,-11,o),
(676,68,o),
(676,173,cs),
(676,287,o),
(587,369,o),
(447,383,c),
(451,353,l),
(605,587,l),
(539,637,o),
(479,658,o),
(401,658,cs),
(205,658,o),
(112,547,o),
(112,314,cs),
(112,59,ls),
(112,51,o),
(72,36,o),
(42,31,c),
(42,-6,l),
(76,-2,o),
(111,0,o),
(185,0,cs),
(239,0,o),
(274,-2,o),
(307,-6,c),
(307,31,l),
(277,36,o),
(238,51,o),
(237,59,cs),
(231,118,o),
(228,184,o),
(228,286,cs),
(228,381,ls),
(228,535,o),
(288,617,o),
(400,617,cs),
(467,617,o),
(514,590,o),
(545,533,c),
(550,579,l),
(417,376,l),
(417,329,l),
(504,329,o),
(557,269,o),
(557,162,cs),
(557,74,o),
(523,20,o),
(467,20,cs),
(415,20,o),
(385,61,o),
(363,162,c),
(328,162,l),
(328,115,o),
(335,61,o),
(350,3,c),
(369,5,o),
(382,6,o),
(393,6,cs),
(424,6,o),
(452,-11,o),
(500,-11,cs)
);
}
);
};
layerId = "44D59E61-3B4F-4F98-A7D7-4CA7F8682DBB";
shapes = (
{
closed = 1;
nodes = (
(607,-11,o),
(686,68,o),
(686,173,cs),
(686,287,o),
(594,369,o),
(449,383,c),
(456,353,l),
(610,587,l),
(542,637,o),
(481,658,o),
(401,658,cs),
(200,658,o),
(105,547,o),
(105,314,cs),
(105,59,ls),
(105,51,o),
(65,36,o),
(35,31,c),
(35,-6,l),
(69,-2,o),
(104,0,o),
(185,0,cs),
(242,0,o),
(277,-2,o),
(310,-6,c),
(310,31,l),
(280,36,o),
(241,51,o),
(240,59,cs),
(234,118,o),
(231,184,o),
(231,286,cs),
(231,375,ls),
(231,529,o),
(288,611,o),
(400,611,cs),
(467,611,o),
(514,584,o),
(545,527,c),
(550,588,l),
(417,385,l),
(417,329,l),
(504,329,o),
(545,269,o),
(545,162,cs),
(545,78,o),
(513,26,o),
(461,26,cs),
(412,26,o),
(384,65,o),
(363,162,c),
(328,162,l),
(328,115,o),
(335,61,o),
(350,3,c),
(369,5,o),
(382,6,o),
(393,6,cs),
(425,6,o),
(454,-11,o),
(504,-11,cs)
);
}
);
width = 721;
}
);
metricLeft = "=H*0.9";
metricRight = B;
unicode = 7838;
},
{
glyphname = T;
kernLeft = KO_T;
kernRight = KO_T;
lastChange = "2025-03-15 18:10:56 +0000";
layers = (
{
anchors = (
{
name = bottom;
pos = (331,0);
},
{
name = center;
pos = (331,323);
},
{
name = top;
pos = (331,646);
}
);
layerId = m01;
shapes = (
{
closed = 1;
nodes = (
(51,500,l),
(71,552,o),
(104,599,o),
(129,599,cs),
(578,599,l),
(590,500,l),
(623,500,l),
(643,650,l),
(601,647,o),
(569,646,o),
(530,646,cs),
(114,646,ls),
(90,646,o),
(64,648,o),
(40,650,c),
(18,500,l)
);
},
{
closed = 1;
nodes = (
(232,-1,o),
(282,0,o),
(331,0,cs),
(380,0,o),
(430,-1,o),
(479,-6,c),
(479,25,l),
(443,31,o),
(372,45,o),
(372,53,cs),
(367,102,o),
(367,158,o),
(367,214,cs),
(367,419,ls),
(367,489,o),
(367,558,o),
(375,627,c),
(283,627,l),
(291,558,o),
(291,489,o),
(291,419,cs),
(291,214,ls),
(291,158,o),
(291,102,o),
(286,53,cs),
(286,45,o),
(218,31,o),
(183,25,c),
(183,-6,l)
);
}
);
width = 661;
},
{
anchors = (
{
name = bottom;
pos = (335,0);
},
{
name = center;
pos = (335,327);
},
{
name = top;
pos = (335,654);
}
);
layerId = "66C19249-B420-404C-A3E7-B74793AC6646";
shapes = (
{
closed = 1;
nodes = (
(55,506,l),
(72,552,o),
(101,593,o),
(123,593,cs),
(582,593,l),
(594,506,l),
(627,506,l),
(647,658,l),
(605,655,o),
(573,654,o),
(534,654,cs),
(118,654,ls),
(94,654,o),
(68,656,o),
(44,658,c),
(22,506,l)
);
},
{
closed = 1;
nodes = (
(236,-1,o),
(286,0,o),
(335,0,cs),
(384,0,o),
(434,-1,o),
(483,-6,c),
(483,32,l),
(448,38,o),
(380,52,o),
(379,60,cs),
(375,116,o),
(375,167,o),
(375,217,cs),
(375,424,ls),
(375,495,o),
(375,565,o),
(384,635,c),
(282,635,l),
(290,565,o),
(290,495,o),
(290,424,cs),
(290,217,ls),
(290,167,o),
(290,116,o),
(286,60,cs),
(285,52,o),
(220,38,o),
(187,32,c),
(187,-6,l)
);
}
);
width = 669;
},
{
anchors = (
{
name = bottom;
pos = (295,0);
},
{
name = center;
pos = (295,323);
},
{
name = top;
pos = (295,646);
}
);
layerId = m004;
shapes = (
{
closed = 1;
nodes = (
(44,500,l),
(64,557,o),
(97,609,o),
(122,609,cs),
(513,609,l),
(525,500,l),
(556,500,l),
(576,650,l),
(534,647,o),
(502,646,o),
(463,646,cs),
(109,646,ls),
(85,646,o),
(59,648,o),
(35,650,c),
(13,500,l)
);
},
{
closed = 1;
nodes = (
(196,-1,o),
(246,0,o),
(295,0,cs),
(344,0,o),
(394,-1,o),
(443,-6,c),
(443,17,l),
(406,23,o),
(335,37,o),
(334,45,cs),
(328,99,o),
(328,157,o),
(328,214,cs),
(328,419,ls),
(328,489,o),
(328,558,o),
(336,627,c),
(250,627,l),
(258,558,o),
(258,489,o),
(258,419,cs),
(258,214,ls),
(258,157,o),
(258,99,o),
(252,45,cs),
(251,37,o),
(182,23,o),
(147,17,c),
(147,-6,l)
);
}
);
width = 589;
},
{
anchors = (
{
name = bottom;
pos = (331,0);
},
{
name = center;
pos = (331,323);
},
{
name = top;
pos = (331,646);
}
);
layerId = "44D59E61-3B4F-4F98-A7D7-4CA7F8682DBB";
shapes = (
{
closed = 1;
nodes = (
(54,500,l),
(74,549,o),
(107,593,o),
(132,593,cs),
(575,593,l),
(587,500,l),
(626,500,l),
(646,650,l),
(604,647,o),
(572,646,o),
(533,646,cs),
(111,646,ls),
(87,646,o),
(61,648,o),
(37,650,c),
(15,500,l)
);
},
{
closed = 1;
nodes = (
(216,-1,o),
(273,0,o),
(331,0,cs),
(389,0,o),
(446,-1,o),
(504,-6,c),
(504,31,l),
(468,37,o),
(397,51,o),
(397,59,cs),
(392,108,o),
(392,164,o),
(392,220,cs),
(392,419,ls),
(392,489,o),
(392,558,o),
(400,627,c),
(258,627,l),
(266,558,o),
(266,489,o),
(266,419,cs),
(266,220,ls),
(266,164,o),
(266,108,o),
(261,59,cs),
(261,51,o),
(193,37,o),
(158,31,c),
(158,-6,l)
);
}
);
width = 661;
}
);
unicode = 84;
userData = {
KernOnName = T;
};
},
{
glyphname = U;
kernLeft = KO_U;
kernRight = KO_U;
lastChange = "2025-03-15 18:10:49 +0000";
layers = (
{
anchors = (
{
name = bottom;
pos = (390,0);
},
{
name = ogonek;
pos = (504,10);
},
{
name = top;
pos = (390,646);
},
{
name = topright;
pos = (773,646);
}
);
layerId = m01;
shapes = (
{
closed = 1;
nodes = (
(504,-11,o),
(588,36,o),
(621,121,cs),
(639,167,o),
(645,225,o),
(645,360,cs),
(645,456,o),
(646,533,o),
(648,593,cs),
(648,601,o),
(693,614,o),
(716,619,c),
(716,650,l),
(686,647,o),
(655,646,o),
(625,646,cs),
(595,646,o),
(564,647,o),
(534,650,c),
(534,619,l),
(558,613,o),
(602,601,o),
(602,593,cs),
(604,515,o),
(605,426,o),
(605,310,cs),
(605,123,o),
(544,41,o),
(405,41,cs),
(270,41,o),
(209,116,o),
(209,280,cs),
(209,409,o),
(210,511,o),
(212,593,cs),
(212,601,o),
(252,614,o),
(272,619,c),
(272,650,l),
(238,647,o),
(205,646,o),
(171,646,cs),
(137,646,o),
(104,647,o),
(70,650,c),
(70,619,l),
(90,614,o),
(130,601,o),
(130,593,cs),
(132,506,o),
(133,401,o),
(133,266,cs),
(133,144,o),
(163,68,o),
(228,27,cs),
(267,2,o),
(321,-11,o),
(385,-11,cs)
);
}
);
width = 764;
},
{
anchors = (
{
name = bottom;
pos = (388,0);
},
{
name = ogonek;
pos = (498,10);
},
{
name = top;
pos = (388,654);
},
{
name = topright;
pos = (777,654);
}
);
layerId = "66C19249-B420-404C-A3E7-B74793AC6646";
shapes = (
{
closed = 1;
nodes = (
(498,-11,o),
(580,36,o),
(614,127,cs),
(633,178,o),
(641,254,o),
(641,364,cs),
(641,438,o),
(641,514,o),
(643,594,cs),
(643,602,o),
(689,615,o),
(711,620,c),
(711,658,l),
(679,655,o),
(647,654,o),
(615,654,cs),
(582,654,o),
(550,655,o),
(518,658,c),
(518,620,l),
(541,614,o),
(586,602,o),
(586,594,cs),
(588,499,o),
(589,410,o),
(589,322,cs),
(589,121,o),
(528,52,o),
(405,52,cs),
(282,52,o),
(223,128,o),
(223,296,cs),
(223,395,o),
(224,491,o),
(226,594,cs),
(226,602,o),
(266,615,o),
(286,620,c),
(286,658,l),
(251,655,o),
(216,654,o),
(181,654,cs),
(145,654,o),
(110,655,o),
(75,658,c),
(75,620,l),
(95,614,o),
(135,602,o),
(135,594,cs),
(137,482,o),
(138,377,o),
(138,269,cs),
(138,166,o),
(156,77,o),
(231,28,cs),
(275,-1,o),
(332,-11,o),
(386,-11,cs)
);
}
);
width = 764;
},
{
anchors = (
{
name = bottom;
pos = (362,0);
},
{
name = ogonek;
pos = (465,10);
},
{
name = top;
pos = (362,646);
},
{
name = topright;
pos = (711,646);
}
);
layerId = m004;
shapes = (
{
closed = 1;
nodes = (
(464,-11,o),
(540,34,o),
(572,121,cs),
(591,173,o),
(596,245,o),
(596,360,cs),
(596,441,o),
(596,523,o),
(598,601,cs),
(598,609,o),
(638,622,o),
(659,627,c),
(659,650,l),
(633,647,o),
(606,646,o),
(580,646,cs),
(554,646,o),
(527,647,o),
(501,650,c),
(501,627,l),
(522,621,o),
(562,609,o),
(562,601,cs),
(564,499,o),
(564,393,o),
(564,288,cs),
(564,99,o),
(500,34,o),
(375,34,cs),
(249,34,o),
(191,108,o),
(191,273,cs),
(191,383,o),
(191,494,o),
(193,601,cs),
(193,609,o),
(228,622,o),
(247,627,c),
(247,650,l),
(217,647,o),
(186,646,o),
(156,646,cs),
(126,646,o),
(95,647,o),
(65,650,c),
(65,627,l),
(84,621,o),
(119,609,o),
(119,601,cs),
(121,491,o),
(121,379,o),
(121,266,cs),
(121,166,o),
(135,75,o),
(207,27,cs),
(247,0,o),
(300,-11,o),
(356,-11,cs)
);
}
);
width = 702;
},
{
anchors = (
{
name = bottom;
pos = (392,0);
},
{
name = ogonek;
pos = (506,10);
},
{
name = top;
pos = (392,646);
},
{
name = topright;
pos = (775,646);
}
);
layerId = "44D59E61-3B4F-4F98-A7D7-4CA7F8682DBB";
shapes = (
{
closed = 1;
nodes = (
(506,-11,o),
(590,36,o),
(623,121,cs),
(641,168,o),
(650,225,o),
(650,360,cs),
(650,456,o),
(650,527,o),
(653,587,cs),
(653,595,o),
(698,608,o),
(721,613,c),
(721,650,l),
(690,647,o),
(658,646,o),
(627,646,cs),
(596,646,o),
(564,647,o),
(533,650,c),
(533,613,l),
(557,607,o),
(601,595,o),
(601,587,cs),
(604,509,o),
(604,436,o),
(604,320,cs),
(604,135,o),
(544,54,o),
(407,54,cs),
(291,54,o),
(238,128,o),
(238,290,cs),
(238,419,o),
(238,505,o),
(241,587,cs),
(241,595,o),
(281,608,o),
(301,613,c),
(301,650,l),
(259,647,o),
(217,646,o),
(175,646,cs),
(133,646,o),
(91,647,o),
(49,650,c),
(49,613,l),
(69,608,o),
(109,595,o),
(109,587,cs),
(112,500,o),
(112,401,o),
(112,266,cs),
(112,144,o),
(156,74,o),
(230,27,cs),
(269,2,o),
(323,-11,o),
(387,-11,cs)
);
}
);
width = 752;
}
);
metricLeft = "=H@350";
metricRight = "=H*0.8";
unicode = 85;
},
{
glyphname = V;
kernLeft = KO_V;
kernRight = KO_V;
lastChange = "2025-03-15 18:10:36 +0000";
layers = (
{
anchors = (
{
name = bottom;
pos = (373,0);
},
{
name = top;
pos = (373,646);
}
);
layerId = m01;
shapes = (
{
closed = 1;
nodes = (
(373,-11,l),
(412,97,o),
(456,207,o),
(505,312,cs),
(637,593,ls),
(641,601,o),
(684,614,o),
(706,619,c),
(706,650,l),
(677,647,o),
(649,646,o),
(620,646,cs),
(586,646,o),
(552,647,o),
(519,650,c),
(519,619,l),
(542,614,o),
(580,601,o),
(586,595,c),
(538,481,o),
(488,372,o),
(435,259,cs),
(376,132,l),
(272,359,ls),
(236,438,o),
(201,517,o),
(172,595,c),
(181,601,o),
(214,614,o),
(236,619,c),
(236,650,l),
(197,647,o),
(159,646,o),
(120,646,cs),
(84,646,o),
(50,647,o),
(15,650,c),
(15,619,l),
(36,613,o),
(75,601,o),
(79,593,cs),
(243,238,ls),
(280,158,o),
(308,73,o),
(332,-11,c)
);
}
);
width = 721;
},
{
anchors = (
{
name = bottom;
pos = (378,0);
},
{
name = top;
pos = (378,654);
}
);
layerId = "66C19249-B420-404C-A3E7-B74793AC6646";
shapes = (
{
closed = 1;
nodes = (
(384,-11,l),
(422,96,o),
(466,208,o),
(516,316,cs),
(644,594,ls),
(647,600,o),
(689,615,o),
(713,620,c),
(713,658,l),
(683,655,o),
(652,654,o),
(623,654,cs),
(587,654,o),
(551,655,o),
(515,658,c),
(515,620,l),
(548,613,o),
(575,602,o),
(582,596,c),
(539,490,o),
(486,375,o),
(438,271,cs),
(379,143,l),
(279,363,ls),
(245,437,o),
(210,520,o),
(183,596,c),
(191,602,o),
(214,614,o),
(247,620,c),
(247,658,l),
(206,655,o),
(166,654,o),
(125,654,cs),
(88,654,o),
(53,655,o),
(17,658,c),
(17,620,l),
(40,614,o),
(78,600,o),
(81,594,cs),
(241,241,ls),
(278,159,o),
(306,76,o),
(330,-11,c)
);
}
);
width = 730;
},
{
anchors = (
{
name = bottom;
pos = (340,0);
},
{
name = top;
pos = (340,646);
}
);
layerId = m004;
shapes = (
{
closed = 1;
nodes = (
(338,-11,l),
(374,101,o),
(414,210,o),
(457,312,cs),
(578,601,ls),
(581,607,o),
(619,622,o),
(640,627,c),
(640,650,l),
(614,647,o),
(588,646,o),
(562,646,cs),
(534,646,o),
(505,647,o),
(477,650,c),
(477,627,l),
(497,622,o),
(529,609,o),
(535,603,c),
(493,489,o),
(445,374,o),
(398,261,cs),
(343,129,l),
(247,359,ls),
(214,439,o),
(180,521,o),
(154,603,c),
(162,609,o),
(191,622,o),
(212,627,c),
(212,650,l),
(179,647,o),
(145,646,o),
(112,646,cs),
(79,646,o),
(46,647,o),
(13,650,c),
(13,627,l),
(32,621,o),
(67,607,o),
(71,601,cs),
(222,238,ls),
(254,161,o),
(279,78,o),
(302,-11,c)
);
}
);
width = 653;
},
{
anchors = (
{
name = bottom;
pos = (394,0);
},
{
name = top;
pos = (394,646);
}
);
guides = (
{
angle = 24.7647;
pos = (164,413);
showMeasurement = 1;
}
);
layerId = "44D59E61-3B4F-4F98-A7D7-4CA7F8682DBB";
shapes = (
{
closed = 1;
nodes = (
(398,-11,l),
(437,97,o),
(481,207,o),
(530,312,cs),
(659,587,ls),
(663,595,o),
(709,608,o),
(731,613,c),
(731,650,l),
(699,647,o),
(666,646,o),
(634,646,cs),
(601,646,o),
(569,647,o),
(536,650,c),
(536,613,l),
(559,608,o),
(593,595,o),
(599,589,c),
(551,475,o),
(504,372,o),
(452,259,cs),
(407,161,l),
(319,353,ls),
(283,432,o),
(248,511,o),
(219,589,c),
(228,595,o),
(259,608,o),
(281,613,c),
(281,650,l),
(236,647,o),
(191,646,o),
(147,646,cs),
(102,646,o),
(57,647,o),
(12,650,c),
(12,613,l),
(33,607,o),
(75,595,o),
(79,587,cs),
(240,238,ls),
(277,158,o),
(305,73,o),
(329,-11,c)
);
}
);
width = 743;
}
);
unicode = 86;
userData = {
KernOnName = V;
};
},
{
glyphname = W;
kernLeft = KO_W;
kernRight = KO_W;
lastChange = "2025-03-15 18:10:25 +0000";
layers = (
{
anchors = (
{
name = bottom;
pos = (478,0);
},
{
name = top;
pos = (478,646);
}
);
layerId = m01;
shapes = (
{
closed = 1;
nodes = (
(337,-11,l),
(372,96,o),
(412,197,o),
(458,301,cs),
(516,431,l),
(495,488,l),
(323,98,l),
(347,98,l),
(244,369,ls),
(215,445,o),
(188,518,o),
(167,595,c),
(174,601,o),
(206,615,o),
(230,619,c),
(230,650,l),
(191,647,o),
(152,646,o),
(113,646,cs),
(81,646,o),
(46,647,o),
(14,650,c),
(14,619,l),
(33,614,o),
(74,601,o),
(77,593,cs),
(205,256,ls),
(236,175,o),
(271,81,o),
(297,-11,c)
);
},
{
closed = 1;
nodes = (
(673,-11,l),
(700,98,o),
(731,202,o),
(769,310,cs),
(869,593,ls),
(871,599,o),
(918,616,o),
(942,619,c),
(942,650,l),
(912,647,o),
(882,646,o),
(853,646,cs),
(818,646,o),
(784,647,o),
(749,650,c),
(749,619,l),
(774,614,o),
(814,602,o),
(820,595,c),
(788,484,o),
(750,377,o),
(711,268,cs),
(655,112,l),
(677,113,l),
(580,369,ls),
(551,445,o),
(524,518,o),
(503,595,c),
(509,601,o),
(543,614,o),
(566,619,c),
(566,650,l),
(528,647,o),
(490,646,o),
(452,646,cs),
(418,646,o),
(384,647,o),
(350,650,c),
(350,619,l),
(370,613,o),
(410,601,o),
(413,593,cs),
(541,256,ls),
(572,175,o),
(607,81,o),
(633,-11,c)
);
}
);
width = 957;
},
{
anchors = (
{
name = bottom;
pos = (492,0);
},
{
name = top;
pos = (492,654);
}
);
layerId = "66C19249-B420-404C-A3E7-B74793AC6646";
shapes = (
{
closed = 1;
nodes = (
(354,-11,l),
(389,95,o),
(427,194,o),
(475,305,cs),
(529,429,l),
(501,493,l),
(330,103,l),
(357,103,l),
(255,370,ls),
(228,442,o),
(199,523,o),
(179,596,c),
(185,603,o),
(221,615,o),
(242,620,c),
(242,658,l),
(205,655,o),
(168,654,o),
(131,654,cs),
(93,654,o),
(55,655,o),
(17,658,c),
(17,620,l),
(40,614,o),
(77,602,o),
(80,594,cs),
(207,259,ls),
(238,177,o),
(279,81,o),
(309,-11,c)
);
},
{
closed = 1;
nodes = (
(690,-11,l),
(717,98,o),
(746,199,o),
(786,314,cs),
(883,594,ls),
(886,602,o),
(930,615,o),
(956,620,c),
(956,658,l),
(925,655,o),
(893,654,o),
(862,654,cs),
(825,654,o),
(788,655,o),
(751,658,c),
(751,620,l),
(775,615,o),
(815,603,o),
(822,596,c),
(791,494,o),
(754,383,o),
(719,283,cs),
(662,118,l),
(687,119,l),
(591,370,ls),
(564,442,o),
(535,523,o),
(515,596,c),
(521,603,o),
(558,615,o),
(578,620,c),
(578,658,l),
(540,655,o),
(502,654,o),
(464,654,cs),
(427,654,o),
(390,655,o),
(353,658,c),
(353,620,l),
(376,614,o),
(413,601,o),
(416,594,cs),
(544,258,ls),
(575,176,o),
(614,81,o),
(645,-11,c)
);
}
);
width = 971;
},
{
anchors = (
{
name = bottom;
pos = (470,0);
},
{
name = top;
pos = (470,646);
}
);
layerId = m004;
shapes = (
{
closed = 1;
nodes = (
(322,-11,l),
(357,96,o),
(396,197,o),
(440,299,cs),
(499,436,l),
(481,483,l),
(312,90,l),
(335,90,l),
(231,367,ls),
(202,445,o),
(173,524,o),
(151,603,c),
(157,609,o),
(188,622,o),
(207,627,c),
(207,650,l),
(174,647,o),
(140,646,o),
(107,646,cs),
(76,646,o),
(44,647,o),
(14,650,c),
(14,627,l),
(33,621,o),
(68,609,o),
(70,601,cs),
(200,253,ls),
(232,168,o),
(265,79,o),
(289,-11,c)
);
},
{
closed = 1;
nodes = (
(653,-11,l),
(682,100,o),
(715,207,o),
(749,306,cs),
(851,601,ls),
(854,609,o),
(895,622,o),
(917,627,c),
(917,650,l),
(890,647,o),
(864,646,o),
(837,646,cs),
(806,646,o),
(776,647,o),
(745,650,c),
(745,627,l),
(768,622,o),
(802,610,o),
(808,603,c),
(772,489,o),
(734,376,o),
(695,263,cs),
(638,100,l),
(659,100,l),
(561,367,ls),
(532,445,o),
(503,524,o),
(482,603,c),
(488,609,o),
(519,622,o),
(538,627,c),
(538,650,l),
(505,647,o),
(472,646,o),
(438,646,cs),
(406,646,o),
(375,647,o),
(343,650,c),
(343,627,l),
(362,621,o),
(396,609,o),
(399,601,cs),
(529,254,ls),
(560,172,o),
(594,79,o),
(618,-11,c)
);
}
);
width = 930;
},
{
anchors = (
{
name = bottom;
pos = (478,0);
},
{
name = top;
pos = (478,646);
}
);
guides = (
{
angle = 20.8401;
pos = (122,422);
showMeasurement = 1;
},
{
angle = 20.8401;
pos = (458,332);
showMeasurement = 1;
}
);
layerId = "44D59E61-3B4F-4F98-A7D7-4CA7F8682DBB";
shapes = (
{
closed = 1;
nodes = (
(340,-11,l),
(375,96,o),
(415,198,o),
(461,301,cs),
(515,421,l),
(492,481,l),
(332,126,l),
(360,126,l),
(268,369,ls),
(239,445,o),
(214,512,o),
(193,589,c),
(200,595,o),
(230,609,o),
(254,613,c),
(254,650,l),
(210,647,o),
(166,646,o),
(123,646,cs),
(79,646,o),
(35,647,o),
(-9,650,c),
(-9,613,l),
(10,608,o),
(53,595,o),
(56,587,cs),
(182,256,ls),
(213,175,o),
(248,81,o),
(274,-11,c)
);
},
{
closed = 1;
nodes = (
(676,-11,l),
(703,98,o),
(734,202,o),
(772,310,cs),
(870,587,ls),
(872,593,o),
(918,610,o),
(942,613,c),
(942,650,l),
(910,647,o),
(878,646,o),
(846,646,cs),
(813,646,o),
(781,647,o),
(749,650,c),
(749,613,l),
(774,608,o),
(809,596,o),
(815,589,c),
(783,478,o),
(747,377,o),
(708,268,cs),
(663,142,l),
(691,143,l),
(605,369,ls),
(576,445,o),
(551,512,o),
(530,589,c),
(536,595,o),
(568,608,o),
(591,613,c),
(591,650,l),
(547,647,o),
(503,646,o),
(459,646,cs),
(415,646,o),
(371,647,o),
(327,650,c),
(327,613,l),
(348,607,o),
(389,595,o),
(392,587,cs),
(518,256,ls),
(549,175,o),
(584,81,o),
(610,-11,c)
);
}
);
width = 957;
}
);
unicode = 87;
},
{
glyphname = X;
kernLeft = KO_X;
kernRight = KO_X;
lastChange = "2025-03-15 18:13:39 +0000";
layers = (
{
anchors = (
{
name = bottom;
pos = (376,0);
},
{
name = top;
pos = (376,646);
}
);
layerId = m01;
shapes = (
{
closed = 1;
nodes = (
(57,-1,o),
(97,0,o),
(137,0,cs),
(176,0,o),
(216,-1,o),
(255,-6,c),
(255,25,l),
(231,30,o),
(187,41,o),
(187,49,c),
(239,118,o),
(289,184,o),
(344,254,cs),
(366,282,l),
(388,256,ls),
(447,188,o),
(505,119,o),
(556,49,c),
(556,41,o),
(512,30,o),
(488,25,c),
(488,-6,l),
(534,-1,o),
(579,0,o),
(625,0,cs),
(663,0,o),
(703,-1,o),
(742,-6,c),
(742,25,l),
(716,30,o),
(666,45,o),
(659,53,cs),
(422,332,l),
(462,382,ls),
(521,455,o),
(579,527,o),
(634,593,cs),
(641,602,o),
(693,614,o),
(720,619,c),
(720,650,l),
(684,647,o),
(649,646,o),
(613,646,cs),
(577,646,o),
(542,647,o),
(506,650,c),
(506,619,l),
(533,614,o),
(575,603,o),
(581,597,c),
(531,530,o),
(481,465,o),
(430,400,cs),
(399,360,l),
(385,376,ls),
(323,449,o),
(263,522,o),
(205,597,c),
(215,603,o),
(247,615,o),
(273,619,c),
(273,650,l),
(228,647,o),
(184,646,o),
(139,646,cs),
(102,646,o),
(66,647,o),
(30,650,c),
(30,619,l),
(53,613,o),
(96,601,o),
(103,593,cs),
(343,310,l),
(301,257,ls),
(244,185,o),
(190,116,o),
(136,53,cs),
(129,45,o),
(56,30,o),
(18,25,c),
(18,-6,l)
);
}
);
width = 758;
},
{
anchors = (
{
name = bottom;
pos = (393,0);
},
{
name = top;
pos = (393,654);
}
);
layerId = "66C19249-B420-404C-A3E7-B74793AC6646";
shapes = (
{
closed = 1;
nodes = (
(68,-1,o),
(114,0,o),
(160,0,cs),
(199,0,o),
(238,-1,o),
(277,-6,c),
(277,32,l),
(255,37,o),
(213,49,o),
(209,56,c),
(253,114,o),
(305,180,o),
(361,249,cs),
(383,276,l),
(409,244,ls),
(456,186,o),
(511,116,o),
(556,56,c),
(548,49,o),
(511,37,o),
(488,32,c),
(488,-6,l),
(536,-1,o),
(584,0,o),
(632,0,cs),
(673,0,o),
(715,-1,o),
(757,-6,c),
(757,32,l),
(727,37,o),
(681,52,o),
(674,60,cs),
(445,335,l),
(490,390,ls),
(544,457,o),
(599,522,o),
(660,594,cs),
(666,601,o),
(720,622,o),
(746,626,c),
(746,658,l),
(704,655,o),
(662,654,o),
(620,654,cs),
(585,654,o),
(552,655,o),
(517,658,c),
(517,626,l),
(540,620,o),
(586,604,o),
(592,598,c),
(544,537,o),
(488,466,o),
(439,405,cs),
(413,373,l),
(404,384,ls),
(349,450,o),
(286,530,o),
(235,598,c),
(243,604,o),
(283,621,o),
(303,626,c),
(303,658,l),
(258,655,o),
(214,654,o),
(169,654,cs),
(128,654,o),
(86,655,o),
(46,658,c),
(46,626,l),
(72,620,o),
(114,600,o),
(119,594,cs),
(351,314,l),
(308,261,ls),
(254,195,o),
(201,131,o),
(140,60,cs),
(133,51,o),
(65,37,o),
(22,32,c),
(22,-6,l)
);
}
);
width = 776;
},
{
anchors = (
{
name = bottom;
pos = (353,0);
},
{
name = top;
pos = (353,646);
}
);
layerId = m004;
shapes = (
{
closed = 1;
nodes = (
(55,-1,o),
(94,0,o),
(133,0,cs),
(164,0,o),
(197,-1,o),
(228,-6,c),
(228,17,l),
(207,22,o),
(171,34,o),
(167,41,c),
(215,111,o),
(267,184,o),
(320,253,cs),
(345,286,l),
(360,266,ls),
(415,192,o),
(470,116,o),
(520,41,c),
(514,34,o),
(478,22,o),
(459,17,c),
(459,-6,l),
(498,-1,o),
(537,0,o),
(576,0,cs),
(613,0,o),
(649,-1,o),
(686,-6,c),
(686,17,l),
(660,22,o),
(617,37,o),
(611,45,cs),
(394,339,l),
(432,390,ls),
(486,462,o),
(541,533,o),
(595,601,cs),
(600,608,o),
(647,622,o),
(672,627,c),
(672,650,l),
(642,647,o),
(613,646,o),
(583,646,cs),
(549,646,o),
(515,647,o),
(481,650,c),
(481,627,l),
(505,622,o),
(541,611,o),
(548,605,c),
(501,538,o),
(452,469,o),
(402,403,cs),
(374,366,l),
(364,379,ls),
(307,453,o),
(255,529,o),
(204,605,c),
(214,611,o),
(244,623,o),
(265,627,c),
(265,650,l),
(225,647,o),
(184,646,o),
(144,646,cs),
(111,646,o),
(79,647,o),
(46,650,c),
(46,627,l),
(67,621,o),
(107,607,o),
(112,601,cs),
(325,313,l),
(289,264,ls),
(233,189,o),
(178,116,o),
(122,45,cs),
(115,37,o),
(51,22,o),
(16,17,c),
(16,-6,l)
);
}
);
width = 700;
},
{
anchors = (
{
name = bottom;
pos = (396,0);
},
{
name = top;
pos = (396,646);
}
);
layerId = "44D59E61-3B4F-4F98-A7D7-4CA7F8682DBB";
shapes = (
{
closed = 1;
nodes = (
(54,-1,o),
(95,0,o),
(136,0,cs),
(176,0,o),
(217,-1,o),
(258,-6,c),
(258,31,l),
(234,36,o),
(195,47,o),
(195,55,c),
(245,115,o),
(296,174,o),
(347,232,cs),
(374,263,l),
(380,256,ls),
(439,187,o),
(492,125,o),
(543,55,c),
(543,47,o),
(504,36,o),
(480,31,c),
(480,-6,l),
(532,-1,o),
(583,0,o),
(635,0,cs),
(686,0,o),
(738,-1,o),
(789,-6,c),
(789,31,l),
(764,36,o),
(711,51,o),
(704,59,cs),
(460,347,l),
(501,394,ls),
(558,459,o),
(616,523,o),
(675,587,cs),
(682,595,o),
(738,608,o),
(765,613,c),
(765,650,l),
(728,647,o),
(691,646,o),
(654,646,cs),
(617,646,o),
(580,647,o),
(543,650,c),
(543,613,l),
(570,608,o),
(613,597,o),
(613,591,c),
(568,536,o),
(519,480,o),
(470,424,cs),
(432,380,l),
(409,407,ls),
(357,469,o),
(310,526,o),
(260,591,c),
(260,597,o),
(297,609,o),
(323,613,c),
(323,650,l),
(273,647,o),
(223,646,o),
(174,646,cs),
(124,646,o),
(74,647,o),
(24,650,c),
(24,613,l),
(47,607,o),
(93,595,o),
(100,587,cs),
(347,296,l),
(318,263,ls),
(257,193,o),
(198,128,o),
(135,59,cs),
(127,50,o),
(51,36,o),
(13,31,c),
(13,-6,l)
);
}
);
width = 800;
}
);
unicode = 88;
userData = {
KernOnName = X;
};
},
{
glyphname = Y;
kernLeft = KO_Y;
kernRight = KO_Y;
lastChange = "2025-03-15 18:15:38 +0000";
layers = (
{
anchors = (
{
name = bottom;
pos = (312,0);
},
{
name = top;
pos = (312,646);
},
{
name = topleft;
pos = (-3,646);
}
);
layerId = m01;
shapes = (
{
closed = 1;
nodes = (
(208,-1,o),
(258,0,o),
(307,0,cs),
(356,0,o),
(406,-1,o),
(455,-6,c),
(455,25,l),
(419,31,o),
(348,45,o),
(348,53,cs),
(343,102,o),
(343,158,o),
(343,214,cs),
(343,290,l),
(531,593,ls),
(534,598,o),
(577,614,o),
(600,619,c),
(600,650,l),
(575,647,o),
(542,646,o),
(518,646,cs),
(479,646,o),
(451,647,o),
(412,650,c),
(412,619,l),
(436,614,o),
(473,602,o),
(479,596,c),
(455,550,o),
(433,509,o),
(405,464,cs),
(325,336,l),
(231,488,ls),
(209,523,o),
(190,558,o),
(171,596,c),
(177,602,o),
(213,614,o),
(235,619,c),
(235,650,l),
(196,647,o),
(156,646,o),
(117,646,cs),
(83,646,o),
(49,647,o),
(15,650,c),
(15,619,l),
(36,613,o),
(75,599,o),
(79,593,cs),
(267,290,l),
(267,214,ls),
(267,158,o),
(267,102,o),
(262,53,cs),
(262,45,o),
(194,31,o),
(159,25,c),
(159,-6,l)
);
}
);
width = 615;
},
{
anchors = (
{
name = bottom;
pos = (331,0);
},
{
name = top;
pos = (331,654);
},
{
name = topleft;
pos = (-5,654);
}
);
layerId = "66C19249-B420-404C-A3E7-B74793AC6646";
shapes = (
{
closed = 1;
nodes = (
(216,-1,o),
(266,0,o),
(317,0,cs),
(367,0,o),
(418,-1,o),
(468,-6,c),
(468,32,l),
(432,38,o),
(362,52,o),
(361,60,cs),
(357,116,o),
(357,167,o),
(357,217,cs),
(357,276,l),
(558,594,ls),
(561,600,o),
(603,615,o),
(627,620,c),
(627,658,l),
(598,655,o),
(568,654,o),
(539,654,cs),
(500,654,o),
(462,655,o),
(423,658,c),
(423,620,l),
(446,615,o),
(483,603,o),
(490,597,c),
(468,556,o),
(440,505,o),
(416,466,cs),
(336,338,l),
(249,481,ls),
(230,512,o),
(204,559,o),
(184,597,c),
(190,603,o),
(227,616,o),
(248,620,c),
(248,658,l),
(205,655,o),
(162,654,o),
(120,654,cs),
(86,654,o),
(52,655,o),
(18,658,c),
(18,620,l),
(41,614,o),
(79,600,o),
(82,594,cs),
(272,276,l),
(272,217,ls),
(272,167,o),
(272,116,o),
(268,60,cs),
(267,52,o),
(199,38,o),
(165,32,c),
(165,-6,l)
);
}
);
width = 645;
},
{
anchors = (
{
name = bottom;
pos = (302,0);
},
{
name = top;
pos = (302,646);
},
{
name = topleft;
pos = (-8,646);
}
);
layerId = m004;
shapes = (
{
closed = 1;
nodes = (
(213,-1,o),
(258,0,o),
(304,0,cs),
(349,0,o),
(394,-1,o),
(439,-6,c),
(439,17,l),
(407,23,o),
(344,37,o),
(343,45,cs),
(337,99,o),
(337,157,o),
(337,214,cs),
(337,300,l),
(521,601,ls),
(524,607,o),
(563,622,o),
(583,627,c),
(583,650,l),
(557,647,o),
(532,646,o),
(506,646,cs),
(475,646,o),
(444,647,o),
(413,650,c),
(413,627,l),
(433,622,o),
(467,610,o),
(473,604,c),
(449,557,o),
(424,510,o),
(397,465,cs),
(322,341,l),
(228,486,ls),
(203,524,o),
(181,564,o),
(159,604,c),
(165,610,o),
(198,622,o),
(217,627,c),
(217,650,l),
(181,647,o),
(144,646,o),
(108,646,cs),
(77,646,o),
(45,647,o),
(14,650,c),
(14,627,l),
(33,622,o),
(69,607,o),
(72,601,cs),
(267,300,l),
(267,214,ls),
(267,157,o),
(267,99,o),
(261,45,cs),
(260,37,o),
(199,23,o),
(168,17,c),
(168,-6,l)
);
}
);
width = 597;
},
{
anchors = (
{
name = bottom;
pos = (334,0);
},
{
name = top;
pos = (334,646);
},
{
name = topleft;
pos = (19,646);
}
);
guides = (
{
pos = (327,214);
showMeasurement = 1;
},
{
angle = 31.9742;
pos = (184,422);
showMeasurement = 1;
}
);
layerId = "44D59E61-3B4F-4F98-A7D7-4CA7F8682DBB";
shapes = (
{
closed = 1;
nodes = (
(212,-1,o),
(267,0,o),
(329,0,cs),
(390,0,o),
(445,-1,o),
(501,-6,c),
(501,31,l),
(465,37,o),
(394,51,o),
(394,59,cs),
(389,108,o),
(389,158,o),
(389,214,cs),
(389,322,l),
(554,587,ls),
(557,592,o),
(603,608,o),
(626,613,c),
(626,650,l),
(593,647,o),
(561,646,o),
(528,646,cs),
(495,646,o),
(463,647,o),
(430,650,c),
(430,613,l),
(454,608,o),
(488,596,o),
(494,590,c),
(470,544,o),
(451,509,o),
(423,464,cs),
(360,364,l),
(283,488,ls),
(261,523,o),
(245,552,o),
(226,590,c),
(230,594,o),
(265,608,o),
(287,613,c),
(287,650,l),
(243,647,o),
(198,646,o),
(148,646,cs),
(100,646,o),
(56,647,o),
(11,650,c),
(11,613,l),
(32,607,o),
(74,593,o),
(78,587,cs),
(264,289,l),
(264,214,ls),
(264,158,o),
(264,108,o),
(259,59,cs),
(259,51,o),
(191,37,o),
(156,31,c),
(156,-6,l)
);
}
);
width = 637;
}
);
unicode = 89;
},
{
glyphname = Z;
kernLeft = KO_Z;
kernRight = KO_Z;
lastChange = "2025-03-15 18:17:41 +0000";
layers = (
{
anchors = (
{
name = bottom;
pos = (318,0);
},
{
name = center;
pos = (306,323);
},
{
name = top;
pos = (318,646);
}
);
layerId = m01;
shapes = (
{
closed = 1;
nodes = (
(366,0,l),
(419,0,o),
(472,-2,o),
(525,-12,c),
(602,188,l),
(570,188,l),
(548,152,o),
(524,121,o),
(495,92,cs),
(467,64,o),
(441,54,o),
(403,50,cs),
(341,44,o),
(279,39,o),
(217,39,cs),
(147,39,l),
(206,136,o),
(284,237,o),
(346,316,cs),
(586,619,l),
(586,658,l),
(525,648,o),
(476,646,o),
(427,646,cs),
(111,646,l),
(113,667,o),
(113,689,o),
(113,710,c),
(74,710,l),
(74,634,o),
(64,558,o),
(52,480,c),
(90,475,l),
(97,519,o),
(103,563,o),
(108,607,c),
(468,607,l),
(420,534,o),
(362,459,o),
(305,387,cs),
(33,40,l),
(47,0,l)
);
}
);
width = 635;
},
{
anchors = (
{
name = bottom;
pos = (328,0);
},
{
name = center;
pos = (318,327);
},
{
name = top;
pos = (328,653);
}
);
layerId = "66C19249-B420-404C-A3E7-B74793AC6646";
shapes = (
{
closed = 1;
nodes = (
(377,0,ls),
(431,0,o),
(484,-2,o),
(538,-12,c),
(615,190,l),
(576,190,l),
(557,158,o),
(538,129,o),
(513,103,cs),
(487,76,o),
(465,69,o),
(437,66,cs),
(375,59,o),
(308,56,o),
(240,56,cs),
(179,56,l),
(233,151,o),
(305,246,o),
(359,316,cs),
(599,626,l),
(599,665,l),
(537,655,o),
(487,653,o),
(438,653,cs),
(118,653,l),
(120,674,o),
(120,697,o),
(120,718,c),
(81,718,l),
(81,641,o),
(71,564,o),
(59,485,c),
(97,480,l),
(102,520,o),
(109,558,o),
(113,598,c),
(457,598,l),
(417,532,o),
(366,465,o),
(316,400,cs),
(40,40,l),
(54,0,l)
);
}
);
width = 655;
},
{
anchors = (
{
name = bottom;
pos = (285,0);
},
{
name = center;
pos = (275,323);
},
{
name = top;
pos = (285,646);
}
);
layerId = m004;
shapes = (
{
closed = 1;
nodes = (
(323,0,ls),
(370,0,o),
(416,-2,o),
(463,-12,c),
(540,188,l),
(508,188,l),
(489,149,o),
(469,115,o),
(444,83,cs),
(420,53,o),
(398,41,o),
(366,37,cs),
(299,28,o),
(232,25,o),
(165,25,cs),
(121,25,l),
(171,119,o),
(256,241,o),
(309,316,cs),
(524,619,l),
(524,658,l),
(470,648,o),
(427,646,o),
(384,646,cs),
(108,646,l),
(110,667,o),
(110,689,o),
(110,710,c),
(71,710,l),
(71,634,o),
(61,558,o),
(49,480,c),
(87,475,l),
(95,524,o),
(101,572,o),
(106,621,c),
(430,621,l),
(380,540,o),
(323,457,o),
(267,377,cs),
(30,40,l),
(44,0,l)
);
}
);
width = 570;
},
{
anchors = (
{
name = bottom;
pos = (338,0);
},
{
name = center;
pos = (326,323);
},
{
name = top;
pos = (338,646);
}
);
guides = (
{
angle = 142.5273;
pos = (166,464);
showMeasurement = 1;
}
);
layerId = "44D59E61-3B4F-4F98-A7D7-4CA7F8682DBB";
shapes = (
{
closed = 1;
nodes = (
(411,0,ls),
(464,0,o),
(517,-2,o),
(570,-12,c),
(647,188,l),
(601,188,l),
(580,153,o),
(557,124,o),
(529,96,cs),
(502,69,o),
(485,60,o),
(449,56,cs),
(392,49,o),
(335,45,o),
(278,45,cs),
(199,45,l),
(256,142,o),
(331,237,o),
(394,316,cs),
(631,619,l),
(631,658,l),
(575,648,o),
(518,646,o),
(462,646,cs),
(107,646,l),
(109,667,o),
(109,689,o),
(109,710,c),
(64,711,l),
(64,635,o),
(54,559,o),
(42,481,c),
(86,475,l),
(93,519,o),
(99,557,o),
(104,601,c),
(453,601,l),
(405,528,o),
(352,459,o),
(295,387,cs),
(23,40,l),
(37,0,l)
);
}
);
width = 670;
}
);
unicode = 90;
userData = {
KernOnName = Z;
};
},
{
glyphname = Q.alt;
kernLeft = KO_O;
kernRight = KO_Q;
lastChange = "2025-03-15 18:21:01 +0000";
layers = (
{
anchors = (
{
name = bottom;
pos = (411,0);
},
{
name = top;
pos = (411,646);
}
);
background = {
anchors = (
{
name = bottom;
pos = (411,0);
},
{
name = center;
pos = (411,323);
},
{
name = ogonek;
pos = (464,10);
},
{
name = top;
pos = (411,646);
},
{
name = topleft;
pos = (20,646);
},
{
name = topright;
pos = (801,646);
}
);
shapes = (
{
closed = 1;
nodes = (
(607,-11,o),
(766,140,o),
(766,325,cs),
(766,510,o),
(607,660,o),
(411,660,cs),
(214,660,o),
(55,510,o),
(55,325,cs),
(55,140,o),
(214,-11,o),
(411,-11,cs)
);
},
{
closed = 1;
nodes = (
(277,33,o),
(148,176,o),
(148,344,cs),
(148,501,o),
(259,616,o),
(392,616,cs),
(567,616,o),
(673,448,o),
(673,305,cs),
(673,145,o),
(558,33,o),
(428,33,cs)
);
}
);
};
guides = (
{
angle = 90;
pos = (912,80);
}
);
layerId = m01;
shapes = (
{
closed = 1;
nodes = (
(607,-11,o),
(766,140,o),
(766,325,cs),
(766,510,o),
(607,660,o),
(411,660,cs),
(214,660,o),
(55,510,o),
(55,325,cs),
(55,140,o),
(214,-11,o),
(411,-11,cs)
);
},
{
closed = 1;
nodes = (
(277,33,o),
(148,176,o),
(148,344,cs),
(148,501,o),
(259,616,o),
(392,616,cs),
(567,616,o),
(673,448,o),
(673,305,cs),
(673,145,o),
(558,33,o),
(428,33,cs)
);
},
{
closed = 1;
nodes = (
(851,-133,o),
(874,-131,o),
(897,-127,c),
(891,-103,l),
(885,-104,o),
(879,-105,o),
(872,-105,cs),
(815,-105,o),
(737,-59,o),
(582,50,c),
(473,13,l),
(598,-75,o),
(708,-133,o),
(828,-133,cs)
);
}
);
width = 821;
},
{
anchors = (
{
name = bottom;
pos = (422,0);
},
{
name = top;
pos = (422,654);
}
);
background = {
anchors = (
{
name = bottom;
pos = (426,0);
},
{
name = center;
pos = (426,327);
},
{
name = ogonek;
pos = (474,10);
},
{
name = top;
pos = (426,654);
},
{
name = topleft;
pos = (25,654);
},
{
name = topright;
pos = (827,654);
}
);
shapes = (
{
closed = 1;
nodes = (
(624,-11,o),
(786,142,o),
(786,329,cs),
(786,516,o),
(624,668,o),
(426,668,cs),
(227,668,o),
(66,516,o),
(66,329,cs),
(66,142,o),
(227,-11,o),
(426,-11,cs)
);
},
{
closed = 1;
nodes = (
(269,48,o),
(172,207,o),
(172,337,cs),
(172,512,o),
(303,609,o),
(418,609,cs),
(582,609,o),
(680,452,o),
(680,321,cs),
(680,146,o),
(549,48,o),
(434,48,cs)
);
}
);
};
layerId = "66C19249-B420-404C-A3E7-B74793AC6646";
shapes = (
{
closed = 1;
nodes = (
(624,-11,o),
(786,142,o),
(786,329,cs),
(786,516,o),
(624,668,o),
(426,668,cs),
(227,668,o),
(66,516,o),
(66,329,cs),
(66,142,o),
(227,-11,o),
(426,-11,cs)
);
},
{
closed = 1;
nodes = (
(269,48,o),
(172,207,o),
(172,337,cs),
(172,512,o),
(303,609,o),
(418,609,cs),
(582,609,o),
(680,452,o),
(680,321,cs),
(680,146,o),
(549,48,o),
(434,48,cs)
);
},
{
closed = 1;
nodes = (
(867,-143,o),
(891,-141,o),
(915,-137,c),
(906,-93,l),
(900,-94,o),
(894,-95,o),
(887,-95,cs),
(830,-95,o),
(752,-52,o),
(597,50,c),
(488,13,l),
(613,-81,o),
(723,-143,o),
(843,-143,cs)
);
}
);
width = 852;
},
{
anchors = (
{
name = bottom;
pos = (361,0);
},
{
name = top;
pos = (361,646);
}
);
background = {
anchors = (
{
name = bottom;
pos = (361,0);
},
{
name = center;
pos = (361,323);
},
{
name = ogonek;
pos = (411,10);
},
{
name = top;
pos = (361,646);
},
{
name = topleft;
pos = (21,646);
},
{
name = topright;
pos = (701,646);
}
);
shapes = (
{
closed = 1;
nodes = (
(533,-11,o),
(672,140,o),
(672,325,cs),
(672,510,o),
(533,660,o),
(361,660,cs),
(189,660,o),
(50,510,o),
(50,325,cs),
(50,140,o),
(189,-11,o),
(361,-11,cs)
);
},
{
closed = 1;
nodes = (
(247,34,o),
(122,189,o),
(122,367,cs),
(122,506,o),
(214,615,o),
(331,615,cs),
(475,615,o),
(600,461,o),
(600,282,cs),
(600,145,o),
(506,34,o),
(391,34,cs)
);
}
);
};
layerId = m004;
shapes = (
{
closed = 1;
nodes = (
(533,-11,o),
(672,140,o),
(672,325,cs),
(672,510,o),
(533,660,o),
(361,660,cs),
(189,660,o),
(50,510,o),
(50,325,cs),
(50,140,o),
(189,-11,o),
(361,-11,cs)
);
},
{
closed = 1;
nodes = (
(247,34,o),
(122,189,o),
(122,367,cs),
(122,506,o),
(214,615,o),
(331,615,cs),
(475,615,o),
(600,461,o),
(600,282,cs),
(600,145,o),
(506,34,o),
(391,34,cs)
);
},
{
closed = 1;
nodes = (
(801,-133,o),
(824,-131,o),
(847,-127,c),
(843,-108,l),
(837,-109,o),
(831,-110,o),
(824,-110,cs),
(761,-110,o),
(665,-70,o),
(499,53,c),
(423,13,l),
(548,-75,o),
(658,-133,o),
(778,-133,cs)
);
}
);
width = 722;
},
{
anchors = (
{
name = bottom;
pos = (421,0);
},
{
name = top;
pos = (421,646);
}
);
background = {
anchors = (
{
name = bottom;
pos = (424,0);
},
{
name = center;
pos = (424,323);
},
{
name = ogonek;
pos = (477,10);
},
{
name = top;
pos = (424,646);
},
{
name = topleft;
pos = (33,646);
},
{
name = topright;
pos = (814,646);
}
);
shapes = (
{
closed = 1;
nodes = (
(637,-11,o),
(808,140,o),
(808,325,cs),
(808,510,o),
(637,660,o),
(424,660,cs),
(210,660,o),
(39,510,o),
(39,325,cs),
(39,140,o),
(210,-11,o),
(424,-11,cs)
);
},
{
closed = 1;
nodes = (
(313,39,o),
(205,179,o),
(205,344,cs),
(205,497,o),
(297,610,o),
(408,610,cs),
(554,610,o),
(642,445,o),
(642,305,cs),
(642,149,o),
(546,39,o),
(438,39,cs)
);
}
);
};
guides = (
{
angle = 90;
pos = (922,80);
}
);
layerId = "44D59E61-3B4F-4F98-A7D7-4CA7F8682DBB";
shapes = (
{
closed = 1;
nodes = (
(637,-11,o),
(808,140,o),
(808,325,cs),
(808,510,o),
(637,660,o),
(424,660,cs),
(210,660,o),
(39,510,o),
(39,325,cs),
(39,140,o),
(210,-11,o),
(424,-11,cs)
);
},
{
closed = 1;
nodes = (
(313,39,o),
(205,179,o),
(205,344,cs),
(205,497,o),
(297,610,o),
(408,610,cs),
(554,610,o),
(642,445,o),
(642,305,cs),
(642,149,o),
(546,39,o),
(438,39,cs)
);
},
{
closed = 1;
nodes = (
(861,-133,o),
(884,-131,o),
(907,-127,c),
(901,-93,l),
(895,-94,o),
(889,-95,o),
(882,-95,cs),
(829,-95,o),
(756,-52,o),
(612,50,c),
(463,13,l),
(595,-75,o),
(711,-133,o),
(838,-133,cs)
);
}
);
width = 847;
}
);
metricLeft = O;
metricWidth = O;
},
{
glyphname = R.alt;
kernLeft = KO_H;
lastChange = "2025-03-15 18:22:01 +0000";
layers = (
{
anchors = (
{
name = bottom;
pos = (339,0);
},
{
name = top;
pos = (271,646);
}
);
layerId = m01;
shapes = (
{
closed = 1;
nodes = (
(73,-1,o),
(109,0,o),
(146,0,cs),
(183,0,o),
(219,-1,o),
(256,-5,c),
(256,26,l),
(233,31,o),
(189,46,o),
(188,54,cs),
(185,85,o),
(184,132,o),
(184,214,cs),
(184,419,ls),
(184,526,o),
(186,576,o),
(192,627,c),
(100,627,l),
(106,576,o),
(108,526,o),
(108,419,cs),
(108,214,ls),
(108,132,o),
(107,85,o),
(104,54,cs),
(103,46,o),
(58,32,o),
(36,26,c),
(36,-5,l)
);
},
{
closed = 1;
nodes = (
(399,286,o),
(505,368,o),
(505,476,cs),
(505,577,o),
(411,650,o),
(267,650,cs),
(234,650,o),
(193,646,o),
(142,646,cs),
(103,646,o),
(64,648,o),
(43,650,c),
(43,619,l),
(65,613,o),
(85,605,o),
(103,594,c),
(161,605,l),
(187,609,o),
(214,611,o),
(240,611,cs),
(338,611,o),
(412,549,o),
(412,465,cs),
(412,392,o),
(355,325,o),
(254,325,cs),
(225,325,o),
(194,331,o),
(164,345,c),
(164,306,l),
(197,291,o),
(230,286,o),
(262,286,cs)
);
},
{
closed = 1;
nodes = (
(573,-11,o),
(599,-2,o),
(617,12,c),
(617,36,l),
(587,30,o),
(566,32,o),
(547,50,cs),
(465,133,o),
(406,220,o),
(355,329,c),
(257,296,l),
(286,285,o),
(301,263,o),
(319,231,cs),
(375,133,o),
(472,-11,o),
(552,-11,cs)
);
}
);
width = 632;
},
{
anchors = (
{
name = bottom;
pos = (340,0);
},
{
name = top;
pos = (290,654);
}
);
layerId = "66C19249-B420-404C-A3E7-B74793AC6646";
shapes = (
{
closed = 1;
nodes = (
(81,-1,o),
(121,0,o),
(162,0,cs),
(203,0,o),
(243,-1,o),
(284,-5,c),
(284,33,l),
(257,38,o),
(202,53,o),
(201,61,cs),
(198,102,o),
(197,146,o),
(197,217,cs),
(197,424,ls),
(197,533,o),
(199,583,o),
(205,635,c),
(104,635,l),
(110,583,o),
(112,533,o),
(112,424,cs),
(112,217,ls),
(112,146,o),
(111,102,o),
(108,61,cs),
(107,53,o),
(63,39,o),
(40,33,c),
(40,-5,l)
);
},
{
closed = 1;
nodes = (
(413,290,o),
(521,373,o),
(521,482,cs),
(521,584,o),
(425,658,o),
(279,658,cs),
(245,658,o),
(203,654,o),
(151,654,cs),
(117,654,o),
(82,656,o),
(48,658,c),
(48,620,l),
(71,613,o),
(91,605,o),
(108,595,c),
(174,596,l),
(201,600,o),
(227,602,o),
(254,602,cs),
(353,602,o),
(428,546,o),
(428,471,cs),
(428,405,o),
(369,345,o),
(266,345,cs),
(236,345,o),
(204,350,o),
(173,363,c),
(173,310,l),
(206,295,o),
(240,290,o),
(274,290,cs)
);
},
{
closed = 1;
nodes = (
(579,-11,o),
(605,-7,o),
(626,-2,c),
(626,42,l),
(597,36,o),
(564,50,o),
(542,72,cs),
(480,135,o),
(422,225,o),
(373,332,c),
(260,300,l),
(287,289,o),
(304,266,o),
(322,234,cs),
(379,134,o),
(475,-11,o),
(556,-11,cs)
);
}
);
width = 643;
},
{
anchors = (
{
name = bottom;
pos = (313,0);
},
{
name = top;
pos = (256,646);
}
);
layerId = m004;
shapes = (
{
closed = 1;
nodes = (
(68,-1,o),
(104,0,o),
(140,0,cs),
(176,0,o),
(212,-1,o),
(248,-5,c),
(248,18,l),
(223,23,o),
(174,38,o),
(173,46,cs),
(169,81,o),
(168,127,o),
(168,214,cs),
(168,419,ls),
(168,530,o),
(170,579,o),
(175,627,c),
(91,627,l),
(96,579,o),
(98,530,o),
(98,419,cs),
(98,214,ls),
(98,127,o),
(97,81,o),
(93,46,cs),
(92,38,o),
(53,24,o),
(32,18,c),
(32,-5,l)
);
},
{
closed = 1;
nodes = (
(355,286,o),
(449,368,o),
(449,476,cs),
(449,577,o),
(366,650,o),
(239,650,cs),
(210,650,o),
(174,646,o),
(129,646,cs),
(92,646,o),
(59,648,o),
(39,650,c),
(39,627,l),
(60,620,o),
(78,612,o),
(93,602,c),
(143,617,l),
(168,622,o),
(192,625,o),
(217,625,cs),
(309,625,o),
(379,557,o),
(379,465,cs),
(379,385,o),
(326,311,o),
(232,311,cs),
(205,311,o),
(176,318,o),
(148,333,c),
(148,306,l),
(177,291,o),
(206,286,o),
(235,286,cs)
);
},
{
closed = 1;
nodes = (
(511,-11,o),
(537,-3,o),
(552,13,c),
(552,33,l),
(521,26,o),
(509,29,o),
(494,46,cs),
(420,131,o),
(371,215,o),
(326,330,c),
(234,296,l),
(260,285,o),
(272,267,o),
(289,232,cs),
(337,135,o),
(424,-11,o),
(496,-11,cs)
);
}
);
width = 566;
},
{
anchors = (
{
name = bottom;
pos = (331,0);
},
{
name = top;
pos = (271,646);
}
);
background = {
anchors = (
{
name = bottom;
pos = (352,0);
},
{
name = top;
pos = (284,646);
}
);
shapes = (
{
closed = 1;
nodes = (
(60,-1,o),
(96,0,o),
(160,0,cs),
(221,0,o),
(257,-1,o),
(293,-5,c),
(293,32,l),
(270,37,o),
(226,52,o),
(225,60,cs),
(222,91,o),
(221,138,o),
(221,220,cs),
(221,419,ls),
(221,526,o),
(223,576,o),
(229,627,c),
(87,627,l),
(93,576,o),
(95,526,o),
(95,419,cs),
(95,220,ls),
(95,138,o),
(94,91,o),
(91,60,cs),
(90,52,o),
(45,38,o),
(23,32,c),
(23,-5,l)
);
},
{
closed = 1;
nodes = (
(432,286,o),
(547,368,o),
(547,476,cs),
(547,577,o),
(445,650,o),
(290,650,cs),
(255,650,o),
(210,646,o),
(155,646,cs),
(109,646,o),
(70,648,o),
(31,650,c),
(31,613,l),
(53,607,o),
(73,599,o),
(91,588,c),
(156,599,l),
(179,604,o),
(216,605,o),
(238,605,cs),
(320,605,o),
(381,546,o),
(381,465,cs),
(381,395,o),
(333,331,o),
(250,331,cs),
(225,331,o),
(200,337,o),
(177,351,c),
(178,306,l),
(215,291,o),
(250,286,o),
(284,286,cs)
);
},
{
closed = 1;
nodes = (
(618,-11,o),
(665,-2,o),
(690,12,c),
(690,42,l),
(664,36,o),
(645,40,o),
(629,53,cs),
(532,136,o),
(463,223,o),
(403,332,c),
(245,296,l),
(279,285,o),
(297,263,o),
(318,231,cs),
(383,133,o),
(496,-11,o),
(590,-11,cs)
);
}
);
};
layerId = "44D59E61-3B4F-4F98-A7D7-4CA7F8682DBB";
shapes = (
{
closed = 1;
nodes = (
(60,-1,o),
(96,0,o),
(160,0,cs),
(221,0,o),
(257,-1,o),
(293,-5,c),
(293,32,l),
(270,37,o),
(226,52,o),
(225,60,cs),
(222,91,o),
(221,138,o),
(221,220,cs),
(221,419,ls),
(221,526,o),
(223,576,o),
(229,627,c),
(87,627,l),
(93,576,o),
(95,526,o),
(95,419,cs),
(95,220,ls),
(95,138,o),
(94,91,o),
(91,60,cs),
(90,52,o),
(45,38,o),
(23,32,c),
(23,-5,l)
);
},
{
closed = 1;
nodes = (
(432,286,o),
(547,368,o),
(547,476,cs),
(547,577,o),
(445,650,o),
(290,650,cs),
(255,650,o),
(210,646,o),
(155,646,cs),
(109,646,o),
(70,648,o),
(31,650,c),
(31,613,l),
(53,607,o),
(73,599,o),
(91,588,c),
(156,599,l),
(179,604,o),
(216,605,o),
(238,605,cs),
(320,605,o),
(381,546,o),
(381,465,cs),
(381,395,o),
(333,331,o),
(250,331,cs),
(225,331,o),
(200,337,o),
(177,351,c),
(178,306,l),
(215,291,o),
(250,286,o),
(284,286,cs)
);
},
{
closed = 1;
nodes = (
(571,-11,o),
(613,-2,o),
(635,12,c),
(635,42,l),
(614,36,o),
(598,40,o),
(584,53,cs),
(504,136,o),
(448,223,o),
(398,332,c),
(240,296,l),
(270,285,o),
(286,263,o),
(305,231,cs),
(363,133,o),
(463,-11,o),
(546,-11,cs)
);
}
);
width = 646;
}
);
metricLeft = "=H*0.6";
},
{
glyphname = Y.alt;
lastChange = "2025-03-19 21:02:27 +0000";
layers = (
{
anchors = (
{
name = bottom;
pos = (381,0);
},
{
name = top;
pos = (381,646);
},
{
name = topleft;
pos = (20,646);
}
);
layerId = m01;
shapes = (
{
closed = 1;
nodes = (
(283,-1,o),
(333,0,o),
(382,0,cs),
(431,0,o),
(481,-1,o),
(530,-6,c),
(530,25,l),
(494,31,o),
(423,45,o),
(423,53,cs),
(418,102,o),
(418,158,o),
(418,214,cs),
(418,361,o),
(536,610,o),
(727,613,cs),
(734,613,o),
(741,613,o),
(747,612,c),
(747,655,l),
(736,659,o),
(726,660,o),
(715,660,cs),
(558,660,o),
(421,471,o),
(383,290,c),
(362,507,o),
(241,660,o),
(137,660,cs),
(94,660,o),
(49,643,o),
(16,613,c),
(37,581,l),
(59,589,o),
(80,593,o),
(102,593,cs),
(244,593,o),
(342,345,o),
(342,214,cs),
(342,158,o),
(342,102,o),
(337,53,cs),
(337,45,o),
(269,31,o),
(234,25,c),
(234,-6,l)
);
}
);
width = 761;
},
{
anchors = (
{
name = bottom;
pos = (385,0);
},
{
name = top;
pos = (385,654);
},
{
name = topleft;
pos = (20,654);
}
);
layerId = "66C19249-B420-404C-A3E7-B74793AC6646";
shapes = (
{
closed = 1;
nodes = (
(284,-1,o),
(334,0,o),
(385,0,cs),
(435,0,o),
(486,-1,o),
(536,-6,c),
(536,32,l),
(501,38,o),
(430,52,o),
(429,60,cs),
(425,116,o),
(425,167,o),
(425,217,cs),
(425,359,o),
(543,603,o),
(730,603,cs),
(737,603,o),
(744,603,o),
(750,602,c),
(750,663,l),
(739,667,o),
(729,668,o),
(718,668,cs),
(561,668,o),
(424,477,o),
(386,294,c),
(365,513,o),
(244,668,o),
(140,668,cs),
(97,668,o),
(53,651,o),
(19,620,c),
(54,568,l),
(75,576,o),
(95,580,o),
(116,580,cs),
(248,580,o),
(340,342,o),
(340,217,cs),
(340,167,o),
(340,116,o),
(336,60,cs),
(335,52,o),
(266,38,o),
(233,32,c),
(233,-6,l)
);
}
);
width = 769;
},
{
anchors = (
{
name = bottom;
pos = (343,0);
},
{
name = top;
pos = (343,646);
},
{
name = topleft;
pos = (20,646);
}
);
layerId = m004;
shapes = (
{
closed = 1;
nodes = (
(253,-1,o),
(298,0,o),
(344,0,cs),
(389,0,o),
(434,-1,o),
(479,-6,c),
(479,17,l),
(447,23,o),
(384,37,o),
(383,45,cs),
(377,99,o),
(377,157,o),
(377,214,cs),
(377,365,o),
(483,625,o),
(654,625,cs),
(660,625,o),
(667,625,o),
(672,624,c),
(672,655,l),
(662,659,o),
(653,660,o),
(643,660,cs),
(501,660,o),
(378,470,o),
(344,290,c),
(325,506,o),
(217,660,o),
(123,660,cs),
(84,660,o),
(44,643,o),
(14,613,c),
(33,600,l),
(53,609,o),
(71,613,o),
(91,613,cs),
(220,613,o),
(307,351,o),
(307,214,cs),
(307,157,o),
(307,99,o),
(301,45,cs),
(300,37,o),
(239,23,o),
(208,17,c),
(208,-6,l)
);
}
);
width = 686;
},
{
anchors = (
{
name = bottom;
pos = (376,0);
},
{
name = top;
pos = (376,646);
},
{
name = topleft;
pos = (15,646);
}
);
layerId = "44D59E61-3B4F-4F98-A7D7-4CA7F8682DBB";
shapes = (
{
closed = 1;
nodes = (
(252,-1,o),
(309,0,o),
(377,0,cs),
(445,0,o),
(502,-1,o),
(560,-6,c),
(560,31,l),
(524,37,o),
(453,51,o),
(453,59,cs),
(448,108,o),
(448,158,o),
(448,214,cs),
(448,348,o),
(552,575,o),
(722,578,cs),
(729,578,o),
(736,578,o),
(742,577,c),
(742,655,l),
(731,659,o),
(721,660,o),
(710,660,cs),
(553,660,o),
(416,471,o),
(378,290,c),
(357,507,o),
(236,660,o),
(132,660,cs),
(89,660,o),
(44,643,o),
(11,613,c),
(49,551,l),
(70,559,o),
(89,563,o),
(111,563,cs),
(223,563,o),
(302,335,o),
(302,214,cs),
(302,158,o),
(302,108,o),
(297,59,cs),
(297,51,o),
(229,37,o),
(194,31,c),
(194,-6,l)
);
}
);
width = 752;
}
);
},
{
glyphname = a;
kernLeft = KO_a;
kernRight = KO_a;
lastChange = "2025-02-26 11:53:52 +0000";
layers = (
{
anchors = (
{
name = bottom;
pos = (236,0);
},
{
name = ogonek;
pos = (409,10);
},
{
name = top;
pos = (222,465);
}
);
layerId = m01;
shapes = (
{
closed = 1;
nodes = (
(211,-12,o),
(251,11,o),
(285,64,c),
(292,15,o),
(323,-12,o),
(355,-12,cs),
(386,-12,o),
(420,14,o),
(451,67,c),
(426,87,l),
(411,65,o),
(397,56,o),
(384,56,cs),
(364,56,o),
(350,81,o),
(350,119,cs),
(350,236,o),
(357,290,o),
(357,354,cs),
(357,425,o),
(311,477,o),
(254,477,cs),
(166,477,o),
(67,419,o),
(67,350,cs),
(67,343,o),
(68,334,o),
(72,322,c),
(142,339,l),
(138,347,o),
(135,357,o),
(135,369,cs),
(135,381,o),
(139,390,o),
(142,396,cs),
(152,412,o),
(185,437,o),
(223,437,cs),
(270,437,o),
(289,408,o),
(289,329,cs),
(289,307,o),
(289,284,o),
(287,262,c),
(118,219,o),
(55,171,o),
(55,90,cs),
(55,29,o),
(99,-12,o),
(165,-12,cs)
);
},
{
closed = 1;
nodes = (
(152,49,o),
(125,72,o),
(125,108,cs),
(125,158,o),
(173,196,o),
(287,227,c),
(285,184,o),
(284,156,o),
(284,112,c),
(253,69,o),
(216,49,o),
(183,49,cs)
);
}
);
width = 468;
},
{
anchors = (
{
name = bottom;
pos = (289,0);
},
{
name = ogonek;
pos = (499,10);
},
{
name = top;
pos = (275,526);
}
);
background = {
shapes = (
{
closed = 1;
nodes = (
(262,-12,o),
(307,14,o),
(350,73,c),
(359,18,o),
(396,-12,o),
(439,-12,cs),
(481,-12,o),
(521,17,o),
(555,77,c),
(524,99,l),
(505,75,o),
(492,62,o),
(473,62,cs),
(444,62,o),
(427,93,o),
(427,148,cs),
(427,230,o),
(432,309,o),
(432,391,cs),
(432,476,o),
(379,538,o),
(312,538,cs),
(210,538,o),
(93,470,o),
(93,388,cs),
(93,380,o),
(94,369,o),
(99,355,c),
(164,389,l),
(162,394,o),
(161,401,o),
(161,407,cs),
(161,420,o),
(166,430,o),
(170,436,cs),
(183,454,o),
(225,481,o),
(273,481,cs),
(332,481,o),
(356,454,o),
(356,370,cs),
(356,345,o),
(355,319,o),
(353,294,c),
(150,245,o),
(66,194,o),
(66,101,cs),
(66,34,o),
(121,-12,o),
(201,-12,cs)
);
},
{
closed = 1;
nodes = (
(182,56,o),
(146,82,o),
(146,118,cs),
(146,173,o),
(211,212,o),
(353,245,c),
(351,210,o),
(351,174,o),
(351,134,c),
(312,82,o),
(265,56,o),
(219,56,cs)
);
}
);
};
guides = (
{
angle = 103.5704;
pos = (346,270);
showMeasurement = 1;
},
{
angle = 194.2753;
pos = (202,381);
}
);
layerId = "66C19249-B420-404C-A3E7-B74793AC6646";
shapes = (
{
closed = 1;
nodes = (
(262,-12,o),
(307,14,o),
(350,73,c),
(359,18,o),
(396,-12,o),
(439,-12,cs),
(481,-12,o),
(521,17,o),
(555,77,c),
(524,99,l),
(505,75,o),
(492,62,o),
(473,62,cs),
(442,62,o),
(424,93,o),
(424,148,cs),
(424,230,o),
(429,309,o),
(429,391,cs),
(429,476,o),
(375,538,o),
(308,538,cs),
(203,538,o),
(83,469,o),
(83,386,cs),
(83,377,o),
(84,366,o),
(89,352,c),
(170,373,l),
(164,385,o),
(161,397,o),
(161,407,cs),
(161,420,o),
(166,430,o),
(170,436,cs),
(183,454,o),
(225,481,o),
(273,481,cs),
(332,481,o),
(356,454,o),
(356,370,cs),
(356,345,o),
(355,319,o),
(353,294,c),
(150,245,o),
(66,194,o),
(66,101,cs),
(66,34,o),
(121,-12,o),
(201,-12,cs)
);
},
{
closed = 1;
nodes = (
(182,56,o),
(146,82,o),
(146,118,cs),
(146,173,o),
(211,212,o),
(353,245,c),
(351,210,o),
(351,174,o),
(351,134,c),
(312,82,o),
(265,56,o),
(219,56,cs)
);
}
);
width = 575;
},
{
anchors = (
{
name = bottom;
pos = (207,0);
},
{
name = ogonek;
pos = (359,10);
},
{
name = top;
pos = (203,404);
}
);
background = {
shapes = (
{
closed = 1;
nodes = (
(188,-12,o),
(223,9,o),
(257,62,c),
(266,15,o),
(292,-12,o),
(322,-12,cs),
(350,-12,o),
(375,11,o),
(403,57,c),
(381,75,l),
(367,55,o),
(356,48,o),
(345,48,cs),
(326,48,o),
(313,70,o),
(313,116,cs),
(313,178,o),
(320,241,o),
(320,303,cs),
(320,369,o),
(281,417,o),
(231,417,cs),
(153,417,o),
(69,364,o),
(69,301,cs),
(69,294,o),
(70,286,o),
(74,275,c),
(123,301,l),
(122,306,o),
(121,312,o),
(121,317,cs),
(121,330,o),
(124,340,o),
(127,345,cs),
(136,361,o),
(165,387,o),
(200,387,cs),
(243,387,o),
(260,359,o),
(260,282,cs),
(260,264,o),
(260,251,o),
(258,234,c),
(103,194,o),
(50,149,o),
(50,79,cs),
(50,25,o),
(88,-12,o),
(148,-12,cs)
);
},
{
closed = 1;
nodes = (
(134,41,o),
(113,63,o),
(113,98,cs),
(113,144,o),
(151,178,o),
(257,211,c),
(256,173,o),
(256,137,o),
(256,98,c),
(226,58,o),
(193,41,o),
(164,41,cs)
);
}
);
};
guides = (
{
angle = 104.4703;
pos = (252,222);
showMeasurement = 1;
},
{
angle = 194.2753;
pos = (212,310);
}
);
layerId = m004;
shapes = (
{
closed = 1;
nodes = (
(188,-12,o),
(223,9,o),
(257,62,c),
(266,15,o),
(292,-12,o),
(322,-12,cs),
(350,-12,o),
(375,11,o),
(403,57,c),
(381,75,l),
(367,55,o),
(356,48,o),
(345,48,cs),
(326,48,o),
(313,70,o),
(313,116,cs),
(313,178,o),
(320,241,o),
(320,303,cs),
(320,369,o),
(279,417,o),
(227,417,cs),
(146,417,o),
(59,363,o),
(59,299,cs),
(59,291,o),
(60,283,o),
(64,272,c),
(128,289,l),
(124,297,o),
(121,307,o),
(121,317,cs),
(121,330,o),
(124,340,o),
(127,345,cs),
(136,361,o),
(165,387,o),
(200,387,cs),
(243,387,o),
(260,359,o),
(260,282,cs),
(260,264,o),
(260,251,o),
(258,234,c),
(103,194,o),
(50,149,o),
(50,79,cs),
(50,25,o),
(88,-12,o),
(148,-12,cs)
);
},
{
closed = 1;
nodes = (
(134,41,o),
(113,63,o),
(113,98,cs),
(113,144,o),
(151,178,o),
(257,211,c),
(256,173,o),
(256,137,o),
(256,98,c),
(226,58,o),
(193,41,o),
(164,41,cs)
);
}
);
width = 418;
},
{
anchors = (
{
name = bottom;
pos = (250,0);
},
{
name = ogonek;
pos = (423,10);
},
{
name = top;
pos = (259,465);
}
);
layerId = "44D59E61-3B4F-4F98-A7D7-4CA7F8682DBB";
shapes = (
{
closed = 1;
nodes = (
(214,-12,o),
(258,10,o),
(295,62,c),
(302,14,o),
(336,-12,o),
(390,-12,cs),
(443,-12,o),
(477,14,o),
(509,67,c),
(481,90,l),
(467,70,o),
(454,62,o),
(442,62,cs),
(422,62,o),
(408,87,o),
(408,125,cs),
(408,242,o),
(413,290,o),
(413,354,cs),
(413,425,o),
(355,477,o),
(259,477,cs),
(150,477,o),
(51,417,o),
(51,346,cs),
(51,339,o),
(52,329,o),
(56,317,c),
(175,344,l),
(172,351,o),
(169,360,o),
(169,371,cs),
(169,381,o),
(172,389,o),
(175,395,cs),
(184,409,o),
(213,431,o),
(246,431,cs),
(283,431,o),
(299,402,o),
(299,329,cs),
(299,307,o),
(299,287,o),
(297,265,c),
(109,222,o),
(39,168,o),
(39,91,cs),
(39,26,o),
(89,-12,o),
(161,-12,cs)
);
},
{
closed = 1;
nodes = (
(188,49,o),
(165,72,o),
(165,108,cs),
(165,157,o),
(204,194,o),
(297,224,c),
(294,183,o),
(294,156,o),
(294,114,c),
(269,70,o),
(240,49,o),
(215,49,cs)
);
}
);
width = 521;
}
);
unicode = 97;
userData = {
KernOnName = a;
};
},
{
glyphname = aogonek;
kernLeft = KO_a;
kernRight = KO_a;
lastChange = "2025-02-28 00:44:48 +0000";
layers = (
{
anchors = (
{
name = top;
pos = (234,465);
}
);
background = {
shapes = (
{
closed = 0;
nodes = (
(357,354,ls),
(357,425,o),
(313,477,o),
(258,477,cs),
(173,477,o),
(77,420,o),
(77,352,cs),
(77,345,o),
(78,336,o),
(82,324,c),
(137,353,l),
(136,358,o),
(135,364,o),
(135,369,cs),
(135,381,o),
(139,390,o),
(142,396,cs),
(152,412,o),
(185,437,o),
(223,437,cs),
(270,437,o),
(289,408,o),
(289,329,cs)
);
}
);
};
layerId = m01;
shapes = (
{
closed = 1;
nodes = (
(390,-260,o),
(412,-246,o),
(439,-212,c),
(439,-185,l),
(422,-202,o),
(408,-210,o),
(386,-210,cs),
(348,-210,o),
(328,-187,o),
(328,-139,cs),
(328,-96,o),
(349,-40,o),
(406,10,cs),
(421,23,o),
(436,42,o),
(451,67,c),
(426,87,l),
(411,65,o),
(397,56,o),
(384,56,cs),
(364,56,o),
(350,81,o),
(350,119,cs),
(350,236,o),
(357,290,o),
(357,354,cs),
(357,425,o),
(313,477,o),
(258,477,cs),
(173,477,o),
(77,420,o),
(77,352,cs),
(77,345,o),
(78,336,o),
(82,324,c),
(137,353,l),
(136,358,o),
(135,364,o),
(135,369,cs),
(135,381,o),
(139,390,o),
(142,396,cs),
(152,412,o),
(185,437,o),
(223,437,cs),
(270,437,o),
(289,408,o),
(289,329,cs),
(289,307,o),
(289,284,o),
(287,262,c),
(118,219,o),
(55,171,o),
(55,90,cs),
(55,29,o),
(99,-12,o),
(165,-12,cs),
(211,-12,o),
(251,11,o),
(285,64,c),
(292,15,o),
(323,-12,o),
(355,-12,cs),
(373,-12,l),
(377,5,l),
(308,-50,o),
(267,-115,o),
(267,-169,cs),
(267,-220,o),
(298,-260,o),
(350,-260,cs)
);
},
{
closed = 1;
nodes = (
(152,49,o),
(125,72,o),
(125,108,cs),
(125,158,o),
(173,196,o),
(287,227,c),
(285,184,o),
(284,156,o),
(284,112,c),
(253,69,o),
(216,49,o),
(183,49,cs)
);
}
);
width = 468;
},
{
anchors = (
{
name = top;
pos = (287,526);
}
);
background = {
anchors = (
{
name = bottom;
pos = (289,0);
},
{
name = ogonek;
pos = (499,10);
},
{
name = top;
pos = (265,526);
}
);
shapes = (
{
closed = 1;
nodes = (
(262,-12,o),
(307,14,o),
(350,73,c),
(359,18,o),
(396,-12,o),
(439,-12,cs),
(481,-12,o),
(521,17,o),
(555,77,c),
(524,99,l),
(505,75,o),
(492,62,o),
(473,62,cs),
(444,62,o),
(427,93,o),
(427,148,cs),
(427,230,o),
(432,309,o),
(432,391,cs),
(432,476,o),
(379,538,o),
(312,538,cs),
(210,538,o),
(93,470,o),
(93,388,cs),
(93,380,o),
(94,369,o),
(99,355,c),
(164,389,l),
(162,394,o),
(161,401,o),
(161,407,cs),
(161,420,o),
(166,430,o),
(170,436,cs),
(183,454,o),
(225,481,o),
(273,481,cs),
(332,481,o),
(356,454,o),
(356,370,cs),
(356,345,o),
(355,319,o),
(353,294,c),
(150,245,o),
(66,194,o),
(66,101,cs),
(66,34,o),
(121,-12,o),
(201,-12,cs)
);
},
{
closed = 1;
nodes = (
(182,56,o),
(146,82,o),
(146,118,cs),
(146,173,o),
(211,212,o),
(353,245,c),
(351,210,o),
(351,174,o),
(351,134,c),
(312,82,o),
(265,56,o),
(219,56,cs)
);
}
);
};
layerId = "66C19249-B420-404C-A3E7-B74793AC6646";
shapes = (
{
closed = 1;
nodes = (
(487,-260,o),
(510,-248,o),
(538,-212,c),
(538,-186,l),
(520,-204,o),
(506,-210,o),
(485,-210,cs),
(446,-210,o),
(427,-186,o),
(427,-139,cs),
(427,-89,o),
(455,-25,o),
(496,7,cs),
(520,26,o),
(536,45,o),
(555,77,c),
(524,99,l),
(505,75,o),
(492,62,o),
(473,62,cs),
(444,62,o),
(427,93,o),
(427,148,cs),
(427,230,o),
(432,309,o),
(432,391,cs),
(432,476,o),
(379,538,o),
(312,538,cs),
(210,538,o),
(93,470,o),
(93,388,cs),
(93,380,o),
(94,369,o),
(99,355,c),
(164,389,l),
(162,394,o),
(161,401,o),
(161,407,cs),
(161,420,o),
(166,430,o),
(170,436,cs),
(183,454,o),
(225,481,o),
(273,481,cs),
(332,481,o),
(356,454,o),
(356,370,cs),
(356,344,o),
(355,320,o),
(353,294,c),
(150,245,o),
(66,194,o),
(66,101,cs),
(66,34,o),
(121,-12,o),
(201,-12,cs),
(262,-12,o),
(307,14,o),
(350,73,c),
(359,18,o),
(396,-12,o),
(439,-12,cs),
(454,-12,l),
(470,7,l),
(403,-49,o),
(366,-114,o),
(366,-169,cs),
(366,-223,o),
(400,-260,o),
(449,-260,cs)
);
},
{
closed = 1;
nodes = (
(182,56,o),
(146,82,o),
(146,118,cs),
(146,173,o),
(211,212,o),
(353,245,c),
(351,210,o),
(351,174,o),
(351,134,c),
(312,82,o),
(265,56,o),
(219,56,cs)
);
}
);
width = 575;
},
{
anchors = (
{
name = top;
pos = (214,404);
}
);
background = {
anchors = (
{
name = bottom;
pos = (207,0);
},
{
name = ogonek;
pos = (359,10);
},
{
name = top;
pos = (195,404);
}
);
shapes = (
{
closed = 1;
nodes = (
(188,-12,o),
(223,9,o),
(257,62,c),
(266,15,o),
(292,-12,o),
(322,-12,cs),
(350,-12,o),
(375,11,o),
(403,57,c),
(381,75,l),
(367,55,o),
(356,48,o),
(345,48,cs),
(326,48,o),
(313,70,o),
(313,116,cs),
(313,178,o),
(320,241,o),
(320,303,cs),
(320,369,o),
(281,417,o),
(231,417,cs),
(153,417,o),
(69,364,o),
(69,301,cs),
(69,294,o),
(70,286,o),
(74,275,c),
(123,301,l),
(122,306,o),
(121,312,o),
(121,317,cs),
(121,330,o),
(124,340,o),
(127,345,cs),
(136,361,o),
(165,387,o),
(200,387,cs),
(243,387,o),
(260,359,o),
(260,282,cs),
(260,264,o),
(260,251,o),
(258,234,c),
(103,194,o),
(50,149,o),
(50,79,cs),
(50,25,o),
(88,-12,o),
(148,-12,cs)
);
},
{
closed = 1;
nodes = (
(134,41,o),
(113,63,o),
(113,98,cs),
(113,144,o),
(151,178,o),
(257,211,c),
(256,173,o),
(256,137,o),
(256,98,c),
(226,58,o),
(193,41,o),
(164,41,cs)
);
}
);
};
layerId = m004;
shapes = (
{
closed = 1;
nodes = (
(344,-260,o),
(366,-246,o),
(393,-212,c),
(393,-185,l),
(376,-202,o),
(362,-210,o),
(340,-210,cs),
(302,-210,o),
(282,-187,o),
(282,-139,cs),
(282,-96,o),
(311,-47,o),
(368,10,cs),
(379,21,o),
(391,37,o),
(403,57,c),
(381,75,l),
(367,55,o),
(356,48,o),
(345,48,cs),
(326,48,o),
(313,70,o),
(313,116,cs),
(313,178,o),
(320,241,o),
(320,303,cs),
(320,369,o),
(281,417,o),
(231,417,cs),
(153,417,o),
(69,364,o),
(69,301,cs),
(69,294,o),
(70,286,o),
(74,275,c),
(123,301,l),
(122,306,o),
(121,312,o),
(121,317,cs),
(121,330,o),
(124,340,o),
(127,345,cs),
(136,361,o),
(165,387,o),
(200,387,cs),
(243,387,o),
(260,359,o),
(260,282,cs),
(260,264,o),
(260,251,o),
(258,234,c),
(103,194,o),
(50,149,o),
(50,79,cs),
(50,25,o),
(88,-12,o),
(148,-12,cs),
(188,-12,o),
(223,9,o),
(257,62,c),
(266,15,o),
(292,-12,o),
(322,-12,cs),
(337,-12,l),
(348,4,l),
(266,-49,o),
(221,-115,o),
(221,-169,cs),
(221,-220,o),
(252,-260,o),
(304,-260,cs)
);
},
{
closed = 1;
nodes = (
(134,41,o),
(113,63,o),
(113,98,cs),
(113,144,o),
(151,178,o),
(257,211,c),
(256,173,o),
(256,136,o),
(256,98,c),
(226,58,o),
(193,41,o),
(164,41,cs)
);
}
);
width = 418;
},
{
anchors = (
{
name = top;
pos = (234,465);
}
);
background = {
shapes = (
{
closed = 0;
nodes = (
(399,5,l),
(321,-40,o),
(275,-102,o),
(275,-159,cs),
(275,-211,o),
(313,-253,o),
(383,-253,cs),
(424,-253,o),
(454,-239,o),
(487,-205,c)
);
}
);
};
layerId = "44D59E61-3B4F-4F98-A7D7-4CA7F8682DBB";
shapes = (
{
closed = 1;
nodes = (
(424,-253,o),
(454,-239,o),
(487,-205,c),
(487,-178,l),
(468,-195,o),
(452,-203,o),
(429,-203,cs),
(386,-203,o),
(366,-176,o),
(366,-137,cs),
(366,-93,o),
(391,-36,o),
(451,4,cs),
(474,19,o),
(493,39,o),
(509,67,c),
(481,90,l),
(467,70,o),
(454,62,o),
(442,62,cs),
(422,62,o),
(408,87,o),
(408,125,cs),
(408,242,o),
(413,290,o),
(413,354,cs),
(413,425,o),
(355,477,o),
(259,477,cs),
(150,477,o),
(51,417,o),
(51,346,cs),
(51,339,o),
(52,329,o),
(56,317,c),
(175,344,l),
(172,351,o),
(169,360,o),
(169,371,cs),
(169,381,o),
(172,389,o),
(175,395,cs),
(184,409,o),
(213,431,o),
(246,431,cs),
(283,431,o),
(299,402,o),
(299,329,cs),
(299,307,o),
(299,287,o),
(297,265,c),
(109,222,o),
(39,168,o),
(39,91,cs),
(39,26,o),
(89,-12,o),
(161,-12,cs),
(214,-12,o),
(258,10,o),
(295,62,c),
(301,15,o),
(335,-12,o),
(387,-12,cs),
(403,-12,l),
(399,5,l),
(321,-40,o),
(275,-102,o),
(275,-159,cs),
(275,-211,o),
(313,-253,o),
(383,-253,cs)
);
},
{
closed = 1;
nodes = (
(188,49,o),
(165,72,o),
(165,108,cs),
(165,157,o),
(204,194,o),
(297,224,c),
(294,183,o),
(294,156,o),
(294,114,c),
(269,70,o),
(240,49,o),
(215,49,cs)
);
}
);
width = 521;
}
);
metricLeft = a;
metricRight = a;
unicode = 261;
},
